<svg id="Layer_1" data-name="Layer 1" xmlns="http://www.w3.org/2000/svg" viewBox="0 0 61.65 18.12"><path d="M63.52,20.65c0,1.54-.42,5.11-4.32,5.11s-4.32-3.57-4.32-5.11V10.08H52.67V20.84A8,8,0,0,0,54,25.38a6,6,0,0,0,5.22,2.39,6,6,0,0,0,5.23-2.39,8,8,0,0,0,1.3-4.54V10.08H63.52V20.65Z" transform="translate(-52.67 -9.65)"/><polygon points="29.79 14.21 20.37 0.42 17.86 0.42 17.86 17.7 20.07 17.7 20.07 3.77 29.48 17.7 32 17.7 32 0.42 29.79 0.42 29.79 14.21"/><rect x="36.9" y="0.43" width="2.21" height="17.27"/><path d="M114.33,26.05l-2.11-2.11a9.3,9.3,0,0,0,1.54-5.23,9.08,9.08,0,0,0-2.57-6.49,9.3,9.3,0,0,0-12.84,0,9.09,9.09,0,0,0-2.57,6.49,9.1,9.1,0,0,0,2.57,6.5,9,9,0,0,0,6.42,2.57,9.1,9.1,0,0,0,5.83-2l2,2Zm-9.56-14.4c4.39,0,6.69,3.55,6.69,7.06a7.87,7.87,0,0,1-.87,3.6l-1.92-1.92L107,22.11l2.12,2.12a6.4,6.4,0,0,1-4.31,1.53c-4.39,0-6.69-3.55-6.69-7S100.38,11.65,104.77,11.65Z" transform="translate(-52.67 -9.65)"/></svg>