<svg id="Layer_1" data-name="Layer 1" xmlns="http://www.w3.org/2000/svg" viewBox="0 0 756.94 462.39"><defs><style>.cls-1{fill:#231f20;}.cls-2{fill:#8dc63f;}.cls-3{fill:#009444;}.cls-4{fill:#39b54a;}</style></defs><path class="cls-1" d="M48.05,269.66a7,7,0,0,1,4-2.78,27.09,27.09,0,0,1,6.75-1.19,64.33,64.33,0,0,1,8.17.1,80.17,80.17,0,0,1,8.21,1,55.87,55.87,0,0,1,6.8,1.6,13.76,13.76,0,0,1,4.1,1.82,9.52,9.52,0,0,1,2.15,2.88A23,23,0,0,1,90,277.56a34.3,34.3,0,0,1,1.09,5.34,24.81,24.81,0,0,1,.14,5.42A13.91,13.91,0,0,1,90,293.07a7.65,7.65,0,0,1-2.92,3.33,6,6,0,0,1,.82-.14,8.48,8.48,0,0,1,2.28.05,9.32,9.32,0,0,1,2.87.91,6.37,6.37,0,0,1,2.6,2.47,18.32,18.32,0,0,1,1.88,5.2,29.36,29.36,0,0,1,.68,7.2,24.75,24.75,0,0,1-1.41,7.62,14.7,14.7,0,0,1-4.43,6.44,15.63,15.63,0,0,1-5.11,2.73,41.16,41.16,0,0,1-7.16,1.69,77.16,77.16,0,0,1-8.35.78q-4.38.18-8.67,0c-2.86-.12-5.57-.37-8.12-.73a49,49,0,0,1-6.66-1.37c-.85-.25-1.57-1.67-2.15-4.29a71.65,71.65,0,0,1-1.32-9.81q-.47-5.88-.5-12.91c0-4.68.07-9.19.32-13.5a116.61,116.61,0,0,1,1.18-11.69C46.41,273.59,47.14,271.12,48.05,269.66Zm19.26,40a3.64,3.64,0,0,0-.55,1.92,3.74,3.74,0,0,0,.5,1.87,3.69,3.69,0,0,0,1.55,1.41,5.53,5.53,0,0,0,2.6.55,11.71,11.71,0,0,0,3.33-.36,3.59,3.59,0,0,0,1.65-1,1.89,1.89,0,0,0,.45-1.41c0-.55-.07-1.12-.13-1.73a6.45,6.45,0,0,0-.73-2.56A3.5,3.5,0,0,0,74.65,307a4.53,4.53,0,0,0-1.64-.5,15.77,15.77,0,0,0-1.6-.1c-.48,0-.88,0-1.18.05a1.88,1.88,0,0,0-.87.32,3.63,3.63,0,0,0-.86.91A21.68,21.68,0,0,0,67.31,309.63ZM67.76,283c-.18.68-.32,1.28-.41,1.83a2.15,2.15,0,0,0,.19,1.42,2.1,2.1,0,0,0,1.18.91,7.32,7.32,0,0,0,2.42.32,11.29,11.29,0,0,0,3.33-.37,3.17,3.17,0,0,0,1.6-1,2.24,2.24,0,0,0,.45-1.41q0-.83-.09-1.74a6.29,6.29,0,0,0-.73-2.55,3.27,3.27,0,0,0-1.37-1.32,4.7,4.7,0,0,0-1.69-.5,14.71,14.71,0,0,0-1.5-.09A2.24,2.24,0,0,0,69,279.84,18.51,18.51,0,0,0,67.76,283Z" transform="translate(-44.35 -45.05)"/><path class="cls-1" d="M99.7,328.88c-.31-.24-.46-1.26-.46-3.05s.12-4.06.37-6.8.59-5.84,1-9.31,1-7,1.65-10.63,1.35-7.18,2.14-10.67,1.63-6.68,2.51-9.54a44.36,44.36,0,0,1,2.78-7.12c1-1.88,2-3,2.92-3.46.25-.07,1-.23,2.15-.51s2.65-.53,4.38-.77,3.65-.46,5.75-.64a46.7,46.7,0,0,1,6.25-.14A30.44,30.44,0,0,1,137,267a11.12,11.12,0,0,1,4.43,2,15,15,0,0,1,3.24,4.42A67.48,67.48,0,0,1,148,281q1.69,4.38,3.38,9.54c1.12,3.43,2.19,6.92,3.2,10.44s1.92,6.94,2.77,10.22,1.59,6.22,2.2,8.81,1.08,4.7,1.41,6.34a11.87,11.87,0,0,1,.41,2.74c-.06.3-.9.53-2.51.68s-3.6.26-6,.32-4.91.08-7.61.05-5.24-.11-7.58-.24-4.27-.28-5.8-.5-2.24-.46-2.18-.77c0-.49,0-1.23-.09-2.24a20.35,20.35,0,0,0-.37-2.78l-.64-3.38c.06-.24-.24-.41-.91-.5a13.64,13.64,0,0,0-2.28-.09A9.08,9.08,0,0,0,123,320c-.76.25-1.17.55-1.23.92,0,.12,0,.54-.09,1.27s-.14,1.55-.23,2.47-.17,1.78-.23,2.6-.09,1.35-.09,1.59-.47.48-1.42.69a27.14,27.14,0,0,1-3.6.5c-1.46.12-3.06.21-4.79.27s-3.39.05-5,0a37.44,37.44,0,0,1-4.2-.46A4.62,4.62,0,0,1,99.7,328.88Zm18.8-33.21c-.19.67-.32,1.27-.42,1.82a2.14,2.14,0,0,0,.19,1.42,2.05,2.05,0,0,0,1.18.91,7.32,7.32,0,0,0,2.42.32,11.71,11.71,0,0,0,3.33-.36,3.32,3.32,0,0,0,1.6-1,2.29,2.29,0,0,0,.45-1.42c0-.54,0-1.12-.09-1.73a6.34,6.34,0,0,0-.73-2.56,3.39,3.39,0,0,0-1.37-1.32,4.85,4.85,0,0,0-1.68-.5,15.05,15.05,0,0,0-1.51-.09,2.3,2.3,0,0,0-2.1,1.32A15.52,15.52,0,0,0,118.5,295.67Z" transform="translate(-44.35 -45.05)"/><path class="cls-1" d="M172.06,266.93a5.34,5.34,0,0,1,2.51-1,29.82,29.82,0,0,1,5.2-.5q3.24-.09,7.62.22a90.79,90.79,0,0,1,9.76,1.33l-4.56,22.63-3.1,15.6-1.37,7,5.61-.32,5.25-.27c1.88-.1,3.68-.13,5.38-.1s3.18.1,4.43.19,2,.28,2.23.59a6.28,6.28,0,0,1,.91,3.65,49.3,49.3,0,0,1-.13,5.52,52.09,52.09,0,0,1-.69,5.33,19.33,19.33,0,0,1-.73,3.11,43.54,43.54,0,0,1-9.62,1.28q-5.52.18-11.27-.05c-3.84-.15-7.55-.37-11.14-.64s-6.68-.47-9.3-.59c-.25-.24-.4-1.29-.46-3.15s-.06-4.26,0-7.21.15-6.28.27-10,.3-7.48.5-11.32.45-7.58.69-11.26.49-7,.73-9.91.47-5.3.69-7.16A9.49,9.49,0,0,1,172.06,266.93Z" transform="translate(-44.35 -45.05)"/><path class="cls-1" d="M216.86,328.88c-.3-.24-.46-1.26-.46-3.05s.13-4.06.37-6.8.59-5.84,1-9.31,1-7,1.64-10.63,1.36-7.18,2.15-10.67,1.62-6.68,2.51-9.54a43.44,43.44,0,0,1,2.78-7.12c1-1.88,1.95-3,2.92-3.46.24-.07,1-.23,2.14-.51s2.65-.53,4.38-.77,3.65-.46,5.75-.64a46.7,46.7,0,0,1,6.25-.14,30.44,30.44,0,0,1,5.79.78,11.06,11.06,0,0,1,4.43,2,14.84,14.84,0,0,1,3.24,4.42,67.38,67.38,0,0,1,3.38,7.53q1.68,4.38,3.37,9.54c1.13,3.43,2.19,6.92,3.2,10.44s1.92,6.94,2.78,10.22,1.58,6.22,2.19,8.81,1.08,4.7,1.42,6.34a11.52,11.52,0,0,1,.4,2.74c-.06.3-.89.53-2.5.68s-3.61.26-6,.32-4.91.08-7.62.05-5.23-.11-7.57-.24-4.28-.28-5.8-.5-2.25-.46-2.19-.77c0-.49,0-1.23-.09-2.24a19,19,0,0,0-.36-2.78l-.64-3.38c.06-.24-.25-.41-.91-.5a13.81,13.81,0,0,0-2.29-.09,8.94,8.94,0,0,0-2.41.41c-.77.25-1.18.55-1.24.92,0,.12,0,.54-.09,1.27s-.14,1.55-.23,2.47-.16,1.78-.23,2.6-.09,1.35-.09,1.59-.47.48-1.41.69a27.14,27.14,0,0,1-3.6.5c-1.46.12-3.06.21-4.79.27s-3.4.05-5,0a37,37,0,0,1-4.19-.46A4.66,4.66,0,0,1,216.86,328.88Zm18.8-33.21c-.18.67-.32,1.27-.41,1.82a2.2,2.2,0,0,0,.18,1.42,2,2,0,0,0,1.19.91,7.26,7.26,0,0,0,2.41.32,11.83,11.83,0,0,0,3.34-.36,3.28,3.28,0,0,0,1.59-1,2.24,2.24,0,0,0,.46-1.42c0-.54,0-1.12-.09-1.73a6.68,6.68,0,0,0-.73-2.56,3.46,3.46,0,0,0-1.37-1.32,5,5,0,0,0-1.69-.5,14.89,14.89,0,0,0-1.51-.09,2.27,2.27,0,0,0-2.09,1.32A15.51,15.51,0,0,0,235.66,295.67Z" transform="translate(-44.35 -45.05)"/><path class="cls-1" d="M284.38,330.25c0-.12,0-1.12.05-3s.06-4.33.09-7.35.08-6.4.14-10.17.12-7.63.18-11.59.14-7.8.23-11.54.16-7.07.23-10,.1-5.28.13-7.07a14.91,14.91,0,0,1,.14-2.7c.3-.06,1.15-.19,2.55-.41s3.08-.44,5-.68,4-.46,6.16-.64,4.18-.27,6.07-.27a24.9,24.9,0,0,1,4.84.41q2,.4,2.37,1.41c.06.25.38,1,1,2.38s1.29,2.93,2.14,4.78,1.78,3.87,2.79,6,1.91,4.17,2.73,6,1.51,3.42,2.06,4.7a16,16,0,0,1,.81,2.1c0,.12,0-.41-.09-1.6s-.12-2.7-.18-4.56-.13-3.88-.23-6.07-.16-4.26-.22-6.2-.13-3.62-.19-5-.09-2.19-.09-2.38.5-.35,1.51-.5,2.26-.27,3.78-.36,3.18-.15,5-.18,3.48-.05,5.06-.05,2.93,0,4.06.05a16.52,16.52,0,0,1,2.05.13c-.48-.24-.76.35-.82,1.78a46.51,46.51,0,0,0,.28,6q.36,3.87,1,9.07t1.14,10.86q.54,5.67.95,11.41t.28,10.67a52.08,52.08,0,0,1-.87,8.63A10.49,10.49,0,0,1,344,329.8a5.9,5.9,0,0,1-2.06.27c-1.24.06-2.78.1-4.6.14s-3.77,0-5.84,0-4-.08-5.84-.14-3.36-.17-4.61-.32-1.93-.32-2-.5-.49-.88-1.1-2.1-1.31-2.66-2.1-4.33-1.64-3.47-2.55-5.39-1.75-3.68-2.51-5.29-1.42-3-2-4.06a18.56,18.56,0,0,0-.92-1.73,5.73,5.73,0,0,0-.18,1.64c-.06,1.09-.11,2.48-.14,4.15s-.06,3.5-.09,5.47-.07,3.84-.14,5.57-.1,3.23-.13,4.47a13.57,13.57,0,0,1-.14,2.15c-.06.18-.67.36-1.82.54s-2.57.35-4.25.5-3.47.29-5.38.42-3.71.16-5.38.13a28.19,28.19,0,0,1-4.16-.32C284.93,330.89,284.38,330.62,284.38,330.25Z" transform="translate(-44.35 -45.05)"/><path class="cls-1" d="M399,271.67a6,6,0,0,1,1.05,3.1,22.55,22.55,0,0,1-.05,4.7,50.18,50.18,0,0,1-.87,5.39q-.58,2.77-1.32,5.15a34.22,34.22,0,0,1-1.5,4.06,4.31,4.31,0,0,1-1.33,2,2.91,2.91,0,0,1-1.78.41l-2.23-.09a12.86,12.86,0,0,0-2.33.14,4.28,4.28,0,0,0-2.05.91,6.61,6.61,0,0,0-2.24,3.52,2.72,2.72,0,0,0,1.05,3.14,12.3,12.3,0,0,0,2.19,1.1,14.56,14.56,0,0,0,2.83.82,10.58,10.58,0,0,0,2.69.18,2.42,2.42,0,0,0,1.78-.73c.18-.12.4.32.64,1.33s.5,2.31.78,3.92.51,3.41.72,5.38.38,3.83.51,5.57.18,3.25.18,4.56a4.65,4.65,0,0,1-.37,2.42,4.2,4.2,0,0,1-2.28,1.14,31.48,31.48,0,0,1-4.42.82c-1.74.21-3.62.37-5.66.46s-4.05.09-6,0-3.85-.26-5.61-.51a18.91,18.91,0,0,1-4.29-1,21.86,21.86,0,0,1-7-3,21.26,21.26,0,0,1-5.93-5.75,30.18,30.18,0,0,1-4.1-8.67,40.31,40.31,0,0,1-1.56-11.82,27.86,27.86,0,0,1,2.37-11.68,35.22,35.22,0,0,1,5.75-8.94,34.11,34.11,0,0,1,7-6,25.85,25.85,0,0,1,6.07-3c1-.25,2.34-.51,3.93-.78s3.28-.48,5.11-.63,3.68-.25,5.56-.28a52.15,52.15,0,0,1,5.39.18,22.88,22.88,0,0,1,4.51.82A5.88,5.88,0,0,1,399,271.67Z" transform="translate(-44.35 -45.05)"/><path class="cls-1" d="M449.35,269.48a14.87,14.87,0,0,1,.55,4.56,42,42,0,0,1-.41,5.89,46,46,0,0,1-1.05,5.43,8.53,8.53,0,0,1-1.36,3.28,4.75,4.75,0,0,1-2.15,1.28,19.7,19.7,0,0,1-2.83.68,15.33,15.33,0,0,1-2.55.23h-1.33c-.12,0-.21.31-.27.92s-.09,1.29-.09,2.05,0,1.5,0,2.23a8.8,8.8,0,0,0,.14,1.46c.06.25.38.38,1,.42s1.21,0,1.91,0a11.69,11.69,0,0,1,2.06.18,1.58,1.58,0,0,1,1.28.82,4.48,4.48,0,0,1,.22,2c0,.94-.1,1.91-.22,2.91a19.44,19.44,0,0,1-.51,2.7c-.21.79-.44,1.25-.68,1.37a4.45,4.45,0,0,1-1.37.27,15.47,15.47,0,0,1-2.05.05,17.09,17.09,0,0,1-1.92-.19c-.58-.09-.9-.23-1-.41s-.18.06-.36.73-.35,1.43-.51,2.28a11.75,11.75,0,0,0-.18,2.47c0,.79.23,1.21.6,1.28a3.27,3.27,0,0,0,1.46,0,18.77,18.77,0,0,1,1.91-.18,10.06,10.06,0,0,1,1.92.09,2.15,2.15,0,0,1,1.46.87,9,9,0,0,1,1.09,2.87c.37,1.43.67,2.95.92,4.56a43.68,43.68,0,0,1,.45,4.52,7.05,7.05,0,0,1-.18,2.65c-.12.24-1.08.53-2.87.86s-4,.62-6.66.87-5.54.42-8.67.54-6.09.11-8.86,0a36.84,36.84,0,0,1-7.16-1c-2-.52-3.25-1.26-3.74-2.24a20.37,20.37,0,0,1-1.14-6.11q-.4-4.67-.5-10.9T406,298.5c.21-4.68.59-9.1,1.14-13.23a76.23,76.23,0,0,1,2.1-10.77q1.28-4.56,3.1-5.93a9.27,9.27,0,0,1,4.15-1,68.36,68.36,0,0,1,7.25-.18q4.11.09,8.63.37t8.3.64q3.8.36,6.25.68A12.92,12.92,0,0,1,449.35,269.48Z" transform="translate(-44.35 -45.05)"/><path class="cls-1" d="M481.75,269.66a7,7,0,0,1,4-2.78,27.17,27.17,0,0,1,6.76-1.19,64.19,64.19,0,0,1,8.16.1,79.83,79.83,0,0,1,8.21,1,55,55,0,0,1,6.8,1.6,13.72,13.72,0,0,1,4.11,1.82,9.68,9.68,0,0,1,2.14,2.88,23,23,0,0,1,1.78,4.47,35.49,35.49,0,0,1,1.1,5.34,24.79,24.79,0,0,1,.13,5.42,13.91,13.91,0,0,1-1.23,4.75,7.59,7.59,0,0,1-2.92,3.33,6.61,6.61,0,0,1,.82-.14,8.55,8.55,0,0,1,2.29.05,9.32,9.32,0,0,1,2.87.91,6.49,6.49,0,0,1,2.6,2.47,18.35,18.35,0,0,1,1.87,5.2,28.42,28.42,0,0,1,.68,7.2,24.75,24.75,0,0,1-1.41,7.62,14.76,14.76,0,0,1-4.42,6.44,15.69,15.69,0,0,1-5.12,2.73,40.73,40.73,0,0,1-7.16,1.69,76.93,76.93,0,0,1-8.35.78q-4.38.18-8.67,0c-2.85-.12-5.56-.37-8.12-.73a49.66,49.66,0,0,1-6.66-1.37c-.85-.25-1.57-1.67-2.14-4.29a71.65,71.65,0,0,1-1.32-9.81q-.46-5.88-.51-12.91c0-4.68.08-9.19.32-13.5s.64-8.22,1.19-11.69S480.84,271.12,481.75,269.66Zm19.25,40a3.73,3.73,0,0,0-.55,1.92,3.61,3.61,0,0,0,2.06,3.28,5.5,5.5,0,0,0,2.6.55,11.71,11.71,0,0,0,3.33-.36,3.5,3.5,0,0,0,1.64-1,1.94,1.94,0,0,0,.46-1.41c0-.55-.08-1.12-.14-1.73a6.45,6.45,0,0,0-.73-2.56,3.48,3.48,0,0,0-1.32-1.32,4.58,4.58,0,0,0-1.65-.5,15.76,15.76,0,0,0-1.59-.1c-.49,0-.88,0-1.19.05a2,2,0,0,0-.87.32,3.63,3.63,0,0,0-.86.91C501.88,308.14,501.49,308.78,501,309.63Zm.46-26.65c-.18.68-.32,1.28-.41,1.83a1.9,1.9,0,0,0,1.37,2.33,7.28,7.28,0,0,0,2.42.32,11.22,11.22,0,0,0,3.32-.37,3.13,3.13,0,0,0,1.6-1,2.24,2.24,0,0,0,.45-1.41c0-.55,0-1.13-.08-1.74a6.62,6.62,0,0,0-.73-2.55,3.39,3.39,0,0,0-1.37-1.32,4.76,4.76,0,0,0-1.69-.5,14.87,14.87,0,0,0-1.5-.09,2.24,2.24,0,0,0-2.15,1.32A17.73,17.73,0,0,0,501.46,283Z" transform="translate(-44.35 -45.05)"/><path class="cls-1" d="M542.57,283.89c1-.16,2.5-.3,4.6-.43s4.27-.21,6.52-.25,4.3,0,6.16.12a8.62,8.62,0,0,1,3.54.71,5.48,5.48,0,0,1,.43,2.27c.1,1.35.16,3.07.19,5.18s0,4.46-.07,7.09-.19,5.31-.32,8.07-.29,5.48-.45,8.14-.36,5.1-.57,7.28-.45,4-.72,5.47a8.51,8.51,0,0,1-.74,2.67c-.41.55-1.46,1-3.16,1.2a42.48,42.48,0,0,1-5.74.4,62.78,62.78,0,0,1-6.31-.26,27.5,27.5,0,0,1-4.86-.77c-.36-.12-.65-.87-.83-2.26a37.81,37.81,0,0,1-.29-5.4q0-3.33.14-7.53c.11-2.8.26-5.66.44-8.55s.39-5.73.59-8.49.39-5.23.61-7.41.39-3.93.53-5.25A9.21,9.21,0,0,1,542.57,283.89Z" transform="translate(-44.35 -45.05)"/><path class="cls-1" d="M575.83,268.2c.24-.48,1-.86,2.27-1.14a31.19,31.19,0,0,1,4.61-.55c1.79-.09,3.7-.1,5.71,0s3.87.17,5.61.32,3.22.33,4.47.55a5.7,5.7,0,0,1,2.14.59,3.57,3.57,0,0,1,.28,1.83c0,1,0,2.14,0,3.51s-.1,2.81-.23,4.33-.22,2.92-.32,4.2-.15,2.34-.18,3.19,0,1.28.05,1.28a6.91,6.91,0,0,0,.91-1.41c.55-.95,1.22-2.12,2-3.52s1.67-2.89,2.64-4.47,1.92-3,2.83-4.24a18.86,18.86,0,0,1,2.56-2.92c.79-.7,1.4-.87,1.82-.5a8.33,8.33,0,0,0,3.29,1.55l4.65,1.32a31.34,31.34,0,0,1,4.24,1.55,3.36,3.36,0,0,1,2.15,2.24c.12.61-.23,1.64-1,3.1s-1.87,3.16-3.15,5.11-2.61,4-4,6.16-2.62,4.2-3.65,6.11a21.53,21.53,0,0,0-2.1,5.16c-.37,1.52-.16,2.59.64,3.19a15.11,15.11,0,0,1,2.64,2.88,50.43,50.43,0,0,1,2.88,4.38q1.41,2.42,2.64,5.06c.82,1.77,1.51,3.42,2,5a20.94,20.94,0,0,1,1.06,4,2.78,2.78,0,0,1-.32,2.24,6.14,6.14,0,0,1-2.42.95c-1.19.28-2.59.52-4.2.73s-3.28.38-5,.51-3.33.18-4.79.18-2.66-.05-3.6-.14-1.42-.26-1.42-.5a8.59,8.59,0,0,0-1.18-2.51c-.79-1.37-1.68-2.81-2.65-4.33s-1.86-2.85-2.65-4-1.18-1.6-1.18-1.42a11.65,11.65,0,0,0-.1,2.1c0,1.22,0,2.54-.13,4a37.11,37.11,0,0,1-.46,4c-.21,1.21-.59,1.95-1.14,2.19a14.7,14.7,0,0,1-3.33.59c-1.86.21-3.86.38-6,.5s-4.15.17-6,.14-2.92-.23-3.28-.59-.53-1.31-.68-3.2-.28-4.27-.37-7.16-.14-6.13-.14-9.72,0-7.27.09-11,.14-7.45.23-11,.22-6.84.37-9.76.3-5.32.45-7.21A11.58,11.58,0,0,1,575.83,268.2Z" transform="translate(-44.35 -45.05)"/><path class="cls-1" d="M679.12,269.48a15.23,15.23,0,0,1,.54,4.56,42,42,0,0,1-.41,5.89,46,46,0,0,1-1,5.43,8.35,8.35,0,0,1-1.37,3.28,4.66,4.66,0,0,1-2.14,1.28,19.08,19.08,0,0,1-2.83.68,15.26,15.26,0,0,1-2.56.23H668c-.12,0-.21.31-.27.92s-.09,1.29-.09,2.05,0,1.5,0,2.23a8.09,8.09,0,0,0,.13,1.46c.06.25.38.38,1,.42s1.21,0,1.91,0a11.77,11.77,0,0,1,2.06.18A1.58,1.58,0,0,1,674,299a4.48,4.48,0,0,1,.22,2c0,.94-.1,1.91-.22,2.91a19.44,19.44,0,0,1-.51,2.7c-.21.79-.44,1.25-.68,1.37a4.38,4.38,0,0,1-1.37.27,15.51,15.51,0,0,1-2.05.05,17.33,17.33,0,0,1-1.92-.19c-.58-.09-.9-.23-1-.41s-.19.06-.37.73-.35,1.43-.5,2.28a11.11,11.11,0,0,0-.18,2.47c0,.79.22,1.21.59,1.28a3.27,3.27,0,0,0,1.46,0,18.5,18.5,0,0,1,1.91-.18,10.06,10.06,0,0,1,1.92.09,2.15,2.15,0,0,1,1.46.87,9,9,0,0,1,1.09,2.87,44.25,44.25,0,0,1,.92,4.56,43.68,43.68,0,0,1,.45,4.52,7.05,7.05,0,0,1-.18,2.65c-.12.24-1.08.53-2.87.86s-4,.62-6.66.87-5.54.42-8.67.54-6.09.11-8.85,0a36.84,36.84,0,0,1-7.17-1c-2-.52-3.25-1.26-3.74-2.24s-.86-3-1.14-6.11-.44-6.74-.5-10.9,0-8.6.22-13.28.6-9.1,1.15-13.23A77.68,77.68,0,0,1,639,274.5q1.28-4.56,3.1-5.93a9.27,9.27,0,0,1,4.15-1,68.36,68.36,0,0,1,7.25-.18q4.11.09,8.63.37c3,.18,5.77.39,8.3.64s4.61.47,6.26.68A13.15,13.15,0,0,1,679.12,269.48Z" transform="translate(-44.35 -45.05)"/><path class="cls-2" d="M542.3,267.37c1,0,2.51,0,4.62,0s4.29.06,6.56.11,4.34.11,6.22.18,3.08.16,3.6.25c.2,0,.38.22.55.52a6.85,6.85,0,0,1,.45,1.17,9,9,0,0,1,.27,1.6c0,.58.08,1.19.08,1.81s0,1.22,0,1.82a10.58,10.58,0,0,1-.22,1.62,4.14,4.14,0,0,1-.45,1.21,1.19,1.19,0,0,1-.62.59,17.53,17.53,0,0,1-3.13.19q-2.55,0-5.76-.06c-2.15-.05-4.27-.12-6.38-.21s-3.75-.2-4.94-.3a1.34,1.34,0,0,1-1-.53,2.71,2.71,0,0,1-.56-1.22,10.06,10.06,0,0,1-.22-1.69,13.55,13.55,0,0,1,0-1.91c.05-.65.11-1.28.17-1.9a15.3,15.3,0,0,1,.25-1.65c.11-.49.2-.88.28-1.17S542.24,267.37,542.3,267.37Z" transform="translate(-44.35 -45.05)"/><path class="cls-1" d="M193.4,359.21l-.05-.27a4.06,4.06,0,0,0-.22-.74c-.11-.25-.26-.38-.48-.38h-7.19a3.74,3.74,0,0,1-2.07-.65,7.5,7.5,0,0,1-1.77-1.66,11.09,11.09,0,0,1-1.34-2.23,9.94,9.94,0,0,1-.76-2.38,7,7,0,0,1,.06-2.45,10.11,10.11,0,0,1,.85-2.61,7.24,7.24,0,0,1,1.43-2.07,2.59,2.59,0,0,1,1.88-.83h18.34q-.59,1.53-1.35,3.06a27,27,0,0,1-1.8,3.05H187.06c-.27,0-.46.23-.58.68a2.93,2.93,0,0,0-.1,1.08l0,.22a.67.67,0,0,0,.17.2l.27.25a2,2,0,0,0,.46.34,1.93,1.93,0,0,0,.35.15h6.83a3.5,3.5,0,0,1,2.08.7,7.06,7.06,0,0,1,1.68,1.76,10.9,10.9,0,0,1,1.19,2.27,12.3,12.3,0,0,1,.64,2.24l0,.27a7.75,7.75,0,0,1,0,2.5,9.16,9.16,0,0,1-.71,2.45,6.15,6.15,0,0,1-1.29,1.86,2.46,2.46,0,0,1-1.76.75H178.05a10.11,10.11,0,0,1,.49-1.44c.25-.66.53-1.33.84-2s.57-1.27.82-1.8.43-.79.52-.79H193c.36,0,.54-.13.55-.4a3.23,3.23,0,0,0-.06-.86Z" transform="translate(-44.35 -45.05)"/><path class="cls-1" d="M203.74,346.42h14.09a2.35,2.35,0,0,1,1.55.6,5.65,5.65,0,0,1,1.21,1.46,9.1,9.1,0,0,1,.86,1.84,10.2,10.2,0,0,1,.49,1.74,6.78,6.78,0,0,1-.1,3,6.54,6.54,0,0,1-1.14,2.32,5.44,5.44,0,0,1-1.83,1.52,4.55,4.55,0,0,1-2.09.54h-8.64l-.85,7.37h-5.91Zm4.95,7.79h6.95s.06,0,.12-.17a4.15,4.15,0,0,0,.16-.4c.05-.16.1-.3.15-.44a.77.77,0,0,0,.06-.33l0-.19a.58.58,0,0,1-.11-.19,3.48,3.48,0,0,0-.4-.52q-.28-.33-.36-.33H209Z" transform="translate(-44.35 -45.05)"/><path class="cls-1" d="M243.78,359.9a11.37,11.37,0,0,1-1.65,3.51,8.54,8.54,0,0,1-2.62,2.43,6.45,6.45,0,0,1-3.39.93h-3.61a14.24,14.24,0,0,1-3.19-.35,7.8,7.8,0,0,1-2.7-1.17,7,7,0,0,1-2-2.24,10.38,10.38,0,0,1-1.23-3.58c0-.3-.1-.62-.13-.95s-.06-.68-.07-1a12.52,12.52,0,0,1,.4-4.05,11.93,11.93,0,0,1,1.57-3.53,8.54,8.54,0,0,1,2.47-2.5,5.61,5.61,0,0,1,3.06-.94h4.57a9.72,9.72,0,0,1,5.8,1.65,8,8,0,0,1,3,5.45c.07.36.12.72.16,1.08s.07.74.09,1.15A12.77,12.77,0,0,1,243.78,359.9Zm-15-2.73,0,.23a5.89,5.89,0,0,0,.47,1.44,6.46,6.46,0,0,0,.84,1.36,4.83,4.83,0,0,0,1,1,1.92,1.92,0,0,0,1.13.38h2.53a1.56,1.56,0,0,0,.77-.32,6.94,6.94,0,0,0,1-.87,7.17,7.17,0,0,0,1-1.2,4.58,4.58,0,0,0,.63-1.33l.13-.48a.77.77,0,0,0,0-.36l.09-.39a.66.66,0,0,1,0-.23v-.11c0-.21,0-.42-.06-.64s-.06-.44-.1-.67a7.91,7.91,0,0,0-.31-1.23,3.87,3.87,0,0,0-.56-1.09,2.61,2.61,0,0,0-.88-.77,2.74,2.74,0,0,0-1.3-.29h-3a1.82,1.82,0,0,0-1,.33,4.59,4.59,0,0,0-1,.86,7.59,7.59,0,0,0-.83,1.21,5.34,5.34,0,0,0-.51,1.33c-.05.3-.09.59-.12.86a4.53,4.53,0,0,0,0,.71A.62.62,0,0,0,228.82,357.17Z" transform="translate(-44.35 -45.05)"/><path class="cls-1" d="M247,346.42h13.71a3,3,0,0,1,1.88.58,4.64,4.64,0,0,1,1.28,1.46,8.71,8.71,0,0,1,.8,1.92,16.86,16.86,0,0,1,.45,1.92,5.6,5.6,0,0,1-.2,3.22,4.67,4.67,0,0,1-1.58,2,6.79,6.79,0,0,1-2.36,1.08,17.83,17.83,0,0,1-2.54.44l7.39,7.72h-6.6l-7.58-7.3-.29.31-.81,7h-5.91Zm12.13,5.88a1.45,1.45,0,0,0-.17-.52c-.07-.14-.24-.21-.49-.21h-6.18l-.34,2.57h6.66a.56.56,0,0,0,.57-.52,2.8,2.8,0,0,0,0-.9Z" transform="translate(-44.35 -45.05)"/><path class="cls-1" d="M272.75,351.6H267v0a4.56,4.56,0,0,1,.3-.85c.18-.46.42-1,.7-1.53s.58-1.11.89-1.64a5.27,5.27,0,0,1,.81-1.13H285a9.75,9.75,0,0,1-.48,1.4,18.64,18.64,0,0,1-.77,1.71,12.54,12.54,0,0,1-.86,1.46c-.28.41-.5.61-.66.61h-3.64l-1.74,15.17H271Z" transform="translate(-44.35 -45.05)"/><path class="cls-1" d="M297.71,360.32l0-.23a3.3,3.3,0,0,0-.19-.64.45.45,0,0,0-.41-.32h-6.14a3.21,3.21,0,0,1-1.77-.56,6.13,6.13,0,0,1-1.51-1.42,9.3,9.3,0,0,1-1.14-1.9,8.38,8.38,0,0,1-.65-2,6,6,0,0,1,.05-2.1,9.3,9.3,0,0,1,.72-2.22,6.33,6.33,0,0,1,1.23-1.77,2.24,2.24,0,0,1,1.6-.71h15.66c-.33.87-.72,1.74-1.15,2.61a23.71,23.71,0,0,1-1.54,2.61H292.3c-.23,0-.4.19-.5.58a2.42,2.42,0,0,0-.08.92l0,.19a.45.45,0,0,0,.15.17l.23.21a1.24,1.24,0,0,0,.39.29,1.41,1.41,0,0,0,.3.14h5.83a3.09,3.09,0,0,1,1.85.59,5.82,5.82,0,0,1,1.42,1.5,9,9,0,0,1,1,1.94,11.2,11.2,0,0,1,.53,1.92l0,.23a6.58,6.58,0,0,1,0,2.13,7.8,7.8,0,0,1-.61,2.09,5.4,5.4,0,0,1-1.1,1.59,2.09,2.09,0,0,1-1.51.64H284.6a10,10,0,0,1,.42-1.23q.33-.84.72-1.71c.25-.58.49-1.09.7-1.54s.37-.67.44-.67h10.44c.31,0,.47-.11.48-.34a3.64,3.64,0,0,0-.05-.73Z" transform="translate(-44.35 -45.05)"/><path class="cls-1" d="M336.46,355.93a25.59,25.59,0,0,1-2.16,5,12.1,12.1,0,0,1-2.8,3.35,10.4,10.4,0,0,1-3.73,1.91,18.06,18.06,0,0,1-4.91.61h-9l2.77-23.83h15.64a4.16,4.16,0,0,1,3.39,1.48,8,8,0,0,1,1.63,3.78,14.36,14.36,0,0,1,.13,3.8A13,13,0,0,1,336.46,355.93ZM322.92,349l-1.35,11.69h.94a4.88,4.88,0,0,0,1.92-.47A10.6,10.6,0,0,0,326.5,359a10.72,10.72,0,0,0,1.83-1.73,5.68,5.68,0,0,0,1.14-2c.08-.24.18-.51.31-.81a4.18,4.18,0,0,0,.27-1c.06-.48.14-.95.22-1.39a3.37,3.37,0,0,0,0-1.26,2.91,2.91,0,0,0-.52-1.28,1.24,1.24,0,0,0-1.06-.52Z" transform="translate(-44.35 -45.05)"/><path class="cls-1" d="M357.71,346.09a14.52,14.52,0,0,1-.49,1.43c-.24.58-.5,1.16-.79,1.73a12.09,12.09,0,0,1-.87,1.48c-.29.42-.51.63-.67.63h-9.64l-.3,2.53h9.18l-3.56,5.27h-6.2l-.29,2.34h12c0,.05-.05.16-.1.33s-.1.35-.16.53-.11.35-.16.5a1.38,1.38,0,0,1-.11.28,8.8,8.8,0,0,1-.56,1.09l-.75,1.19c-.25.38-.46.7-.65,1a2,2,0,0,1-.32.39H337.52l2.4-20.68Z" transform="translate(-44.35 -45.05)"/><path class="cls-1" d="M374.67,346.09h6.44l-7.86,18.26c-.08.15-.19.36-.34.62s-.31.53-.48.8a4.55,4.55,0,0,1-.54.71.77.77,0,0,1-.51.29h-5.15a.85.85,0,0,1-.66-.43,7.11,7.11,0,0,1-.62-1,13.83,13.83,0,0,1-.54-1.31c-.16-.46-.31-.84-.44-1.15l-4.86-16.74h5.42L368.47,360Z" transform="translate(-44.35 -45.05)"/><path class="cls-1" d="M400.34,346.09a10.63,10.63,0,0,1-.49,1.43c-.23.58-.5,1.16-.78,1.73a12.09,12.09,0,0,1-.87,1.48c-.3.42-.52.63-.67.63h-9.64l-.32,2.53h9.19l-3.55,5.27H387l-.29,2.34h12c0,.05-.05.16-.1.33s-.1.35-.16.53l-.16.5a1.38,1.38,0,0,1-.11.28,9,9,0,0,1-.57,1.09c-.25.42-.5.81-.74,1.19s-.46.7-.65,1a2,2,0,0,1-.32.39H380.15l2.4-20.68Z" transform="translate(-44.35 -45.05)"/><path class="cls-1" d="M399.66,366.77l2.4-20.68h6l-1.81,15.41h9.91a2.84,2.84,0,0,1-.26.66c-.19.45-.43,1-.72,1.54s-.59,1.17-.92,1.76a8.89,8.89,0,0,1-.84,1.31Z" transform="translate(-44.35 -45.05)"/><path class="cls-1" d="M438.14,359.79a11.81,11.81,0,0,1-1.67,3.56,8.75,8.75,0,0,1-2.67,2.48,6.64,6.64,0,0,1-3.44.94h-3.67a14.56,14.56,0,0,1-3.24-.35,8,8,0,0,1-2.74-1.19,7.14,7.14,0,0,1-2.09-2.29,10.83,10.83,0,0,1-1.24-3.62c-.06-.32-.1-.64-.13-1s-.06-.69-.07-1a12.65,12.65,0,0,1,2-7.71,8.68,8.68,0,0,1,2.52-2.53,5.6,5.6,0,0,1,3.11-1h4.64a9.82,9.82,0,0,1,5.89,1.68,8.15,8.15,0,0,1,3,5.54c.06.36.11.73.15,1.09s.07.76.09,1.17A12.92,12.92,0,0,1,438.14,359.79ZM422.94,357l0,.24a5.93,5.93,0,0,0,.48,1.46,6.68,6.68,0,0,0,.84,1.39,5.54,5.54,0,0,0,1.06,1,2,2,0,0,0,1.14.39h2.58a1.66,1.66,0,0,0,.78-.33,6.12,6.12,0,0,0,1.05-.88,7.66,7.66,0,0,0,1-1.23,4.91,4.91,0,0,0,.63-1.34c0-.18.09-.35.13-.49a.85.85,0,0,0,0-.37l.08-.39c0-.1,0-.18,0-.24v-.11c0-.21,0-.43-.06-.65s0-.45-.09-.68a9.56,9.56,0,0,0-.32-1.25,4,4,0,0,0-.57-1.11,2.71,2.71,0,0,0-.9-.78,2.8,2.8,0,0,0-1.32-.29h-3.08a1.88,1.88,0,0,0-1,.33,4.08,4.08,0,0,0-1,.88,7.3,7.3,0,0,0-.84,1.22,5.67,5.67,0,0,0-.52,1.35c-.05.31-.09.61-.12.88a4.61,4.61,0,0,0,0,.72A.48.48,0,0,0,422.94,357Z" transform="translate(-44.35 -45.05)"/><path class="cls-1" d="M441.46,346.09h14.31a2.32,2.32,0,0,1,1.57.61,5.64,5.64,0,0,1,1.24,1.48,10.68,10.68,0,0,1,.88,1.87,11.65,11.65,0,0,1,.48,1.77,6.57,6.57,0,0,1-.09,3,6.45,6.45,0,0,1-1.17,2.36,5.36,5.36,0,0,1-1.85,1.54,4.69,4.69,0,0,1-2.13.55h-8.77l-.87,7.49h-6Zm5,7.92h7.11s.07-.06.13-.18a2.34,2.34,0,0,0,.16-.41L454,353a.69.69,0,0,0,.06-.34l0-.19a.53.53,0,0,1-.12-.2,4.08,4.08,0,0,0-.4-.52c-.19-.22-.32-.33-.37-.33h-6.4Z" transform="translate(-44.35 -45.05)"/><path class="cls-1" d="M478.5,366.77l1.3-11.63-6.42,11.63H471.2l-3.77-11.63-1.3,11.63h-6l2.4-20.68h7.53l3.43,10.38,5.82-10.38h7.56l-2.4,20.68Z" transform="translate(-44.35 -45.05)"/><path class="cls-1" d="M506.41,346.09a12.28,12.28,0,0,1-.49,1.43c-.24.58-.5,1.16-.79,1.73a12.09,12.09,0,0,1-.87,1.48c-.29.42-.51.63-.67.63H494l-.28,2.53h9.15l-3.56,5.27h-6.2l-.29,2.34h12q0,.08-.09.33c-.05.17-.1.35-.16.53l-.17.5a.94.94,0,0,1-.11.28,7.6,7.6,0,0,1-.56,1.09c-.26.42-.5.81-.75,1.19s-.46.7-.65,1a2,2,0,0,1-.32.39H486.22l2.4-20.68Z" transform="translate(-44.35 -45.05)"/><path class="cls-1" d="M508.12,346.09h7.53l3.85,11.63,1.34-11.63h5.93l-2.36,20.68h-7.57L513,355.14l-1.3,11.63h-6Z" transform="translate(-44.35 -45.05)"/><path class="cls-1" d="M533.67,351.36h-5.9v0a4.27,4.27,0,0,1,.3-.86c.19-.47.43-1,.71-1.56s.6-1.12.9-1.66a5.43,5.43,0,0,1,.84-1.15h15.64a14.52,14.52,0,0,1-.49,1.43c-.24.58-.5,1.16-.79,1.73a12.09,12.09,0,0,1-.87,1.48c-.29.42-.51.63-.67.63h-3.71l-1.77,15.41h-6Z" transform="translate(-44.35 -45.05)"/><path class="cls-1" d="M553,366.77l2.77-23.83h6.88l-2.09,17.76H572a3.12,3.12,0,0,1-.29.76c-.23.51-.51,1.1-.84,1.78s-.68,1.35-1.06,2a10.68,10.68,0,0,1-1,1.51Z" transform="translate(-44.35 -45.05)"/><path class="cls-1" d="M575.56,346.41h5.91l-2.32,20.36h-5.92Z" transform="translate(-44.35 -45.05)"/><path class="cls-1" d="M599,366.77l1.28-11.45L594,366.77h-2.15l-3.7-11.45-1.29,11.45h-5.92l2.37-20.36h7.41l3.37,10.22,5.73-10.22h7.45l-2.36,20.36Z" transform="translate(-44.35 -45.05)"/><path class="cls-1" d="M609,346.41h5.91l-2.32,20.36h-5.91Z" transform="translate(-44.35 -45.05)"/><path class="cls-1" d="M621.79,351.59H616v0a4.84,4.84,0,0,1,.3-.85c.18-.46.42-1,.7-1.53s.59-1.11.89-1.64a5.25,5.25,0,0,1,.82-1.13h15.4a11.52,11.52,0,0,1-.49,1.4,18.64,18.64,0,0,1-.77,1.71A11.79,11.79,0,0,1,632,351c-.29.41-.51.61-.67.61h-3.65l-1.73,15.18h-5.88Z" transform="translate(-44.35 -45.05)"/><path class="cls-1" d="M653.17,346.41a9.51,9.51,0,0,1-.47,1.4q-.36.87-.78,1.71a11.76,11.76,0,0,1-.86,1.46c-.28.41-.5.61-.66.61h-9.48l-.27,2.5h9l-3.5,5.19H640l-.28,2.3h11.79a3,3,0,0,0-.09.33c-.06.17-.11.34-.17.52s-.11.34-.16.49a.81.81,0,0,1-.1.27,7.23,7.23,0,0,1-.57,1.08c-.24.41-.49.8-.73,1.17s-.45.69-.64.94-.29.39-.32.39H633.3l2.36-20.36Z" transform="translate(-44.35 -45.05)"/><path class="cls-1" d="M671.78,357.59a26.67,26.67,0,0,1-1.92,4.24,10,10,0,0,1-2.38,2.84,8.73,8.73,0,0,1-3.14,1.6,15.6,15.6,0,0,1-4.16.5H652.5l2.37-20.36h13.36a3.55,3.55,0,0,1,2.9,1.27,6.88,6.88,0,0,1,1.39,3.22,11.89,11.89,0,0,1,.08,3.29A12.9,12.9,0,0,1,671.78,357.59Zm-11.55-6-1.15,10h.81a4.23,4.23,0,0,0,1.71-.4,8.18,8.18,0,0,0,1.75-1.06,8.81,8.81,0,0,0,1.51-1.48,6,6,0,0,0,1-1.67l.3-.69a3.53,3.53,0,0,0,.23-.88c0-.41.11-.81.17-1.19a3.27,3.27,0,0,0,0-1.08,2.56,2.56,0,0,0-.45-1.09,1.06,1.06,0,0,0-.9-.45Z" transform="translate(-44.35 -45.05)"/><path class="cls-3" d="M470.92,251.16q1.53-3.22,3.16-6.4c33.12-64.46,98-106.12,165.3-106.12a157.64,157.64,0,0,1,72.78,17.51c41.25,21.19,70.74,58.77,83.05,105.81,12,45.83,6.14,95.32-16.49,139.35-33.13,64.47-98,106.12-165.31,106.12a157.72,157.72,0,0,1-72.77-17.5c-41.25-21.2-70.75-58.78-83.05-105.82h54.22c9.49,23.21,18.39,41.21,39.8,52.21a97.93,97.93,0,0,0,45.23,10.84c44.94,0,88.79-28.81,111.7-73.39,15.83-30.81,20-65.1,11.79-96.55C712.42,247,693.85,223,668,209.75a98.05,98.05,0,0,0-45.23-10.84c-37.42,0-66.55,20-91,52.4Z" transform="translate(-44.35 -45.05)"/><path class="cls-2" d="M202.77,249.65c20-38.83,51.45-63.58,86.25-63.58,1.88,0,3.78.08,5.65.22,29,2.28,54,21.24,70.29,53.42q2.44,4.83,4.57,9.94h-63c-8.66-13.5-19.45-21.53-30.41-22.38-.71-.06-1.4-.09-2.11-.09-11.9,0-24.86,8.1-36.08,22.46Zm9.51,132.59c7.64,35.39,26.27,58.53,45.24,60,.71.06,1.4.08,2.11.08,20,0,43.08-22.94,55.75-60.09h60C359.19,442,319.74,483.45,274.7,483.45c-1.87,0-3.77-.07-5.65-.22-43.17-3.37-75.88-44.49-85.57-101Z" transform="translate(-44.35 -45.05)"/><path class="cls-4" d="M729.78,115.91c-1.11,6.87-8.43,11.4-16.34,10.12L594.76,105.58l4.68,28.53s-89.37,10.27-141.85,115.77H392.44C366.79,172.32,288,171.53,288,171.53s24.12-11.42,55.14-5.65,57.1,20.19,80.24,40.29C482.93,132.27,550.4,98.36,550.4,98.36L422.2,78.91c-7.91-1.28-13.42-7.88-12.31-14.75l1.42-8.77c1.11-6.87,8.42-11.4,16.33-10.13L576,67.76,718.88,92.38c7.91,1.28,13.42,7.89,12.31,14.76Z" transform="translate(-44.35 -45.05)"/></svg>