<svg xmlns="http://www.w3.org/2000/svg" viewBox="0 0 209.85 45"><defs><style>.cls-1{fill:#665589;}</style></defs><title>logo</title><g id="Layer_2" data-name="Layer 2"><g id="Top"><path class="cls-1" d="M57.31,7.89h.6a4.94,4.94,0,0,0,1.48-.19,3,3,0,0,0,1.07-.63,3,3,0,0,0,1-2.32,3,3,0,0,0-1-2.34,3.65,3.65,0,0,0-2.56-.8h-.6ZM56,9.13V.38h1.84a6.67,6.67,0,0,1,2.09.26,3.9,3.9,0,0,1,1.49.87,4.19,4.19,0,0,1,1.36,3.25A4.15,4.15,0,0,1,61.35,8a4.14,4.14,0,0,1-1.49.87,6.8,6.8,0,0,1-2.06.24Z"/><path class="cls-1" d="M71.47.85V2.41a3.67,3.67,0,0,0-2.37-1,3,3,0,0,0-2.27,1,3.27,3.27,0,0,0-.93,2.36,3.19,3.19,0,0,0,.93,2.32,3.07,3.07,0,0,0,2.28.95,2.8,2.8,0,0,0,1.18-.23,3.5,3.5,0,0,0,.56-.31,6.82,6.82,0,0,0,.62-.47V8.65a4.78,4.78,0,0,1-2.38.64A4.39,4.39,0,0,1,65.89,8,4.34,4.34,0,0,1,64.57,4.8a4.5,4.5,0,0,1,1.11-3A4.4,4.4,0,0,1,69.19.21a4.47,4.47,0,0,1,2.28.64"/><polygon class="cls-1" points="78.82 0.38 78.82 3.81 75.04 3.81 75.04 0.38 73.72 0.38 73.72 9.13 75.04 9.13 75.04 5.05 78.82 5.05 78.82 9.13 80.14 9.13 80.14 0.38 78.82 0.38"/><path class="cls-1" d="M70.15,23.61l4.27,9.79H65.68ZM56,44.46h4.68l3.21-7H76.19l3,7H84L70.23,13.88Z"/><path class="cls-1" d="M91.41,15.69V33q0,3.71,1.21,5.42a6.48,6.48,0,0,0,10.19,0Q104,36.78,104,33V15.69h4.34V34.21a10.36,10.36,0,0,1-2.83,7.49,11,11,0,0,1-15.63,0,10.36,10.36,0,0,1-2.83-7.49V15.69Z"/><path class="cls-1" d="M120.14,28.9h2.38q7.4,0,7.4-4.71,0-4.42-7.2-4.42h-2.58Zm6.49,3.3,10.69,12.26h-5.65L121.8,32.68h-1.66V44.46H115.8V15.69H121q6.84,0,9.88,2.14a7.6,7.6,0,0,1,1.25,11.55,9.81,9.81,0,0,1-5.55,2.81"/><rect class="cls-1" x="141.7" y="15.69" width="4.34" height="28.77"/><path class="cls-1" d="M168.32,29.48h11.89v1a19.67,19.67,0,0,1-.76,5.74,12.2,12.2,0,0,1-2.52,4.32A13,13,0,0,1,166.74,45a14,14,0,0,1-10.34-4.36,14.46,14.46,0,0,1-4.3-10.51,14.95,14.95,0,0,1,15-15,14.59,14.59,0,0,1,6.3,1.38,18.16,18.16,0,0,1,5.5,4.47l-3.09,3q-3.54-4.72-8.63-4.71a10.31,10.31,0,0,0-7.66,3.15,10.52,10.52,0,0,0-3.09,7.75,10.81,10.81,0,0,0,10.44,10.81,8.67,8.67,0,0,0,5.76-2.16,7.68,7.68,0,0,0,2.85-5.22h-7.17Z"/><path class="cls-1" d="M196,23.61l4.27,9.79h-8.74ZM181.88,44.46h4.68l3.21-7h12.32l3,7h4.75L196.12,13.88Z"/><path class="cls-1" d="M20.57,24.75a2.24,2.24,0,0,1,0,.42,2.15,2.15,0,0,1-.22,1L35.22,37a2.76,2.76,0,0,1,.44-.38L29.4,21.31Z"/><path class="cls-1" d="M23,2.67,30.17,20.2l12.11-4.71s0-.08,0-.11a1.34,1.34,0,0,1,.89-1.26A22.36,22.36,0,0,0,24.51,0,3.28,3.28,0,0,1,23,2.67"/><path class="cls-1" d="M34.44,38.91a2.77,2.77,0,0,1,.34-1.32L19.94,26.74a2.17,2.17,0,1,1,.35-2.7l8.82-3.43L21.94,3.1a3.29,3.29,0,0,1-.7.08,3.24,3.24,0,0,1-.46,0L8.16,35.44a3,3,0,0,1,.51,4.47A22.33,22.33,0,0,0,35,40.63a2.76,2.76,0,0,1-.6-1.72"/><path class="cls-1" d="M43.61,16.72a1.34,1.34,0,0,1-1.06-.53L30.46,20.9l6.26,15.28a2.72,2.72,0,0,1,.51,0,2.77,2.77,0,0,1,2,.8A22.37,22.37,0,0,0,44,16.66a1.3,1.3,0,0,1-.38.06"/><path class="cls-1" d="M6.38,34.86l.37,0L19.37,2.6A3.28,3.28,0,0,1,18,.32,22.35,22.35,0,0,0,4.42,35.58a3,3,0,0,1,2-.72"/></g></g></svg>