<svg xmlns="http://www.w3.org/2000/svg" viewBox="0 0 122.43 122.43"><defs><style>.cls-1{fill:#ffeb5b;}.cls-2{stroke:#000;}.cls-2,.cls-8,.cls-9{stroke-width:0.41px;}.cls-3{fill:#392c23;}.cls-4{fill:#231916;}.cls-5,.cls-8{fill:#fff;}.cls-6{fill:#009d87;}.cls-7{fill:#e83927;}.cls-8,.cls-9{stroke:#392c23;}</style></defs><g id="Layer_2" data-name="Layer 2"><rect class="cls-1" width="122.43" height="122.43"/><polygon class="cls-2" points="61.21 61.22 9.53 61.22 9.53 7.77 61.21 7.77 61.21 61.22 61.21 61.22"/><polygon class="cls-2" points="112.9 114.66 61.21 114.66 61.21 61.22 112.9 61.22 112.9 114.66 112.9 114.66"/><path class="cls-3" d="M73.79,39.62V44.8H73V39.62Zm3.48,0-2.53,2.52,2.69,2.66H76.35l-2.6-2.66,2.48-2.52Z"/><path class="cls-3" d="M79,39.62V44.8H78.2V39.62Z"/><path class="cls-3" d="M84.08,39.62v.71H82.29V44.8H81.5V40.33H79.72v-.71Z"/><path class="cls-3" d="M88.24,41.39c0-1-.55-1.12-1.39-1.12-1.29,0-1.51.33-1.51,2,0,.93.06,1.42.5,1.68a2.17,2.17,0,0,0,1.11.17c1,0,1.32-.26,1.32-1.23h.8c0,1.48-.66,1.93-2.1,1.93-1.92,0-2.42-.57-2.42-2.63,0-1.88.39-2.66,2.27-2.66,1.28,0,2.18.26,2.21,1.83Z"/><path class="cls-3" d="M90.75,39.62v2.16h2.89V39.62h.78V44.8h-.78V42.49H90.75V44.8H90V39.62Z"/><path class="cls-3" d="M99.14,39.62v.71h-3v1.48H99v.69H96.11v1.59H99.2v.71H95.34V39.62Z"/><path class="cls-3" d="M101,39.62l2.5,4.4v-4.4h.78V44.8h-1.18l-2.49-4.4v4.4h-.78V39.62Z"/><path class="cls-3" d="M73.79,47.85v5.2H73v-5.2Zm3.48,0-2.53,2.53,2.69,2.67H76.35l-2.6-2.67,2.48-2.53Z"/><path class="cls-3" d="M82.56,50.45c0,1.82-.34,2.65-2.23,2.65s-2.41-.4-2.41-2.65A9.42,9.42,0,0,1,78,49.34c.2-1.43,1.29-1.54,2.25-1.54C82.05,47.8,82.56,48.38,82.56,50.45Zm-3.85,0c0,1.53.13,1.91,1.61,1.91s1.45-.61,1.45-1.94c0-1.49-.13-1.94-1.53-1.94S78.71,49,78.71,50.48Z"/><path class="cls-3" d="M87.08,49.56a.88.88,0,0,0-.56-1,4.08,4.08,0,0,0-.93-.09c-1.27,0-1.51.34-1.51,2,0,1.05,0,1.76,1,1.85l.47,0a2.13,2.13,0,0,0,1.23-.25,1.23,1.23,0,0,0,.29-.84V51H85.53v-.66H87.9v.47a2.43,2.43,0,0,1-.44,1.82,2.34,2.34,0,0,1-1.82.5c-1.08,0-1.64-.17-2-.7a3,3,0,0,1-.37-1.86c0-1.77.22-2.74,2.27-2.74,1,0,2.3.1,2.3,1.76Z"/><path class="cls-3" d="M89.52,47.85v3.38c0,.78.27,1.16,1.48,1.16,1,0,1.43-.31,1.43-1.18V47.85h.77v3.46c0,1.24-.73,1.79-2.23,1.79a2.68,2.68,0,0,1-1.85-.57,2,2,0,0,1-.37-1.22V47.85Z"/><path class="cls-3" d="M15.08,70.7c0-.68-.17-1-1.27-1-.72,0-1.25.08-1.25.83,0,.48.27.63.67.67l1.48.15a1.3,1.3,0,0,1,1.37,1.42c0,1.47-1.25,1.54-2.14,1.54-1.68,0-2.16-.47-2.19-1.77h.79c0,.75.14,1.07,1.42,1.07,1,0,1.34-.17,1.34-.83s-.33-.72-.71-.77L13,71.88a1.18,1.18,0,0,1-.9-.48,1.56,1.56,0,0,1-.24-.88,1.4,1.4,0,0,1,.48-1.12,2.22,2.22,0,0,1,1.47-.34,2.74,2.74,0,0,1,1.52.28c.51.29.56.75.58,1.36Z"/><path class="cls-3" d="M20.54,70.87c0-1-.55-1.11-1.39-1.11-1.29,0-1.51.34-1.51,2,0,.93.06,1.42.51,1.68a2.08,2.08,0,0,0,1.1.17c1.06,0,1.32-.26,1.33-1.24h.79c0,1.49-.66,1.94-2.1,1.94-1.91,0-2.41-.57-2.41-2.63,0-1.87.39-2.65,2.26-2.65,1.29,0,2.18.25,2.21,1.81Z"/><path class="cls-3" d="M23.24,69.1v5.19h-.79V69.1Z"/><path class="cls-3" d="M27.52,70.7c0-.68-.17-1-1.28-1-.71,0-1.24.08-1.24.83,0,.48.26.63.67.67l1.47.15c.56.06,1.38.22,1.38,1.42,0,1.47-1.25,1.54-2.14,1.54-1.68,0-2.16-.47-2.19-1.77H25c0,.75.14,1.07,1.42,1.07,1,0,1.35-.17,1.35-.83s-.34-.72-.72-.77l-1.64-.16a1.21,1.21,0,0,1-.9-.48,1.56,1.56,0,0,1-.24-.88,1.4,1.4,0,0,1,.48-1.12,2.22,2.22,0,0,1,1.47-.34,2.74,2.74,0,0,1,1.52.28c.51.29.57.75.58,1.36Z"/><path class="cls-3" d="M32.52,70.7c0-.68-.17-1-1.27-1-.72,0-1.25.08-1.25.83,0,.48.27.63.67.67l1.47.15c.56.06,1.38.22,1.38,1.42,0,1.47-1.25,1.54-2.14,1.54-1.68,0-2.16-.47-2.19-1.77H30c0,.75.15,1.07,1.43,1.07,1,0,1.34-.17,1.34-.83s-.33-.72-.71-.77l-1.64-.16a1.2,1.2,0,0,1-.9-.48,1.56,1.56,0,0,1-.24-.88,1.4,1.4,0,0,1,.48-1.12,2.22,2.22,0,0,1,1.47-.34,2.74,2.74,0,0,1,1.52.28c.51.29.57.75.58,1.36Z"/><path class="cls-3" d="M38.89,71.71c0,1.81-.35,2.63-2.23,2.63s-2.41-.4-2.41-2.64a7.67,7.67,0,0,1,.07-1.11c.2-1.43,1.29-1.53,2.25-1.53C38.38,69.06,38.89,69.63,38.89,71.71Zm-3.86,0c0,1.53.13,1.91,1.61,1.91S38.1,73,38.1,71.71c0-1.5-.13-1.94-1.53-1.94S35,70.25,35,71.73Z"/><path class="cls-3" d="M42.45,69.1a1.26,1.26,0,0,1,1.43,1.4,1.16,1.16,0,0,1-.81,1.28c.61.13.74.58.74,1.1v.49a2.81,2.81,0,0,0,.11.92h-.8a3.61,3.61,0,0,1-.08-.81V73c0-.84-.48-.84-.87-.84H40.48v2.17h-.77V69.1Zm-2,.72v1.6h1.75c.44,0,.86,0,.86-.84,0-.62-.31-.76-.83-.76Z"/><path class="cls-3" d="M47.89,70.7c0-.68-.17-1-1.28-1-.72,0-1.24.08-1.24.83,0,.48.26.63.67.67l1.46.15c.56.06,1.39.22,1.39,1.42,0,1.47-1.25,1.54-2.14,1.54-1.69,0-2.17-.47-2.19-1.77h.78c0,.75.14,1.07,1.43,1.07,1,0,1.34-.17,1.34-.83s-.33-.72-.72-.77l-1.64-.16a1.21,1.21,0,0,1-.9-.48,1.63,1.63,0,0,1-.23-.88,1.4,1.4,0,0,1,.48-1.12,2.2,2.2,0,0,1,1.47-.34,2.77,2.77,0,0,1,1.52.28c.5.29.56.75.58,1.36Z"/><path class="cls-3" d="M15.08,78.94c0-.67-.17-1-1.27-1-.72,0-1.25.08-1.25.84,0,.47.27.62.67.66l1.48.15A1.3,1.3,0,0,1,16.08,81c0,1.48-1.25,1.55-2.14,1.55-1.68,0-2.16-.49-2.19-1.77h.79c0,.73.14,1.07,1.42,1.07,1,0,1.34-.18,1.34-.85s-.33-.71-.71-.75L13,80.12a1.18,1.18,0,0,1-.9-.48,1.55,1.55,0,0,1-.24-.87,1.37,1.37,0,0,1,.48-1.12,2.14,2.14,0,0,1,1.47-.36,2.84,2.84,0,0,1,1.52.28c.51.3.56.76.58,1.37Z"/><path class="cls-3" d="M20.89,77.35v.71H19.1v4.48h-.78V78.06H16.54v-.71Z"/><path class="cls-3" d="M26.19,82.54H25.3l-.48-1.27H22.46L22,82.54h-.89l2-5.19h1Zm-3.49-2h1.89l-.95-2.52Z"/><path class="cls-3" d="M30.77,77.35v.71H29v4.48H28.2V78.06H26.42v-.71Z"/><path class="cls-3" d="M32.27,77.35v5.19h-.79V77.35Z"/><path class="cls-3" d="M37.91,80c0,1.82-.34,2.64-2.23,2.64s-2.4-.4-2.4-2.65a7.46,7.46,0,0,1,.07-1.1c.19-1.44,1.29-1.55,2.24-1.55C37.4,77.29,37.91,77.87,37.91,80Zm-3.85,0c0,1.53.13,1.91,1.61,1.91s1.46-.61,1.46-1.93c0-1.5-.14-2-1.54-2S34.06,78.48,34.06,80Z"/><path class="cls-3" d="M39.91,77.35l2.5,4.4v-4.4h.78v5.19H42l-2.5-4.41v4.41h-.78V77.35Z"/><path class="cls-3" d="M47.91,77.35v.71h-3v1.48h2.88v.69H44.88v1.6H48v.71H44.1V77.35Z"/><path class="cls-3" d="M51.36,77.35a1.26,1.26,0,0,1,1.43,1.39A1.17,1.17,0,0,1,52,80c.6.12.74.57.74,1.09v.49a3.14,3.14,0,0,0,.1.93H52a4.19,4.19,0,0,1-.07-.82v-.51c0-.85-.48-.85-.88-.85H49.39v2.18h-.78V77.35Zm-2,.71v1.61h1.75c.44,0,.86-.07.86-.85,0-.62-.31-.76-.84-.76Z"/><path class="cls-3" d="M54.16,77.35l1.46,2.39,1.48-2.39H58l-2,3.11v2.08h-.78V80.46l-2-3.11Z"/><rect class="cls-4" x="18.88" y="93.16" width="13.66" height="13.65" rx="1.81"/><path class="cls-5" d="M23.67,104.48a2,2,0,0,1-1.73,1h0a1.92,1.92,0,0,1-1-.26,2,2,0,0,1-1-1.73,1.87,1.87,0,0,1,.27-1l.76-1.32a2,2,0,0,1,1.72-1,2,2,0,0,1,1,.27,1.94,1.94,0,0,1,.75.78l.4-.7a1,1,0,0,1,0-1.06l-2.53-4.38a.47.47,0,0,1,.18-.65.46.46,0,0,1,.65.17L25.68,99h.06l2.53-4.38a.46.46,0,0,1,.65-.17.47.47,0,0,1,.18.65l-2.53,4.38a1,1,0,0,1,0,1.06l.4.7a2,2,0,0,1,.75-.78,2,2,0,0,1,1-.27,2,2,0,0,1,1.73,1l.76,1.32a2,2,0,0,1,.26,1,1.95,1.95,0,0,1-2,2,2,2,0,0,1-1.73-1h0l-2-3.48h-.06Z"/><path d="M23.74,102.18a1,1,0,0,0-.52-.91,1,1,0,0,0-.52-.14,1.05,1.05,0,0,0-.9.52L21,103a1.06,1.06,0,0,0-.14.51,1,1,0,0,0,.52.9,1,1,0,0,0,.52.14,1,1,0,0,0,.9-.51l.76-1.32A1.09,1.09,0,0,0,23.74,102.18Z"/><path d="M28.58,104a1,1,0,0,0,.9.51,1,1,0,0,0,.52-.14,1,1,0,0,0,.52-.9,1.06,1.06,0,0,0-.14-.51l-.76-1.32a1,1,0,0,0-.9-.52,1,1,0,0,0-.52.14,1,1,0,0,0-.51.91,1,1,0,0,0,.13.51l.76,1.32"/><rect class="cls-4" x="89.69" y="15.94" width="13.65" height="13.65" rx="1.81"/><polygon class="cls-5" points="95.69 25.05 94.87 23.63 95.69 22.2 97.34 22.2 98.16 23.63 97.34 25.05 95.69 25.05"/><path d="M95.64,24.14A1,1,0,1,1,97,24.5,1,1,0,0,1,95.64,24.14Z"/><path class="cls-5" d="M97.38,15.94,96.3,18.11h0A4.89,4.89,0,0,1,94.44,20,3.52,3.52,0,0,0,96,26.56l-1.7-2.93,1.09-1.88H97.6l1.7,2.95a3.51,3.51,0,0,0-.06-3.41l0-.07,0,0-.24-.35a2.72,2.72,0,0,1-.19-2.29l1.32-2.6Z"/><rect x="35.56" y="93.16" width="13.65" height="13.65" rx="1.81"/><path class="cls-5" d="M39.22,103.34v-6a3.17,3.17,0,0,1,3.17-3.17h0a3.16,3.16,0,0,1,3.17,3.17h0v6a.39.39,0,0,1-.4.4h0a.39.39,0,0,1-.39-.4h0v-6a2.4,2.4,0,0,0-2.38-2.37h0A2.38,2.38,0,0,0,40,97.29h0v6a1.72,1.72,0,0,0,1.72,1.72h0a1.7,1.7,0,0,0,1.21-.54h0a1.74,1.74,0,0,0,.5-1.18h0V98.88a1.06,1.06,0,0,0-1.07-1.07h0a1.07,1.07,0,0,0-1.07,1.07h0v4.46a.39.39,0,0,1-.4.4h0a.41.41,0,0,1-.4-.4h0V98.88A1.87,1.87,0,0,1,42.38,97h0a1.87,1.87,0,0,1,1.87,1.87h0v4.46a2.59,2.59,0,0,1-2.51,2.52h0a2.52,2.52,0,0,1-2.52-2.52Z"/><path class="cls-4" d="M86.67,27.78a1.82,1.82,0,0,1-1.81,1.81h-10A1.82,1.82,0,0,1,73,27.78v-10a1.82,1.82,0,0,1,1.81-1.81h10a1.82,1.82,0,0,1,1.81,1.81Z"/><path class="cls-5" d="M78.35,22.18a2,2,0,0,0,1.26-1.82V17.75a.48.48,0,1,0-1,0v2.61a1,1,0,0,1-.51.86V17.75a.47.47,0,0,0-.48-.48.48.48,0,0,0-.48.48v3.47a1,1,0,0,1-.5-.86V17.75a.47.47,0,0,0-.48-.48.48.48,0,0,0-.48.48v2.61A2,2,0,0,0,77,22.18v5.55a.68.68,0,0,0,1.36,0Z"/><path class="cls-5" d="M82.29,24.73v3a.67.67,0,0,0,.68.68.67.67,0,0,0,.67-.68V18a.67.67,0,0,0-.67-.68h-.29a1.88,1.88,0,0,0-1.59,1.86v5.54h1.2"/><polygon class="cls-6" points="53.04 53.05 40.42 53.05 26.31 39.8 26.31 53.05 17.69 53.05 17.69 15.94 26.31 15.94 26.31 28.41 39.6 15.94 51.93 15.94 32.28 34.08 53.04 53.05 53.04 53.05"/><path class="cls-7" d="M80.19,93.66c0,3.4,0,5,7.09,5,6.64,0,6.64-1.45,6.64-3.48,0-2.28-.52-2.84-2.94-3.1l-9.7-1c-5.94-.66-9.34-4.53-9.34-10.64,0-3.82,1.54-7.17,4.13-9s5.24-2.38,10-2.38c13.7,0,15,6.34,15,12.29l-8.62,0c0-1.62-.22-2.65-.7-3.13-.91-.91-3.63-1-5.61-1-4.67,0-5.74.64-5.74,3.43,0,1.62.32,2.12,2.43,2.33l9,1c2.65.3,10.69,1.22,10.69,11,0,11.84-11.14,11.84-15.34,11.84h0c-11,0-15.48-3.8-15.64-13.12Z"/><path class="cls-8" d="M68.33,61.13a7,7,0,1,1-7-7A7,7,0,0,1,68.33,61.13Z"/><path class="cls-9" d="M59.5,57.11a2,2,0,0,1,1.41-.62,1.87,1.87,0,0,1,2,1.93A2.12,2.12,0,0,1,62.26,60a4.63,4.63,0,0,1-1.35.88,9.28,9.28,0,0,0,2.29,2.4,3.54,3.54,0,0,0,.31-1.67h1.1a6,6,0,0,1-.58,2.3,4.21,4.21,0,0,0,1.15.57l-.42,1a6.65,6.65,0,0,1-1.4-.83,3.74,3.74,0,0,1-2.66.94,2.89,2.89,0,0,1-2.14-.73,2.3,2.3,0,0,1-.73-1.67,2.65,2.65,0,0,1,.84-1.93,5.38,5.38,0,0,1,.93-.73,3.65,3.65,0,0,1-.72-1.93A2.06,2.06,0,0,1,59.5,57.11ZM59,63.21a1.34,1.34,0,0,0,.42,1,1.75,1.75,0,0,0,1.3.47A2.67,2.67,0,0,0,62.58,64a16.89,16.89,0,0,1-2.5-2.76,2.46,2.46,0,0,0-.52.42A2,2,0,0,0,59,63.21Zm1.25-5.52a1.34,1.34,0,0,0-.31,1,2.85,2.85,0,0,0,.52,1.47,3.89,3.89,0,0,0,.93-.63,1.43,1.43,0,0,0,.47-1,1.08,1.08,0,0,0-.3-.77.92.92,0,0,0-.68-.26A.82.82,0,0,0,60.23,57.69Z"/></g></svg>