<svg id="レイヤー_1" data-name="レイヤー 1" xmlns="http://www.w3.org/2000/svg" viewBox="0 0 575.49 393.86"><defs><style>.cls-1{fill:#fff;}.cls-2{fill:#010100;}.cls-3{fill:#c12020;}.cls-4{fill:none;}.cls-5{fill:#231916;}</style></defs><polygon class="cls-1" points="554.3 195.61 560.11 195.61 569.84 202.47 573.6 249.46 574.96 262.36 572.83 288.78 530.17 288.78 521.43 282.2 518.23 252.43 517.49 239.19 517.73 229.91 519.26 199.33 554.3 195.61"/><path class="cls-2" d="M301.2,131.34s4,.74,5.75-2.06l5.16-1.63s54.1-17.24,73.4,2.8,14.3,19,14.3,19-.88.59,0,1.77,5.16,6.63.59,14.44l-1,1.92s-.44,6.93-5,11.2c0,0-.59,2.06-.15,2.06,0,0-2.36,2.07-2.8.45,0,0-11.94,7.81-18.72,8.69l-3.83,1.92-2.06-1.18v-.44s-18.28,4.42-14-.74c0,0,1.62-2.95-2.8-.88s-4.57.59-4.57.59-2.06,1.91-2.06,2.65-3.69,1-3.69,1-5.3,6.63-13.26,3.1,2.95.88-10.47-6.93c0,0-22.55-28.74-20.34-52.62a6.33,6.33,0,0,0,2.36-1c.88-.74,1.33-.3,1.33-.3l1.76-1Z" transform="translate(-143.08 -98.52)"/><path class="cls-2" d="M309,266.8s1,7.52,30.65-1.48l-.44.89s5,1.33,20.79-9.43l17.68-10.91s5.9-1,3.1-2.07c0,0,7.51-1.32,8.69-2.36l2.07.3.14,2.06s2.36,3.39,2.51,5.46,2.51,2.21,2.51,2.21l.44,1.62,5.6,7.08A45.44,45.44,0,0,1,406.15,284s0,5.75,1,6.78-.59,1.92-.59,1.92,1.77,10.76-2.06,11.64,6.93,10.47-44.07,23.29c0,0-23.88,2.65-30.66-3.83,0,0-6.63-2.21-9.14-7.07l-1.18-.3s-4.13-3.68-4.87-6c0,0-12.37-7.67-13.56-25.5,0,0,.89-6.78-1.17-8.11l.88-2.21V274l.89-.15s4-1,3.39-4.86C305,269,308.57,273.87,309,266.8Z" transform="translate(-143.08 -98.52)"/><path class="cls-2" d="M418.19,155.41s.78,1.18,3.34-2.16,26.73-30.66,40.88-29.48c0,0,28.3-3.34,36.75,15.92l3.14,1.38s1,3.34,2,3.14.78,2.56.78,2.56,2-.4,1.38,3.34c0,0,4.32,8.84,5.11,9.23s2.36,13.37-4.72,14.94-12.38-1-25,9.63c0,0-4.32,3.15-5.3,7.08s-9,8.84-14.15,7.66c0,0-7.08-1.38-9.24-2.75s-9.24-2.56-9.24-2.56-2.55-2.36-5.11-2.75-6.88-4.91-6.88-4.91l-12.18-16.31s.79-2.36-4.32-7.08C415.44,162.29,421.73,161.9,418.19,155.41Z" transform="translate(-143.08 -98.52)"/><path class="cls-2" d="M433.71,245.82s17.49,17.49,45,2.75l8.65-4.13a3.63,3.63,0,0,0,1.57-2.94c0-2,2.95-3.35,2.95-3.35s1.57-3.34,2.36-3.14,0-1.38,0-1.38,5.11-1,5.11-2.35,5.89,1.37,5.89,2.75,7.47,4.32,8.85,9.43l1.17.39.59,2.36s5.31,5.89,5.11,11.6c0,0,1.38,1,.79,3.73l.59,4.72,1.18.59.39.59,1,10L523.14,282h-.79l1,3.73a21.16,21.16,0,0,0-2.16,6.49l-4.32,5.5s1,2.36-5.11,8.45c0,0-8.85,3.74-12.78,3.93s-.19-.39-.19-.39-28.5,14.94-57.78-20.63l-1.77-1.58s-3.54-6.68-4.72-7.07-3.14-6.88-3.14-6.88a4.33,4.33,0,0,1-2.17-4.13c.2-2.94-3.34-10.61-3.34-10.61S422.51,250.54,433.71,245.82Z" transform="translate(-143.08 -98.52)"/><path class="cls-2" d="M618.65,111.39a36,36,0,0,1,23.19,20l3.14,4.12s1.38,2.17,1.18,3.35,2,3.73,2,3.73,3.34,15.92-2.56,21.62c0,0-.78,4.12-1.57,5.11,0,0-.2,2.95-1.77,4.52,0,0,.2,3.73-2.16,5.11,0,0-4.32,13.36-9.24,14.74s-3.14,1.57-3.14,1.57l-5.11,3.14s-22.41,20.84-20,23.59S632.21,241.1,637.71,259A39.8,39.8,0,0,0,646,270c5.5,5.11,7.66,12.58,7.27,23.39s.19,16.12.78,17.69,1.38,3.14-1.57,10.22.79,2.75-3.73,9.23c0,0-1.58,8.26-4.72,11.4,0,0,1.38,5.7-8.84,12.58l-2.56,4.72s-9.43,6.68-10.22,8.45-22.21,6.48-22.21,6.48a104.29,104.29,0,0,0-20.24,4.92c-9.43,3.53-42.84.78-48.34-16.12s-4.13-40.09.19-40.88,4.72-1.18,4.72-1.18l3.34.2s4.32-6.29,8.84-6.88c0,0,3.15-2.75,4.72-1.76s0-.4,0-.4h3.15a8.31,8.31,0,0,1,9,.59c4.71,3.34,9,6.29,11.39,12.77l13.76-2.36s7.47-.59,11.8-9.82,1.17-5.31,3.73-10.61c0,0,0-13.17-2.75-15.92s-2.75-3.54-2.75-3.54l-2.36-1.77s-18.28-12-20.25-10.22-9.63-6.09-9.63-6.09l-1.77-.2-2.16-2.55s-16.11-14.15-15.52-42.85l6.48-10.61,9-18.28s11.8-16.11,13.17-16.31c0,0,2.36-3.34-.79-3.73s-28.69-2.75-43.82-28.11l-.4-2.16-.58-1.77s-1.18-10.81,2.75-12.57S575,107.46,618.65,111.39Z" transform="translate(-143.08 -98.52)"/><path class="cls-3" d="M667,295" transform="translate(-143.08 -98.52)"/><path class="cls-3" d="M718.19,372.94l.15-8.55-.74-8.55-5.45.44.44,29s.3.15-2,.25-2.46-2.66-2.46-2.66l-.3-25.05s.4-1-1.18-1-6.09.1-6.87-1a2,2,0,0,1-2.46-1c-.69-1.58-1.38-3.64-1.38-3.64a6.49,6.49,0,0,1-3.83-.1c-2.16-.69-3.34,1.87-3.34,1.87s-.2-5.21,1.87-7.08,5.8,1.38,5,3.84l.59.29v1s6.58-1.18,7.08-1.87-.69,1.57,1.76.88,2.36-.49,2.36-2.65.1-5.7.1-5.7,3.24-1.38,4,2a14.45,14.45,0,0,1,.59,4.61l1.37.2,1.28-1.18v.88l1.87.69s-1.38-29.77-2.66-32.92c0,0,.89-14.15-1.57-19.94,0,0-.69-3.54-13.07-1.87,0,0,3.74,3,3.84,5.9s-.69,5-2.26,4.12-3.74-2.36-3.74-2.36-.29-4.81.88-7.56c0,0-6.77-1.58-16.8.88l-15.62-.2s-3-.88-4.57,2.51-.3,32.13-.3,32.13,2.95-4.71,3.25-6.78c0,0-.59-2.95,1.47-2.95l1.92,1.77,1.47.59s.88,3.54,1.77,3.39l-1.62,5.16h-.44l-2.95,5.31v-1.18l-3.1,2.21-.44-.44-1.62,1s-.59,48.35,5.75,51.59c0,0,3,2.94,29,2.65s22.85-5,23.15-8.55A87.47,87.47,0,0,0,718.19,372.94Zm-32.92-27.56c-3-2-5.8-6.69-1.87-5.41,0,0,1.08,1.28,3.64-.59s4.42-1.86,4.72.79S688.32,347.34,685.27,345.38Zm-13-1.87a6.89,6.89,0,0,1,0-4.52c.79-2.95,1.77-2.56,1.77-2.56,7,.4,3.93,5.11,3.93,7.08s-.59,2.06-.59,2.06l-.09,1.77-3.94-1.87v-.39Zm4.92-10.91c-2.86-4.82-.2-6,1.57-8.55s2.65-1.77,2.65-1.77l1.77.1.1.79,1.77,1,.68.88c1.48,2.07,1.08,5.51,1.08,5.51C680.85,338.5,677.22,332.6,677.22,332.6Zm-1.68-17.78s8.26-2.07,8.85,1,.59,5.11-3.64,5.4C680.75,321.2,674.76,319.14,675.54,314.82Zm12,19,.79-.49,2.26,1.27.1,1.48-1.87.29Zm7.08,1.67h-2s-.88-1.77-1.76-1.77l-.69-1.87a1.2,1.2,0,0,1,2-.88c1.67,1,2.56,2.26,2.46,3.24A3.7,3.7,0,0,0,694.61,335.45ZM666.7,305.78c-2.85-2.27-.79-4.33-.79-4.33s8.55-.2,11.31-.29,1.27-.1,1.66-3,2.46.59,2.46.59l2.26.49,1.28,1.17c6.09-1.57,5.7,6.59,5.7,6.59h1l-.88,1.28-2.46.29.1,1,6.58,9.24a28,28,0,0,1,6.88-4.61c3.34,5.79-2.06,9.33-2.06,9.33,0,3.14,6.68,7,6.68,7l5.11-5.8-.2,1.38a47.35,47.35,0,0,0-.78,7.36c1.57,2.36,2.55,5.9-1.48,4.92s-11.69-9.73-12.77-11.4a2.15,2.15,0,0,0-2.56-1.08c-3.83.88-4.52-4.13-3.24-4.13s.79-1.28.79-1.28-6.49-8.74-7.18-10.7-3.63-.89-3.63-.89c-5.6,2.06-8.35,1.47-8.35,1.47S669.55,308,666.7,305.78Zm-3,52.37c-2.55-2.26-.88-4.52-.88-4.52l3.83-.49s1.87-1.28,2.46-.79,1.77.1,1.77.1l.29-3.64c.59-2,2.95,0,3.93,1.38s2.36-.69,6.1-.49a3.12,3.12,0,0,1,3.14,3.73c1.77-.29.88,1.67.88,1.67-.49-.78-6,2.26-6,2.26l1.08.59C666.11,364.44,663.75,358.15,663.75,358.15Zm10.91,8.74c.78-.59,5.6-.88,5.41,2.46s-5.51,2.65-6.29,1.57-1.38-1.77-1.38-1.77l.49-1.76A2.83,2.83,0,0,0,674.66,366.89Zm5.89,11.21a7.37,7.37,0,0,1-2.15,3.24s1.27,3.64-3.94,3.54c0,0-5,.2-4.12-3.54a3.15,3.15,0,0,0-.1-1.87c-.4-.59-.1-7.46,1.47-6.09,0,0,.69.59,2.56-.1S681.83,371.91,680.55,378.1Zm.68-14.06c-.11.54-1,3.47-6.87.69,0,0-2-2.06-.68-3.54a9.6,9.6,0,0,0,3-.88c.88-.59,3.14-.2,3.83,2.26.55,2,.72,1.66.77,1.47a.66.66,0,0,1,0-.09ZM697,381s-.89,2.26-2.85-1.18.59-6.49-1.77-4.33-4.92,7.67-4.92,7.67-2.06,2.55-2.75-.1c0,0-2.46-.29-.68-3.14s4.81-6.49,5.3-6.39S691,371.42,688,372s-2.55-.1-2.55-.1l-2.07-2.76-.29-1.47a21.14,21.14,0,0,1,9.43.88l.89-5.79s-1,.19-2.46.39l-1.47-.49s4.13,2.75,2.45,3.44c0,0-5.4,2.16-5-.69,0,0-3.74-1.27.19-11.2,0,0,1-1.08,1.67.59s5-.69,5-.69,3.44-.59,3.83,3.34,0,4.62,0,4.62l3.74-4.32s2.55.19,2.65,1.27a4.9,4.9,0,0,1-.39,2.16s-6.49,6-6.68,9.73S697,381,697,381Zm10.22-10.32s-1,.2-.3,1-.69,2.06-.69,2.06-4.71-.09-5.6-2.45,3.84-3.74,3.84-3.74l3.14.11Z" transform="translate(-143.08 -98.52)"/><path class="cls-3" d="M682.22,329.65s-1.17-5.21-2.84-2.06-.5,3-.5,3S681.73,331.71,682.22,329.65Z" transform="translate(-143.08 -98.52)"/><path class="cls-3" d="M689.6,358.35l-.1,1s3.93.59,4,2.06.39-3.34.39-3.34Z" transform="translate(-143.08 -98.52)"/><path class="cls-3" d="M674.46,377s3.35-.68,3.25,1.19-.39,1.18-.39,1.18l-2.46.39S674.07,378,674.46,377Z" transform="translate(-143.08 -98.52)"/><path class="cls-4" d="M230.68,177.57a4.71,4.71,0,0,0,.48-2.17c0-1.32.18-3.91.18-3.91l-.36-.3c-.12,1.68-3.44,1.32-3.44,1.32s-1.38-.9-1.26.42-2.29.24-2.29.24l-.12,3.8,4.64-.36Z" transform="translate(-143.08 -98.52)"/><path class="cls-4" d="M226.7,162.22l4-.3,1.5.54c-.48-1.81.6-8.43.6-8.43l1-5L228,151.2l-2.23.42.06.72C227.73,151.56,226.7,162.22,226.7,162.22Z" transform="translate(-143.08 -98.52)"/><path class="cls-4" d="M239,157.7c-.18.54-.72,7.11-.72,7.11,1.33,1.74.42,5,.42,5,.79,6.38-.24,9.94-.24,9.94s-.12,2.64-.24,5.9,1.51,2.58,1.51,2.58c3.37-.05,9.69,1.69,11.68,2.11s2.1-.6,1.86-1-.6-23.54-.6-23.54-.84-13-1-15.65-1.63-2.29-1.63-2.29l-12.34.72C239.28,150.9,239.22,157.16,239,157.7Z" transform="translate(-143.08 -98.52)"/><path class="cls-4" d="M226.76,188.11a18.46,18.46,0,0,1,3.49.06c2.77.18,1-5.12,1-5.12-1.75-.67-4,1.44-4.76,2.47s-2.77.48-2.77.48l.24,2.17Z" transform="translate(-143.08 -98.52)"/><path class="cls-4" d="M206.41,194.61l1,.12c.18-.3,9.27-4.22,9.27-4.22l.18-3.73s-.66-15.53.12-19a75.8,75.8,0,0,0,.9-13.43c-.18-.78-3.43.66-3.43.66l-4.94.3c-1.87.12-2,1.39-1.8,2.23A72.23,72.23,0,0,1,207,165l-.43,4.75-.24,5.66C207.32,177.75,206.41,194.61,206.41,194.61Z" transform="translate(-143.08 -98.52)"/><path class="cls-2" d="M171.25,331.64l3.86-8.37c1.74-2.65,1.14-4,1.14-4a39.84,39.84,0,0,0,4.51-11.8c2-3.49,1.63-4.39,1.63-4.39l.36-.36.3-2.35a19,19,0,0,0,2.23-6.2,4.81,4.81,0,0,0,.84-1.57,22.13,22.13,0,0,1,1.81-3.31l-.12-.84,2.95-7.41.66-.48v-.84s.66-1.75,2.17-5.6,3.13-3.67,3.13-3.67.54,1,1.32.66,1.51,1.62,1.51,1.62c3.13,1.51,13.36-3.31,13.36-3.31s0-.54,1.93-.54a16.4,16.4,0,0,0,4.46-.9l.06-1.14.54-.13.09-1.41c2.5-.18,2.56-2.8,2.62-3.67s2.59-2.2,3.52-2.17,1.87-2.11,1.87-2.11l.12-.78,1.59-1.8.24-1.36c4.28-6.14,4.76-10.78,4.76-12.71a11.24,11.24,0,0,1,1.08-4.33c.48-1.38-1.62-2.83-7.22-5.84-1.89-1-4.44-1.12-7-.81-1.59.37-3.19.7-4.79,1a42.8,42.8,0,0,0-5.25,1.82s.3-1.09-1.93.36-18.24,7.59-18.24,7.59-2.23-.19-3,.78,2.11,4.94,1.87,5.9.84,2.29.84,2.29c1.63,0,.72,2.7,1.38,2s1.57,1.87,1.57,1.87c7.28,3.07,23.6-4.88,23.6-4.88s2.47-2,1,.18-.9,8.67-.9,8.67c-10-1.93-15.47,1.81-17,2.89a34.41,34.41,0,0,1-5.11,2.47s-1.75.3-1.21.72-.42,2.17-.42,2.17a13.58,13.58,0,0,0-6.08-3.91l-.42-.42-2.71-.43-.06.48-1.45-.17-.06,1-1,.12c-.36,3.91-7.41,22.34-7.41,22.34l-.12,1.56-.6-.12L173,290.64l-.48.42s-.43,2.59-.91,3-2,5.24-2,5.24l-.24.12-.43,1.32c-.06,3.73-6.08,17.1-6.08,17.1l-1,.3-1.21,3,.19.66s-.61-.48-.61.12-6.86,11.8-6.86,11.8a4.34,4.34,0,0,0-4.15,4.64l-1.51-.18-.12,1-.66-.06c-.78,1.69,2.35,4.88,2.35,4.88a.84.84,0,0,0,.42.78c.48.3,3,5.06,3,5.06l3,1.5.36.61c5.66,1.92,8.79,0,10.47-.91s-.24-2.7,0-3.13S171.25,331.64,171.25,331.64Z" transform="translate(-143.08 -98.52)"/><path class="cls-2" d="M288.05,340.19a5.88,5.88,0,0,0-2.17-2.29l-.72-.91-1-.06-.36-.72s-1,.48-1.45-1-5.24-6.14-5.24-6.14-.3,1.44-.42.06-2.11-1.63-2.11-1.63c-10.35-7.22-17.15-1.14-17.15-1.14l-3.44.3v.72l-1.26.36s2.95,1-2.17-.06S226.22,329,226.22,329s-2.47,1-2-.6,2.77-1.21,2.77-1.21a2.6,2.6,0,0,0,2.53-1.92,4.53,4.53,0,0,0,2.83-2.35l.78.12v-.54l.48-.67-.3-1,.06-.78-1.56-1.93H231c-.06-1.2-3.25-.84-4.34-1.38a13,13,0,0,0-3.73-.67c0-.9-3.43-1.62-3.43-1.62l-1.15-1.09c-3,.49-1.62-1.62-.42-1.56s16.5-5.6,16.5-5.6c2.1-2.23,3.91-.54,3.91-.54-.3,1.14,3.55,3.13,3.55,3.13l.93-.52,0,0c.72.66,3.85.72,3.85.72a50,50,0,0,0,5.48,1c1.8.13,2.29-1.8,3.25-3.13s-.66-3.61-.66-3.61c.12-1.26-1.45-2.11-1.45-2.11-.42-4.39-9.51-4.75-9.69-5.42s-3.31-1.8-3.31-1.8c-1.33.48-7-1.39-8.43-2.05s-.9,3.85-.9,3.85l-.42.12-.19.37-.84.3c1,.72-.06.72-.06.72s-10.66,3.67-15.35,5.6-3.55.3-3.55.3L223.69,292c2.35-.78,7-4.82,7-4.82s1.32-2.34,3.61-2.4,2.53-.42,2.53-.42c1-4.16-.18-6-.18-6,.24-1.69-1.21-.43-1.15-1.39s-1.44-.72-1.44-1.51-3-2.89-3.37-2.89-1.15-.84-1.15-.84c-1.14,1.51-1.68-1-1.44.12s-1,1.27-1,1.27c-11,.9-24.44,9.09-27.33,10.71a23,23,0,0,0-5.6,5.18s.84.24.48,1.26,5.78,2.05,5.78,2.05c.24-.54,4.58-2.46,4.76-2.89s1.2-.42,1.2-.42,1.81-.6,4.34-1.69,1.38.07,1.38.07-2.53,2.47-3.85,3.49-9.64,8-11.08,9.39-1.44.6-1.44.6l-2.83,4h-1v1.75l-.84.9s-.9-.54-.06,1-.18,4.63-.18,4.63c6.62,8.55,16.56,3.32,18.36,2.47s1.51.36,1.51.36l-.18,2.71a63.85,63.85,0,0,1-8.79,3.07,31.93,31.93,0,0,0-6.14,2.05v1c-1.21-.06-1.21,1.27-.91,1.21s1.27,1.26,1.27,1.26c2.52,5.48,10.29,3.73,12.16,3.37s.9.72.9,1.87-.78,1.08-.78,1.08c-1.27,0-24.21,7.59-25.29,7.89a7.92,7.92,0,0,1-2.41.18s1.21,1.32-.12.54-1.68.85-1.68.85h-1.33l-.06.3-3.49.6s1.57-.12,0,1.08,1,3.91,1,3.91l.49,2.17.9.18.24.55,1.08.42,1.39,2s-.18,1.62.24,1.14,3.25.12,3.91,1.32a1.7,1.7,0,0,0,1.87.9c2.77-2,6.68-.54,6.68-.54l2.71-.78c5.66.18,7.83-1.2,7.83-1.2l10-1.39s4-.72,17.16-4.15,37.63-2.17,37.63-2.17l7.34,3.37,1.51-.12s-.54.85,1.56.73a4,4,0,0,1,3,.78s5.41-.12,6.86-.78a1.66,1.66,0,0,0,.72-2.24l2.23-1.26C292.39,344.34,288.53,341.45,288.05,340.19Z" transform="translate(-143.08 -98.52)"/><path class="cls-2" d="M154.57,189.31l-.36,1.5c-3.91,5-3.07,9.22-3.07,9.22-.54.54-.66,3.07-.66,3.07,1.44,4.63,5,4.69,5,4.69,1.8,3.31,7.34,3.92,7.34,3.92a10.89,10.89,0,0,1,3.56-1.33c1.62-.18,3.67-1.8,5.29-6.2s2.47-3.55,2.47-3.55c2.11,2.11.84,3.07.84,3.07l-7.28,12.76c-14.87-.48-18.06,5.12-19.57,5.9a1.83,1.83,0,0,0-.84,2.35c.78,2.17-.18,2-.18,2,1.93,4.15,2.29,2.16,2.29,2.16s1.44,3.14,6.14,1.75,3.07.42,3.07.42l-4.28,6.63s-1.44,3.25-2.53,2.46-1.38.54-1.38.54c.18,1.21-.3,5.49-1.75,6.15s-.12,2-.12,2a24.74,24.74,0,0,0,.67,5.66c.18.12,1,.91,1,.91.6,1.74,3.67.48,3.67-1.33s2.05-5,2.05-5,1.62-.55,1.56-1.81a1.89,1.89,0,0,1,1.21-1.75,33.63,33.63,0,0,0,7.22-9l.18-.07c1.51-.54.79-2.35,2.11-2.83a3.28,3.28,0,0,0,2-1.62c-.06-.12-1.63-2.29,2.29-1.81s32.33-1.57,32.33-1.57l.4-.81c2.62-.45,18.38-2.79,52.61.07,0,0,12.22,1.3,12.57-3.66s.35-7.44-9.42-8.68-38.55-3.29-71.87-.14c-2.59-.3-1.09-1.77-1.09-1.77s3.49-5.35,4.15-6.26,1.39,3.31,1.39,3.31,1,.12,1,.91,2.71.54,2.71.54c1.69,1.92,5.12-1.81,5.12-1.81,1.5,1.51,7.52-1.08,7.52-1.08,1.51,3.61,2.41-.91,2.41-.91a8.58,8.58,0,0,0,5.3-3.37l3.07-.06c3.49-3,12.1-5.72,12.1-5.48s.42,1.21,1.15,1.15a37.48,37.48,0,0,1,3.85.72c1.26.18,1-.9,1-.9h1.63c.36,1,2.53,1.62,2.53,1.62.6,1.15,3.43,1.21,3.43,1.21l2,1.74s3.49.48,4.81.48,4.7,4.82,5.36,6,4.51.48,4.51.48,1.33-1.27,1.27-.48,2.89.54,2.83.12,1-2.41,1.68-1.21,1.21.18,1.21.18c.69.35.72-.63.72-.71h.12c3.49-.42,3.56-2.59,3.56-2.59s-.31-16.56.42-18.18-.49-4-.24-4.4a7.54,7.54,0,0,0-.07-2.4c1-3-.18-11.5-.18-11.5l-.48-17.52a15.93,15.93,0,0,0-.48-7.89c-.36-.12-1.32-1.57-1.32-1.57-.37-2.1-3.38-4.27-3.38-4.27a21.42,21.42,0,0,1-6.62-3.13,16.61,16.61,0,0,1-5.84.06c-2.41-.6-2,.12-2,.12.06,1.32-2.23,1.75-2.23,1.75-7.47.48-26.67,4.81-35.64,7.7s-8.31,3.79-9.64,1.09,20.53-15.36,20.53-15.36l10.48-1.32s1.2-1.15,2.11-.84,22.75-2.71,22.75-2.71c2.65-.36-1-.49,4.52-2.59s3.13-8.67,2.77-8.67-2.17-.06-5.24-4.28-14.15-10.65-14.15-10.65-4-1-6.86-1.93a7.12,7.12,0,0,0-5.3.54c-15.47.24-41.3,12.1-44.31,13.61s-1.38,3.13-1.38,3.13c.78,3.19-.67,3.85-.67,3.85,5.48,10.54,14.21,11.5,17.1,11.5s1.45,1.2,1.45,1.2-8.37,12-8.85,11-2.05-.78-2.05-.78c-3.73,4.28-6.26,43.35-6.44,44.55s-.12,2-1.75,1.45-7.34-1.51-7.34-1.51c-.25,1.93-4,3.31-6.08,3.8s.42-2.83.42-2.83l1.2-.61a5.88,5.88,0,0,0,0-1.62c-.12-1,4.76-2.17,4.76-2.17,2-2,4.69.48,5.78-6s-6.33-7.89-8.13-9.15-3.92-1.33-4.88-1.63-.54-2.89,1.81-3.49,2.89-3.37,2.89-3.37c1.32-1.75-.12-2.71-.12-3.25s-.79-1.63-1.33-1.63-3-.54-3-.54a3.13,3.13,0,0,1,.54-2.65c6.93-.66,8.61-5.3,8.61-5.3a3.83,3.83,0,0,1,1.09-2.58c1-.79.42-2.77.42-2.77s-3.43-8.43-2.59-9.64-.18-1.14.24-1.68.66-4.64.66-4.64c.18-.24.36-.54.36-.54l-3-3.91-.48-.25c.12-1.44-1.5-1.5-1.5-1.5-.72-2.17-2.65-1.08-2.53-1.81s-1-3.13-1-3.13c1.62-3.67-2.11-8.55-3.19-8.19s-4.43-.75-4.43-.75l-.54,1.09,0,.81-1.39-.42-.66,1.14-1.38.18-.85,2.59-1.2,1.15-1.51.6.55,1.2-.73,1,.06.79-1.38.3.12,1.26.3.85s-6.2,2.76-8.49,3.49-2.29,2-2.29,2c-2.28.61-3.73,4.52-3.73,4.52L146,129.34s.66.73-.85,1.75-.48,2.89-.48,2.89.18-2.35,1.26,2.77,12.23,10.9,14.21,11.5a4.19,4.19,0,0,1,2.59,1.81s.12,1.2.12,2.95-.6,1.5-.6,1.5-.78.54-6.68,1.2-5.3,1.15-5.48,1.15-.48-.6-1.08-.6-4.1,2.65-4.1,2.65l-1.8-.06a5,5,0,0,1,1,3.67c.42,0,.78.54.78.54,1.87,6.74,11.26,8,13.73,6.14s2.53-.72,2.53-.72c.78,2.83-1,2.71-1,2.71-15.95,4.09-14.45,5.66-14.45,5.66l-1.32.72s-1.51-1-1.08-.12a34.54,34.54,0,0,1,.84,5.42C148.91,189.85,154.57,189.31,154.57,189.31Zm95.55-41.48s1.51-.36,1.63,2.29,1,15.65,1,15.65.36,23.12.6,23.54.12,1.44-1.86,1-8.31-2.16-11.68-2.11c0,0-1.63.67-1.51-2.58s.24-5.9.24-5.9,1-3.56.24-9.94c0,0,.91-3.25-.42-5,0,0,.54-6.57.72-7.11s.24-6.8-1.26-9.15ZM228,151.2l5.84-2.17-1,5s-1.08,6.62-.6,8.43l-1.5-.54-4,.3s1-10.66-.9-9.88l-.06-.72Zm-4,22s2.41,1.09,2.29-.24,1.26-.42,1.26-.42,3.32.36,3.44-1.32l.36.3s-.18,2.59-.18,3.91a4.71,4.71,0,0,1-.48,2.17l-2.17-1-4.64.36Zm2.53,12.35c.72-1,3-3.14,4.76-2.47,0,0,1.74,5.3-1,5.12a18.46,18.46,0,0,0-3.49-.06l-2.77.06-.24-2.17S225.8,186.54,226.52,185.52Zm-19.93-15.78L207,165a72.23,72.23,0,0,0,.66-7.41c-.19-.84-.07-2.11,1.8-2.23l4.94-.3s3.25-1.44,3.43-.66a75.8,75.8,0,0,1-.9,13.43c-.78,3.43-.12,19-.12,19l-.18,3.73s-9.09,3.92-9.27,4.22l-1-.12s.91-16.86-.06-19.21Z" transform="translate(-143.08 -98.52)"/><path class="cls-5" d="M264.73,386.63H279v17.42l14.93-17.42h18.95L296,404l17.58,28.71H296.06l-9.72-19L279,421.49v11.25H264.73Z" transform="translate(-143.08 -98.52)"/><path class="cls-5" d="M316.54,409.72q0-11.3,6.29-17.59t17.52-6.29q11.52,0,17.75,6.18t6.22,17.32q0,8.09-2.72,13.26a19.36,19.36,0,0,1-7.86,8,26,26,0,0,1-12.82,2.88q-7.8,0-12.91-2.49a19.31,19.31,0,0,1-8.29-7.86Q316.54,417.79,316.54,409.72Zm14.25.06q0,7,2.6,10a9.81,9.81,0,0,0,14.17.07q2.52-3,2.51-10.73,0-6.51-2.62-9.52a9,9,0,0,0-7.13-3,8.67,8.67,0,0,0-6.92,3.05Q330.79,402.73,330.79,409.78Z" transform="translate(-143.08 -98.52)"/><path class="cls-5" d="M372.06,386.63h14.25v17.42l14.93-17.42h18.95L403.36,404,421,432.74H403.4l-9.72-19-7.37,7.71v11.25H372.06Z" transform="translate(-143.08 -98.52)"/><path class="cls-5" d="M423.87,409.72q0-11.3,6.3-17.59t17.52-6.29q11.51,0,17.74,6.18t6.23,17.32q0,8.09-2.72,13.26a19.44,19.44,0,0,1-7.87,8,26,26,0,0,1-12.82,2.88A29.44,29.44,0,0,1,435.34,431a19.37,19.37,0,0,1-8.29-7.86Q423.87,417.79,423.87,409.72Zm14.26.06q0,7,2.59,10a9.81,9.81,0,0,0,14.17.07q2.52-3,2.52-10.73,0-6.51-2.63-9.52a9,9,0,0,0-7.12-3,8.66,8.66,0,0,0-6.92,3.05Q438.13,402.73,438.13,409.78Z" transform="translate(-143.08 -98.52)"/><path class="cls-5" d="M479.52,432.74V386.63h23.76a34.31,34.31,0,0,1,10.09,1.13A10.67,10.67,0,0,1,519,392a12.68,12.68,0,0,1,2.14,7.47A12.33,12.33,0,0,1,515,410.57a17.37,17.37,0,0,1-5,1.82,14.22,14.22,0,0,1,3.71,1.7,14.86,14.86,0,0,1,2.28,2.43,18.6,18.6,0,0,1,2,2.86l6.9,13.36H508.78l-7.61-14.09a10.73,10.73,0,0,0-2.58-3.55A5.93,5.93,0,0,0,495.1,414h-1.26v18.71Zm14.32-27.43h6a21.47,21.47,0,0,0,3.77-.63,3.77,3.77,0,0,0,2.31-1.44,4.27,4.27,0,0,0,.9-2.68,4.23,4.23,0,0,0-1.42-3.43q-1.41-1.19-5.31-1.19h-6.26Z" transform="translate(-143.08 -98.52)"/><path class="cls-5" d="M527.66,409.72q0-11.3,6.29-17.59t17.52-6.29q11.5,0,17.74,6.18t6.23,17.32q0,8.09-2.72,13.26a19.44,19.44,0,0,1-7.87,8A25.91,25.91,0,0,1,552,433.53q-7.81,0-12.92-2.49a19.37,19.37,0,0,1-8.29-7.86Q527.65,417.79,527.66,409.72Zm14.25.06q0,7,2.59,10a9.81,9.81,0,0,0,14.17.07q2.52-3,2.52-10.73,0-6.51-2.63-9.52a9,9,0,0,0-7.12-3,8.66,8.66,0,0,0-6.92,3.05Q541.91,402.73,541.91,409.78Z" transform="translate(-143.08 -98.52)"/><path class="cls-5" d="M200.8,460.81a1.75,1.75,0,0,1-1.74-1.91,1.8,1.8,0,0,1,1.69-2h24.61a1.8,1.8,0,0,1,1.69,2,1.78,1.78,0,0,1-1.69,1.91H215.22V490.1c0,1.21-.94,1.83-2.14,1.83s-2.15-.62-2.15-1.83V460.81Z" transform="translate(-143.08 -98.52)"/><path class="cls-5" d="M261.66,474.3c0,11-6,18.08-15.54,18.08s-15.63-7.05-15.63-18.13,6-18,15.63-18S261.66,463.27,261.66,474.3Zm-26.74,0c0,8.61,4.37,14.2,11.2,14.2S257.24,483,257.24,474c0-8.44-4.33-14-11.12-14S234.92,465.68,234.92,474.3Z" transform="translate(-143.08 -98.52)"/><path class="cls-5" d="M293.19,488.58a2,2,0,0,1,.4,1.17,2.35,2.35,0,0,1-1,1.78,2.15,2.15,0,0,1-1.34.45,2,2,0,0,1-1.57-.76l-12.63-16.79-4.87,5V490.1c0,1.21-.89,1.83-2.1,1.83s-2.14-.62-2.14-1.83V458.45c0-1.25.89-1.83,2.14-1.83s2.1.58,2.1,1.83V474l16.16-16.88a1.88,1.88,0,0,1,1.39-.58,2.21,2.21,0,0,1,1.47.54,2.23,2.23,0,0,1,.76,1.69,1.66,1.66,0,0,1-.45,1.21L280,471.62Z" transform="translate(-143.08 -98.52)"/><path class="cls-5" d="M321,457.51a1.79,1.79,0,0,1,1.6-.94,2.52,2.52,0,0,1,1.21.36,2.13,2.13,0,0,1,1.2,1.79,1.64,1.64,0,0,1-.31,1l-11.78,17.68V490.1c0,1.21-.9,1.83-2.1,1.83s-2.15-.62-2.15-1.83V477.38l-11.87-17.77a1.7,1.7,0,0,1-.27-.89,2.27,2.27,0,0,1,1.29-1.83,3.07,3.07,0,0,1,1.21-.32,1.91,1.91,0,0,1,1.61.94l10.18,15.89Z" transform="translate(-143.08 -98.52)"/><path class="cls-5" d="M360.12,474.3c0,11-6,18.08-15.53,18.08S329,485.33,329,474.25s6-18,15.63-18S360.12,463.27,360.12,474.3Zm-26.74,0c0,8.61,4.37,14.2,11.21,14.2S355.7,483,355.7,474c0-8.44-4.33-14-11.11-14S333.38,465.68,333.38,474.3Z" transform="translate(-143.08 -98.52)"/><path class="cls-5" d="M401.47,489.88a2.72,2.72,0,0,1-2.85,2.05,2.76,2.76,0,0,1-2.86-2.1L389,472.91c-1.3-3.21-3.44-9.68-4.29-12.45.14,2.9.67,11,.67,17.28v12.41c0,1.2-.85,1.78-2.1,1.78s-2.05-.58-2.05-1.78v-30.9a2.59,2.59,0,0,1,2.86-2.63,3.31,3.31,0,0,1,3.57,2.36l8.21,20.63a65.75,65.75,0,0,1,2.77,8.31,73.13,73.13,0,0,1,2.81-8.4l8.09-20.45a3.43,3.43,0,0,1,3.7-2.45,2.58,2.58,0,0,1,2.81,2.63v30.9c0,1.2-.89,1.78-2.05,1.78s-2.1-.58-2.1-1.78V477.78c0-6.34.54-14.33.72-17.37-.85,2.86-3,9.25-4.24,12.28Z" transform="translate(-143.08 -98.52)"/><path class="cls-5" d="M425.73,490.68a1.74,1.74,0,0,1-1.75,1.25,3,3,0,0,1-.89-.13,2,2,0,0,1-1.56-1.83,2.25,2.25,0,0,1,.13-.76l12.15-30.49a3,3,0,0,1,3.08-2.1,3.1,3.1,0,0,1,3.17,2.1L452.2,489.3a1.52,1.52,0,0,1,.18.76,1.93,1.93,0,0,1-1.61,1.78,2.5,2.5,0,0,1-.8.14,1.86,1.86,0,0,1-1.83-1.25l-3.53-9.24H429.16Zm17.54-12.94-4.95-13a39.81,39.81,0,0,1-1.39-4.24,37.86,37.86,0,0,1-1.38,4.29l-5.05,12.95Z" transform="translate(-143.08 -98.52)"/><path class="cls-5" d="M459,460.77a1.74,1.74,0,0,1-1.74-1.92,1.77,1.77,0,0,1,1.74-2h20.54a2.18,2.18,0,0,1,2.32,2.41c0,1.43-.54,2.18-1.52,3.43l-18,23.27a26,26,0,0,1-2,2c.94-.09,2.1-.18,2.86-.18h17.59a1.67,1.67,0,0,1,1.7,1.88,1.85,1.85,0,0,1-1.79,2H458.1a2.29,2.29,0,0,1-2.36-2.46,4.88,4.88,0,0,1,1.47-3.35l18.12-23.3a27.52,27.52,0,0,1,2-2,25,25,0,0,1-2.81.22Z" transform="translate(-143.08 -98.52)"/><path class="cls-5" d="M492.4,486.35c0,1,.67,1.43,1.65,1.43h16a1.73,1.73,0,0,1,1.79,1.92,1.79,1.79,0,0,1-1.79,2H492.75c-3.17,0-4.55-1.39-4.55-4.78V461.71c0-3.44,1.38-4.82,4.55-4.82h16.88a1.72,1.72,0,0,1,1.79,1.91,1.77,1.77,0,0,1-1.79,2H493.91c-1.07,0-1.51.49-1.51,1.56v9.24h15.22a1.72,1.72,0,0,1,1.74,1.92,1.75,1.75,0,0,1-1.74,1.88H492.4Z" transform="translate(-143.08 -98.52)"/><path class="cls-5" d="M530.31,472c7,1.47,10.76,3.84,10.76,10.31,0,5.76-4.42,10.09-12.41,10.09-10.19,0-12.28-5.27-13.36-8.89a3.34,3.34,0,0,1-.08-.58,2,2,0,0,1,1.69-1.87,3.94,3.94,0,0,1,.76-.09,1.92,1.92,0,0,1,2,1.34c.8,3,2.27,6.34,8.79,6.34,5.09,0,8.26-2.46,8.26-6.3,0-3.66-2-5.26-7.28-6.33l-3.57-.76c-6.69-1.39-9.73-3.93-9.73-9.78,0-4.69,3.48-9.24,11.87-9.24,8,0,10.81,4.28,11.79,7.5a1.75,1.75,0,0,1,.14.67,1.91,1.91,0,0,1-1.66,1.78,3.52,3.52,0,0,1-.76.09,2,2,0,0,1-2-1.29c-.71-2.55-2.59-5.05-7.55-5.05-5.17,0-7.54,2.59-7.54,5.54,0,3.21,1.56,4.86,6.56,5.85Z" transform="translate(-143.08 -98.52)"/><path class="cls-5" d="M576.74,474.3c0,11-6,18.08-15.53,18.08s-15.63-7.05-15.63-18.13,6-18,15.63-18S576.74,463.27,576.74,474.3Zm-26.74,0c0,8.61,4.38,14.2,11.21,14.2S572.32,483,572.32,474c0-8.44-4.33-14-11.11-14S550,465.68,550,474.3Z" transform="translate(-143.08 -98.52)"/><path class="cls-5" d="M587.51,491.67c-3.17,0-4.51-1.39-4.51-4.78V461.71c0-3.44,1.34-4.82,4.51-4.82h10.54c6.43,0,10.13,3.08,10.13,8.43,0,4.24-1.83,6.75-5.67,8,4.56.93,6.88,3.88,6.88,8.7,0,6.07-4,9.65-10.85,9.65Zm10.31-20.1c3.84,0,6.08-2.14,6.08-5.71s-2.1-5.27-6.16-5.27h-9.29c-.85,0-1.3.54-1.3,1.43v9.55Zm-10.67,14.92c0,1,.45,1.47,1.43,1.47h9.47c4.51,0,6.92-2.23,6.92-6.34s-2.46-6.38-7-6.38H587.15Z" transform="translate(-143.08 -98.52)"/><path class="cls-5" d="M617.3,490.68a1.74,1.74,0,0,1-1.74,1.25,3.11,3.11,0,0,1-.9-.13A2,2,0,0,1,613.1,490a2.25,2.25,0,0,1,.13-.76l12.15-30.49a3,3,0,0,1,3.08-2.1,3.1,3.1,0,0,1,3.17,2.1l12.14,30.58a1.52,1.52,0,0,1,.18.76,1.93,1.93,0,0,1-1.61,1.78,2.45,2.45,0,0,1-.8.14,1.86,1.86,0,0,1-1.83-1.25l-3.53-9.24H620.73Zm17.54-12.94-5-13c-.49-1.29-1-2.72-1.39-4.24a36,36,0,0,1-1.38,4.29l-5,12.95Z" transform="translate(-143.08 -98.52)"/></svg>