<svg id="Layer_1" data-name="Layer 1" xmlns="http://www.w3.org/2000/svg" viewBox="0 0 750.04 99.3"><defs><style>.cls-1{fill:#4285f4;}.cls-2{fill:#e4002b;}</style></defs><path class="cls-1" d="M207,95.92a48.79,48.79,0,1,0,48.78,48.79A48.79,48.79,0,0,0,207,95.92Zm0,74.8a26,26,0,1,1,26-26A26,26,0,0,1,207,170.72Z" transform="translate(-70.7 -95.92)"/><path class="cls-1" d="M110.49,97.09H70.7v96.67H94.56v-28h13.93c23.94,0,39.4-13.53,39.4-34.47V131C147.89,110.41,133.21,97.09,110.49,97.09ZM94.56,119h14.2c5.6,0,15,1.62,15,12.47v.27c0,7.58-5.73,12.47-14.6,12.47H94.56Z" transform="translate(-70.7 -95.92)"/><polygon class="cls-1" points="748.12 75.84 719.7 75.84 719.7 2.83 719.7 1.17 718.03 1.17 697.5 1.17 695.84 1.17 695.84 2.83 695.84 96.17 695.84 97.83 697.5 97.83 745.39 97.83 746.83 97.83 747.04 96.41 749.76 77.74 750.04 75.84 748.12 75.84"/><polygon class="cls-1" points="401.93 76.24 363.87 76.24 363.87 59.97 392.53 59.97 393.97 59.97 394.18 58.55 396.9 40.28 397.19 38.37 395.26 38.37 363.87 38.37 363.87 22.77 401.26 22.77 402.92 22.77 402.92 21.1 402.92 2.83 402.92 1.17 401.26 1.17 341.81 1.17 340.14 1.17 340.14 2.83 340.14 96.17 340.14 97.83 341.81 97.83 399.2 97.83 400.64 97.83 400.85 96.41 403.57 78.15 403.86 76.24 401.93 76.24"/><polygon class="cls-1" points="580.51 1.17 514.88 1.17 513.22 1.17 513.22 2.83 513.22 96.17 513.22 97.83 514.88 97.83 535.42 97.83 537.08 97.83 537.08 96.17 537.08 61.7 571.78 61.7 573.22 61.7 573.43 60.27 576.15 41.61 576.43 39.7 574.5 39.7 537.08 39.7 537.08 23.16 580.51 23.16 582.17 23.16 582.17 21.5 582.17 2.83 582.17 1.17 580.51 1.17"/><path class="cls-1" d="M750.37,97.09h-22.2v55.13c0,13.38-6.56,20.74-18.47,20.74s-18.47-7.6-18.47-21.4V97.09H667.37v55c0,27.41,15.33,43.13,42.06,43.13,27.07,0,42.6-16,42.6-43.8V97.09Z" transform="translate(-70.7 -95.92)"/><path class="cls-1" d="M571.83,191.15,550.2,159.53c12.35-5.33,19.12-15.8,19.12-29.7v-.27c0-9.18-2.94-17-8.49-22.51-6.51-6.51-16.32-10-28.37-10H488.12v96.67H512V143.61l.95,1.41,12.14,18.13,20,29.87.5.74h28ZM512,142.43V119h18.74c12,0,14.47,6.35,14.47,11.67v.27c0,7.22-5.26,11.54-14.07,11.54H512Z" transform="translate(-70.7 -95.92)"/><polygon class="cls-1" points="189.18 1.17 210.5 1.17 211.72 1.17 212.08 2.34 229.76 60.13 248.92 2.04 249.29 0.9 250.49 0.9 267.97 0.9 268.89 0.9 299.58 97.83 279.24 97.83 259.5 40.6 240.13 96.72 239.75 97.83 238.57 97.83 220.83 97.83 219.64 97.83 219.26 96.71 187.61 3.35 186.87 1.17 189.18 1.17"/><polygon class="cls-2" points="285.54 1.17 325.64 1.17 304.85 62.14 285.54 1.17"/></svg>