<svg xmlns="http://www.w3.org/2000/svg" width="267.008" height="80" viewBox="0 0 267.008 80">
  <g id="logo-01" transform="translate(0.018 0.045)">
    <path id="Path_1" data-name="Path 1" d="M38.982,90.577c-15.54,0-28.192-12.937-28.192-28.838S23.442,32.91,38.982,32.91s28.2,12.933,28.2,28.83S54.53,90.577,38.982,90.577Zm0-56.047h0C24.321,34.531,12.4,46.746,12.4,61.752S24.325,88.973,38.982,88.973,65.553,76.757,65.553,61.74,53.638,34.531,38.982,34.531Z" transform="translate(-6.525 -19.897)" fill="#ca271d" fill-rule="evenodd"/>
    <path id="Path_2" data-name="Path 2" d="M16.8,22.471a37.2,37.2,0,0,0-1.014-4.038c-.071-.226-.151-.357-.242-.4a.733.733,0,0,0-.46.246c-.531.606-.919.907-1.161.915.063.4.151.812.265,1.3a4.243,4.243,0,0,1,.162,1.708c-.087.151-.166.166-.281.063a1.585,1.585,0,0,1-.341-.349,3.222,3.222,0,0,1-.289-1.585,8.208,8.208,0,0,0-.864-3.051,3.039,3.039,0,0,1-.876.293c-.341,0-.368-.131-.071-.4a16.947,16.947,0,0,0,1.632-1.585,3.677,3.677,0,0,1,1.121-1.121.987.987,0,0,1,.678-.075.2.2,0,0,1,.087.262,2.48,2.48,0,0,1-.4.511Q13.04,16.9,13,16.976l.147.02a.571.571,0,0,1,.368.218s.107.515.329,1.529a9.846,9.846,0,0,0,1.212-1.351.792.792,0,0,1,.685-.345,2.528,2.528,0,0,1,1.046.17c.162.079.2.238.115.46-.214.42-.028,1.842.547,4.275.931-.792,1.466-1.28,1.585-1.407a1.685,1.685,0,0,1,1.724-.511.277.277,0,0,1,.234.238c0,.091-.091.186-.277.289a13.5,13.5,0,0,0-2.08,1.252,21.225,21.225,0,0,0-3.34,2.972,1.121,1.121,0,0,1-.983.357.5.5,0,0,1-.4-.166c-.059-.1-.024-.166.083-.23q.028-.036,2.793-2.274Zm-2.112-.761a.6.6,0,0,0,.329.158,1.668,1.668,0,0,0,.955.186.254.254,0,0,0,.182-.238.6.6,0,0,0-.135-.321.741.741,0,0,0-.452-.222c-.5,0-.792.107-.915.277-.036.036-.024.087.036.158Zm-.222-1.383a.479.479,0,0,0,.313.115,2.148,2.148,0,0,0,.963.091.281.281,0,0,0,.143-.258.61.61,0,0,0-.162-.265.717.717,0,0,0-.448-.178,2.2,2.2,0,0,0-.622.19.535.535,0,0,0-.246.158c-.036.036,0,.083.059.147Zm-.372,5.127q-.345-.464-3.265-4.826a7.417,7.417,0,0,1,1.038.04.432.432,0,0,0,.368-.111.206.206,0,0,0,.044-.246,1.157,1.157,0,0,0-.4-.4c-.238-.139-.67-.048-1.3.285a.04.04,0,0,0-.028.024A6.546,6.546,0,0,1,9.787,18.7a.567.567,0,0,0-.166-.4,4.889,4.889,0,0,0-1.1,0A.491.491,0,0,0,8,18.66c0,.067.048.147.178.23a2.7,2.7,0,0,1,1.189.987,47.6,47.6,0,0,1,3.38,5.151c.067.182.139.361.214.543a2.449,2.449,0,0,0,.983,1.082.515.515,0,0,0,.353.123.123.123,0,0,0,.143-.127,1.317,1.317,0,0,0-.349-1.189ZM9,21.536H9a.222.222,0,0,1,.21,0,1.922,1.922,0,0,1,.622.61,2.017,2.017,0,0,1,.59,1.767q-.107.349-.4.25a1.006,1.006,0,0,1-.674-.792,9.442,9.442,0,0,0-.416-1.621A.25.25,0,0,1,9,21.536Z" transform="translate(-4.841 -8.701)" fill="#073783" fill-rule="evenodd"/>
    <path id="Path_3" data-name="Path 3" d="M49.461,4.964a2.849,2.849,0,0,1-.238.9c-.111.277-.277.317-.5.119a.277.277,0,0,1-.055-.063q-.472-.733-.273-1.094a1.692,1.692,0,0,0,.46-1.51c-.028-.269.067-.345.281-.222a1.038,1.038,0,0,1,.46.452.028.028,0,0,1,.02,0,13.971,13.971,0,0,0,1.419-.5c1.189-.452,2.2-.792,2.968-1.07l2.06-.765a.931.931,0,0,1,.733.115,5.872,5.872,0,0,1,1.288.836c.048.107-.17.222-.543.345a5.341,5.341,0,0,0-1.518.844c-.174.147-.313.2-.4.166s-.075-.127,0-.3c.234-.737.345-1.117.337-1.141a.164.164,0,0,0-.131-.155,4.945,4.945,0,0,0-.848.214,24.337,24.337,0,0,0-4.192,1.625,1.359,1.359,0,0,1-1.149.182,6.851,6.851,0,0,0-.186,1.034Zm2.98.139a.23.23,0,0,0,.091.071A3.8,3.8,0,0,1,53.268,6.6l-3.7,1.256c-.2.067-.21.17,0,.317a1.161,1.161,0,0,0,1.094.083A16.146,16.146,0,0,1,53.47,7.179a6.61,6.61,0,0,1,.4,3.095.139.139,0,0,1-.079.127,5.76,5.76,0,0,1-1.66.127.158.158,0,0,0-.147.079c-.016.036.032.111.147.166A13.472,13.472,0,0,1,53.958,11.9c.151.107.258.143.329.1a.792.792,0,0,0,.349-.321,3.133,3.133,0,0,0,.182-2.322c-.254-1.157-.452-1.981-.586-2.417.689-.19,1.525-.4,2.516-.586.21-.032.416-.067.61-.115s.321-.1.349-.194-.044-.258-.238-.365a2,2,0,0,0-1.9,0c-.44.162-.947.365-1.525.614a7.464,7.464,0,0,1-.234-.892c-.079-.3-.357-.472-.824-.539h-.032a16.13,16.13,0,0,0,1.9-.84.2.2,0,0,0,0-.258.959.959,0,0,0-.586-.17,1.585,1.585,0,0,0-.872.258c-.309.17-.65.341-1.006.515a9.011,9.011,0,0,1-1.292.452c-.341.123-.368.246-.083.361a2,2,0,0,0,1.422-.091ZM51.251.982a1.783,1.783,0,0,0,.6.4c.242.143.5.3.769.468a.626.626,0,0,0,.515.071c.107-.032.166-.123.19-.273A1.628,1.628,0,0,0,53.1.958C52.892.677,52.393.57,51.584.633A.614.614,0,0,0,51.236.7q-.071.089,0,.285Z" transform="translate(-29.192 -0.398)" fill="#073783" fill-rule="evenodd"/>
    <path id="Path_4" data-name="Path 4" d="M92.616,7.529a17.718,17.718,0,0,0,1.046,2.033,5.872,5.872,0,0,0,.955,1.209,14.66,14.66,0,0,0,1.446,1.161c.151.107.21.2.182.269a.1.1,0,0,1-.107.059c-.052,0-.333-.075-.844-.218s-.872-.262-1.09-.349a1.141,1.141,0,0,1-.483-.337,7.717,7.717,0,0,1-.582-1.288,25.636,25.636,0,0,1-.792-2.623c-.147.349-.309.749-.491,1.189a9.124,9.124,0,0,0-.4,1.109l-.242.7a3.566,3.566,0,0,1-.369.658c-.162.242-.293.345-.4.305s-.151-.178-.155-.4a1.4,1.4,0,0,1,.079-.567,3.566,3.566,0,0,1,.305-.638,8.021,8.021,0,0,0,.523-.955,15.628,15.628,0,0,0,.618-1.533A8.943,8.943,0,0,1,89.7,8.508a6.839,6.839,0,0,1-1.957.436A3.519,3.519,0,0,1,86.6,8.916c-.063-.02-.079-.059-.063-.107s.111-.079.269-.1a9.6,9.6,0,0,0,4.271-1.585c-.995-.25-1.981-.464-3.007-.646a1.514,1.514,0,0,1-.357-.087,1.252,1.252,0,0,1-.4-.329c-.166-.182-.238-.305-.206-.372s.147-.059.365,0q1.914.618,4.469,1.327a1.137,1.137,0,0,0,.079-.559.5.5,0,0,1,0-.265c.024-.055.079-.067.17-.032a2.2,2.2,0,0,1,.365.218c.158.111.21.23.162.353l-.1.182-.143.242c1.28.329,2.136.535,2.56.614a6.007,6.007,0,0,1,1.022.277,1.779,1.779,0,0,1,.662.475c.186.214.258.361.218.452s-.3.1-.761-.079l-1.288-.551c-.678-.273-1.438-.547-2.274-.82Zm.9-1.672c.071-.123.206-.4.4-.792l1.454.289c.2.036.313,0,.337-.04s0-.135-.071-.218a.793.793,0,0,0-.285-.194.935.935,0,0,0-.361-.063,8,8,0,0,1-.907-.119l.369-.785c.749.131,1.189.2,1.363.21s.254,0,.281-.079a.166.166,0,0,0-.075-.186.761.761,0,0,0-.218-.143,2.433,2.433,0,0,0-.452-.083l-.725-.075a1.189,1.189,0,0,0,.166-.832l2.08.456c.337.067.515.059.555-.032s0-.143-.111-.258a1.062,1.062,0,0,0-.42-.285,2.988,2.988,0,0,0-.86-.155c-.4-.032-.915-.1-1.561-.218s-1.189-.23-1.656-.349c-.178-.052-.277-.048-.3,0s0,.087.1.155a1.612,1.612,0,0,0,.44.238,9.283,9.283,0,0,0,1.165.325,3.6,3.6,0,0,1-.186.84c-.682-.135-1.129-.234-1.327-.293s-.309-.067-.325,0,0,.107.1.174a1.585,1.585,0,0,0,.42.194,6.645,6.645,0,0,0,1.01.269c-.147.357-.258.622-.333.792A11.72,11.72,0,0,1,92.3,4.3c-.151-.04-.23-.036-.246,0s0,.1.107.174a2.211,2.211,0,0,0,.4.214,5.61,5.61,0,0,0,.86.234,8.209,8.209,0,0,1-.4.792,13.369,13.369,0,0,1-2.116-.555c.4-.872.689-1.494.836-1.866a6.992,6.992,0,0,0,.281-.769,1.189,1.189,0,0,0-.147-.65A12.484,12.484,0,0,1,93.622.841.218.218,0,0,0,93.78.73c.036-.087-.032-.23-.19-.4a1.216,1.216,0,0,0-.424-.357.166.166,0,0,0-.246.115,3.566,3.566,0,0,1-1.272,1.272A10.722,10.722,0,0,1,89.1,2.656a.2.2,0,0,0-.119.091c0,.055,0,.1.079.127a3.435,3.435,0,0,0,1-.178,5.86,5.86,0,0,0,1.526-.582,9.15,9.15,0,0,1-.46,1.494,3.915,3.915,0,0,1-.792,1.232.844.844,0,0,0-.17.285,1.521,1.521,0,0,0-.083.571c0,.25.036.4.1.424a.222.222,0,0,0,.226-.071,2.9,2.9,0,0,0,.4-.689,2.809,2.809,0,0,0,.59.365,2.093,2.093,0,0,0,.42.127,15.679,15.679,0,0,1,3.051.792l.511.218a1.24,1.24,0,0,0,.4.107c.1,0,.17-.024.194-.083s0-.17-.115-.325a.757.757,0,0,0-.368-.321,1.926,1.926,0,0,0-.436-.119c-.475-.059-1-.151-1.585-.277Zm2.072-4.18h0a.341.341,0,0,1-.186.218.281.281,0,0,1-.226,0c-.131-.052-.277-.238-.432-.559s-.222-.515-.19-.59.158-.063.4.028C95.52,1.011,95.738,1.312,95.587,1.677Z" transform="translate(-52.258 0)" fill="#073783" fill-rule="evenodd"/>
    <path id="Path_5" data-name="Path 5" d="M130.363,16.16c.892.567,1.906,1.145,3.035,1.747a16.854,16.854,0,0,0,2.136,1.022,2.017,2.017,0,0,1,.586.242,1.66,1.66,0,0,1,.4.7c.147.4.174.654.075.792a1.058,1.058,0,0,1-.4.25,2.773,2.773,0,0,0-.836.876l-1.458,2.2c-.919,1.379-1.545,2.306-1.878,2.774s-.614.832-.844,1.1a2.992,2.992,0,0,1-.9.685,4.99,4.99,0,0,1-.693.329.234.234,0,0,1-.2,0c-.044-.032-.036-.131.032-.3s.151-.4.258-.761a2.773,2.773,0,0,0,.162-.63.722.722,0,0,0-.063-.258,1.312,1.312,0,0,0-.238-.305,4.593,4.593,0,0,0-.571-.456,24.994,24.994,0,0,0-2.7-1.68,9.274,9.274,0,0,1-.88-.519,2.9,2.9,0,0,1-.424-.361c-.519.519-.828.741-.919.674s-.051-.19,0-.472a2.14,2.14,0,0,1,.361-.792,4.576,4.576,0,0,1,.6-.685A15.2,15.2,0,0,0,126.2,20.99q.836-1.038,1.7-2.231a17.737,17.737,0,0,0,1.252-1.934,2.274,2.274,0,0,0,.4-1.046.5.5,0,0,1,.075-.289c.055-.071.147-.059.285.036a2.151,2.151,0,0,1,.475.634Zm1.474,2.992h0a7.69,7.69,0,0,1-.733-.432,1.01,1.01,0,0,1-.3-.317c-.067-.111-.083-.19-.052-.23s.1-.028.2.032a8.2,8.2,0,0,0,1.121.586,1.839,1.839,0,0,0,.341-.9l-1.082-.594c-.4-.218-.792-.444-1.157-.682q-2.175,3.114-4.89,6.581a22.483,22.483,0,0,0,2.837,1.732q1.355.689,1.609.872a.987.987,0,0,1,.333.349,1.3,1.3,0,0,1,.1.487.507.507,0,0,0,.135.4.262.262,0,0,0,.3-.024,6.341,6.341,0,0,0,.856-.923q.678-.792,1.478-1.93c.539-.749,1.078-1.585,1.629-2.48a9.4,9.4,0,0,0,.884-1.625.428.428,0,0,0-.214-.452c-.174-.127-.539-.368-1.09-.721s-1.018-.626-1.395-.824a2.146,2.146,0,0,1,.2.472.353.353,0,0,1-.044.3,1.5,1.5,0,0,1-.2.226,3.17,3.17,0,0,1,.618.293.836.836,0,0,1,.262.305c.059.123.071.2.048.242s-.087.052-.174.036a11.688,11.688,0,0,1-1.141-.515,4.284,4.284,0,0,0-.277.349,8.684,8.684,0,0,0,1.07.479.892.892,0,0,1,.321.139,1.244,1.244,0,0,1,.3.468c.115.254.151.42.091.5s-.139.083-.3.1a2.615,2.615,0,0,0-.828.325c-.46.254-.792.317-.947.194a.218.218,0,0,1-.091-.111,1,1,0,0,0-.25-.222,6.138,6.138,0,0,0-.543-.337,4.754,4.754,0,0,1-.349.4c.535.269.872.444,1.01.519a.856.856,0,0,1,.067-.234c.028-.036.071-.032.127,0a1.719,1.719,0,0,1,.42.527.6.6,0,0,1,0,.693c-.111.155-.226.19-.341.111s-.194-.365-.242-.836c-.162-.079-.4-.182-.7-.317a2.011,2.011,0,0,1,.127.428.341.341,0,0,1-.055.262,1.323,1.323,0,0,1-.222.242c.365.19.634.321.812.4a2.077,2.077,0,0,1,.46.246.828.828,0,0,1,.293.4c.075.186.083.313.028.4s-.166.048-.337-.079l-.3-.226c-.321-.23-.733-.491-1.224-.792-.151.194-.293.4-.424.59l-.3.479a1.724,1.724,0,0,1-.567.539c-.258.151-.428.19-.511.131a.257.257,0,0,1-.119-.246,2.3,2.3,0,0,0-.123-.987.21.21,0,0,1,.048-.178c.04-.055.1-.048.178.028a1.882,1.882,0,0,0,.349.345c.111.075.2.087.262.032a10.787,10.787,0,0,0,.733-.955c-.761-.424-1.264-.693-1.514-.812a1.62,1.62,0,0,1,.234.571.65.65,0,0,1-.151.42c-.143.2-.262.269-.365.2s-.111-.21-.119-.468a2.746,2.746,0,0,1,.111-.836,2.675,2.675,0,0,1-.642-.3,1.046,1.046,0,0,1-.337-.4c-.091-.182-.123-.289-.1-.325s.071-.032.135,0c.2.143,1.189.682,2.968,1.617a2.619,2.619,0,0,0,.341-.792,7.034,7.034,0,0,0-1.454-.5,1.315,1.315,0,0,1-.563-.166.729.729,0,0,1-.238-.416c-.055-.2-.063-.325-.036-.368s.123-.024.262.067a10.813,10.813,0,0,0,1.636.84l.309-.432a5.219,5.219,0,0,1-.9-.483c-.107.111-.182.147-.234.107a.246.246,0,0,1-.087-.2.646.646,0,0,1,.063-.317,4.134,4.134,0,0,0,.186-.705,4.829,4.829,0,0,0,.115-.713.472.472,0,0,1,.04-.242c.051-.075.131-.075.23,0a1.53,1.53,0,0,1,.3.285c.844.4,1.312.622,1.411.682l.262-.361Zm-1.644,0h0q-.325.792-.535,1.224c.432.178.753.325.967.44.048-.055.119-.147.218-.281-.119-.075-.246-.162-.376-.254a.793.793,0,0,1-.258-.258q-.051-.115-.036-.143a.946.946,0,0,1,.269.055l.65.226c.063-.071.155-.194.277-.365a8.426,8.426,0,0,1-1.189-.646Zm.884,1.894h0c.293.151.487.254.586.321a.523.523,0,0,0,.3.1,1.066,1.066,0,0,0,.5-.265,2.773,2.773,0,0,0,.452-.4c.059-.087,0-.182-.147-.293a6.618,6.618,0,0,0-.9-.487l-.258.361a1.585,1.585,0,0,1,.357.17.4.4,0,0,1,.155.21.218.218,0,0,1,0,.2c-.032.052-.1.059-.206.036a4.418,4.418,0,0,1-.586-.238,2.027,2.027,0,0,0-.246.285Z" transform="translate(-74.873 -9.352)" fill="#073783" fill-rule="evenodd"/>
    <path id="Path_6" data-name="Path 6" d="M47.572,67.052l19.97-2.4L47.473,56.964l-1.91-5.932,14.13.674-16.65-8.531L41.125,37.2,39.1,43.036,22.32,51.3l14.038-.337-2.251,6.5L14.34,64.453l19.625,2.52L40.84,91.424Z" transform="translate(-8.669 -22.487)" fill="#ca271d" fill-rule="evenodd"/>
    <path id="Path_7" data-name="Path 7" d="M1.206,146.793l.472.737a1.981,1.981,0,0,0-.634.658,1.585,1.585,0,0,0-.151.872,2.643,2.643,0,0,0,.309,1.05,2.607,2.607,0,0,0,.575.757,1.327,1.327,0,0,0,.658.337,1.018,1.018,0,0,0,.622-.1.915.915,0,0,0,.42-.436,1.4,1.4,0,0,0,.079-.749q-.036-.3-.273-1.26a6.162,6.162,0,0,1-.238-1.4,1.862,1.862,0,0,1,.234-.963,1.585,1.585,0,0,1,.674-.606,1.756,1.756,0,0,1,1.018-.194,1.89,1.89,0,0,1,1.022.456,3.225,3.225,0,0,1,.792,1.03,3.5,3.5,0,0,1,.42,1.331,2.021,2.021,0,0,1-.238,1.149,2.124,2.124,0,0,1-.816.816l-.468-.757a1.426,1.426,0,0,0,.646-.9,1.922,1.922,0,0,0-.262-1.24,1.949,1.949,0,0,0-.836-.939.907.907,0,0,0-.832,0,.792.792,0,0,0-.428.527,3.7,3.7,0,0,0,.2,1.47,9.826,9.826,0,0,1,.321,1.585,2.148,2.148,0,0,1-.218,1.125,1.728,1.728,0,0,1-.721.709,1.858,1.858,0,0,1-1.082.2,2.076,2.076,0,0,1-1.105-.46A3.146,3.146,0,0,1,.5,150.53a4.121,4.121,0,0,1-.515-1.537,2.274,2.274,0,0,1,.277-1.28,2.378,2.378,0,0,1,.939-.919Z" transform="translate(0 -87.865)" fill="#073783" fill-rule="evenodd"/>
    <path id="Path_8" data-name="Path 8" d="M8.59,161.5l4.961-4.925,1.862,1.87a6.762,6.762,0,0,1,.7.792,2.009,2.009,0,0,1,.376.844,1.763,1.763,0,0,1-.083.872,2.172,2.172,0,0,1-.519.84,2.144,2.144,0,0,1-1.47.658,2.72,2.72,0,0,1-1.886-1.018l-1.26-1.272-2.021,1.981Zm3.257-1.926h0l1.264,1.288a1.926,1.926,0,0,0,1.133.666,1.189,1.189,0,0,0,.935-.4,1.268,1.268,0,0,0,.372-.686,1.066,1.066,0,0,0-.115-.709,4.237,4.237,0,0,0-.563-.654L13.61,157.81Z" transform="translate(-5.197 -94.559)" fill="#073783" fill-rule="evenodd"/>
    <path id="Path_9" data-name="Path 9" d="M19.11,172.947l6.138-4.287.828.559-1.549,7.394-.872-.59.515-2.211-2.425-1.636L19.926,173.5Zm3.277-1.248h0l1.961,1.327.483-2.013c.143-.61.281-1.105.4-1.478a8.991,8.991,0,0,1-1.062.9Z" transform="translate(-11.549 -101.859)" fill="#073783" fill-rule="evenodd"/>
    <path id="Path_10" data-name="Path 10" d="M42.924,181.652l.757.582a3.13,3.13,0,0,1-1.66,1.189,2.912,2.912,0,0,1-1.934-.194,3.328,3.328,0,0,1-1.5-1.157,2.877,2.877,0,0,1-.452-1.652,4.723,4.723,0,0,1,.4-1.866,4.073,4.073,0,0,1,1.141-1.585,2.868,2.868,0,0,1,1.585-.658,3.491,3.491,0,0,1,1.72.289,2.873,2.873,0,0,1,1.4,1.189,2.774,2.774,0,0,1,.309,1.775l-.919-.162a2.191,2.191,0,0,0-.2-1.3,1.878,1.878,0,0,0-.927-.792,2.242,2.242,0,0,0-1.387-.186,2.048,2.048,0,0,0-1.1.646,3.962,3.962,0,0,0-.733,1.145,4.121,4.121,0,0,0-.4,1.525,1.91,1.91,0,0,0,.345,1.236,2.25,2.25,0,0,0,.955.792,1.981,1.981,0,0,0,1.387.119A2.306,2.306,0,0,0,42.924,181.652Z" transform="translate(-23.036 -106.47)" fill="#073783" fill-rule="evenodd"/>
    <path id="Path_11" data-name="Path 11" d="M54.47,187.483l1.688-6.783,4.9,1.22-.194.8-4.01-1-.519,2.08,3.752.931-.2.8-3.748-.935-.575,2.31,4.164,1.034-.2.8Z" transform="translate(-32.898 -109.128)" fill="#073783" fill-rule="evenodd"/>
    <path id="Path_12" data-name="Path 12" d="M94.682,187.954l-.123-.812,2.928-.444.4,2.564a5.119,5.119,0,0,1-1.268,1.018,4.074,4.074,0,0,1-1.43.5,4.01,4.01,0,0,1-1.914-.159,2.9,2.9,0,0,1-1.45-1.074,4.022,4.022,0,0,1-.7-1.779,4.418,4.418,0,0,1,.135-1.949,2.817,2.817,0,0,1,1.022-1.478,3.8,3.8,0,0,1,1.759-.7,3.63,3.63,0,0,1,1.395.04,2.263,2.263,0,0,1,1.05.535,3.071,3.071,0,0,1,.7,1.05l-.792.353a2.663,2.663,0,0,0-.511-.773,1.621,1.621,0,0,0-.733-.4,2.532,2.532,0,0,0-.983-.04,2.825,2.825,0,0,0-1.054.357,1.949,1.949,0,0,0-.662.614,2.449,2.449,0,0,0-.337.749,3.828,3.828,0,0,0-.055,1.43,3.384,3.384,0,0,0,.559,1.5,2.029,2.029,0,0,0,1.062.792,2.888,2.888,0,0,0,1.339.111,3.17,3.17,0,0,0,1.125-.4,3.1,3.1,0,0,0,.792-.618l-.2-1.288Z" transform="translate(-54.995 -110.87)" fill="#073783" fill-rule="evenodd"/>
    <path id="Path_13" data-name="Path 13" d="M110.365,186.356l-2.6-6.49,2.881-1.153a4.145,4.145,0,0,1,1.391-.353,1.55,1.55,0,0,1,.963.329,1.981,1.981,0,0,1,.666.872,1.755,1.755,0,0,1,0,1.343,2.465,2.465,0,0,1-1.141,1.153,2.266,2.266,0,0,1,.646.119,4.794,4.794,0,0,1,1.062.579l1.835,1.312-1.086.436-1.395-1.01c-.4-.289-.737-.5-.979-.646a2.069,2.069,0,0,0-.61-.258,1.3,1.3,0,0,0-.46-.02,3.96,3.96,0,0,0-.5.162l-.995.4,1.153,2.881-.86.345Zm-.59-3.962h0l1.846-.737a3.056,3.056,0,0,0,.872-.491,1.082,1.082,0,0,0,.353-.594,1.141,1.141,0,0,0-.063-.65,1.034,1.034,0,0,0-.638-.622,1.676,1.676,0,0,0-1.189.123l-2.056.824Z" transform="translate(-65.079 -107.715)" fill="#073783" fill-rule="evenodd"/>
    <path id="Path_14" data-name="Path 14" d="M126.2,175.242a3.8,3.8,0,0,1-.792-2.774,3.17,3.17,0,0,1,1.419-2.187,3.348,3.348,0,0,1,1.7-.622,3,3,0,0,1,1.708.4,4.184,4.184,0,0,1,1.411,1.3,4.133,4.133,0,0,1,.733,1.807,2.9,2.9,0,0,1-.269,1.743,3.5,3.5,0,0,1-1.145,1.323,3.281,3.281,0,0,1-1.72.618,3.059,3.059,0,0,1-1.712-.4,3.962,3.962,0,0,1-1.323-1.189Zm.792-.535h0a2.774,2.774,0,0,0,1.7,1.244,2.377,2.377,0,0,0,2.805-1.981,2.952,2.952,0,0,0-.642-2.092,3.514,3.514,0,0,0-1.086-1.058,2.2,2.2,0,0,0-1.256-.329,2.31,2.31,0,0,0-1.224.428,2.413,2.413,0,0,0-1.006,1.518,3.062,3.062,0,0,0,.709,2.27Z" transform="translate(-75.712 -102.458)" fill="#073783" fill-rule="evenodd"/>
    <path id="Path_15" data-name="Path 15" d="M140.211,155.962l.63-.682,2.968,2.734a4.8,4.8,0,0,1,1.078,1.3,2.116,2.116,0,0,1,.166,1.319,3.146,3.146,0,0,1-.824,1.466,3.356,3.356,0,0,1-1.335.955,1.914,1.914,0,0,1-1.327,0,4.612,4.612,0,0,1-1.47-.991l-2.976-2.73.626-.685,2.968,2.73a4.013,4.013,0,0,0,1.105.792,1.3,1.3,0,0,0,.884.024,2.116,2.116,0,0,0,.856-.586,1.934,1.934,0,0,0,.642-1.387,2.675,2.675,0,0,0-1.014-1.522Z" transform="translate(-82.799 -93.78)" fill="#073783" fill-rule="evenodd"/>
    <path id="Path_16" data-name="Path 16" d="M153.587,150.54l-5.967-3.645,1.375-2.251a6.6,6.6,0,0,1,.614-.872,2.065,2.065,0,0,1,.729-.567,1.74,1.74,0,0,1,.868-.131,2.168,2.168,0,0,1,.927.321,2.128,2.128,0,0,1,.991,1.272,2.712,2.712,0,0,1-.543,2.068l-.935,1.533,2.429,1.482-.487.792Zm-2.647-2.7h0l.943-1.541a1.914,1.914,0,0,0,.4-1.264,1.189,1.189,0,0,0-.606-.812,1.307,1.307,0,0,0-.753-.2,1.034,1.034,0,0,0-.662.281,4.653,4.653,0,0,0-.507.717l-.931,1.529Z" transform="translate(-89.139 -86.405)" fill="#073783" fill-rule="evenodd"/>
    <path id="Path_17" data-name="Path 17" d="M204.947,66.761c.341.048.757.119,1.248.218q-.368,2.722-.88,4.929L204,71.472A19.533,19.533,0,0,0,204.947,66.761Zm1.827-1.232c0-.737-.028-1.494-.075-2.278h1.47c-.048.733-.071,1.494-.071,2.278V77.019q0,1.323.071,3.015H206.7c.048-1.078.075-2.084.075-3.015Zm4.046,4.263c-.4.151-.792.321-1.189.515a27.973,27.973,0,0,0-1.03-3.38l1.189-.59q.674,2.187,1.042,3.435Zm1.395,9.414c-.685,0-1.47.028-2.354.075V78.01c.836.048,1.644.075,2.429.075h3.6l1.981-9.486h-4.042l-1.838,5.88-1.327-.44a67.724,67.724,0,0,0,2.722-9.113c-1.03,0-1.961.028-2.774.075V63.745q1.395.071,2.774.071h5.222c.59,0,1.276-.024,2.06-.071v1.248c-.792-.048-1.47-.075-2.06-.075h-3.824l-.662,2.651h5.333L217.4,78.085h1.47c.733,0,1.518-.028,2.354-.075v1.252c-.836-.048-1.644-.075-2.429-.075Zm.59-5.151a9.262,9.262,0,0,0,.733-1.03q1.474,1.323,2.06,1.839a5.812,5.812,0,0,0-.792,1.03,22.983,22.983,0,0,0-1.989-1.854Zm1.839-3.962c.246.194.856.792,1.839,1.763l-.884,1.03q-.368-.44-1.692-1.839c.21-.269.456-.586.749-.979Z" transform="translate(-123.18 -38.215)" fill="#073783"/>
    <path id="Path_18" data-name="Path 18" d="M263.56,68.154c.832,0,1.839-.028,3.015-.075v1.47q-1.545-.071-2.944-.071H261.65V72.2h4.561q1.327,0,2.722-.071v1.47q-1.189-.071-2.722-.071h-4.565V77.64q0,1.395-.773,1.617a15.2,15.2,0,0,1-2.611.368,6.608,6.608,0,0,0-.662-1.981,7.457,7.457,0,0,0,2.06.111.571.571,0,0,0,.44-.626V73.523h-5.218c-.689,0-1.446.024-2.282.071v-1.47c.983.048,1.739.071,2.282.071H260.1V69.477h-2.718q-.519,0-2.282.071v-1.47c.983.048,1.743.075,2.282.075Zm-3.091-5.884a14.659,14.659,0,0,1,1.474,2.27,12.67,12.67,0,0,0-1.252.515h8.016q-.071,1.026-.071,1.545c0,.345.024.792.071,1.4h-1.545V66.24H254.439v1.767H252.9a11.131,11.131,0,0,0,.071-1.327q0-.729-.071-1.617h7.5a20.69,20.69,0,0,0-1.252-1.981C259.494,62.884,259.93,62.611,260.469,62.27Z" transform="translate(-152.523 -37.624)" fill="#073783"/>
    <path id="Path_19" data-name="Path 19" d="M304.452,64.182a4.754,4.754,0,0,0-.515.919h9.046c.737,0,1.545-.028,2.429-.075v1.189h-6.177V67.4H312.1c.586,0,1.272-.024,2.056-.075V68.58c-.792-.048-1.47-.075-2.056-.075h-2.869v1.189h3.015c.634,0,1.371-.024,2.2-.071V70.87c-.832-.048-1.585-.071-2.2-.071h-3.015v.983h3.6c.792,0,1.585-.028,2.354-.075V72.97c-.737-.048-1.494-.071-2.278-.071H303.35v.586h-1.47a22.761,22.761,0,0,0,.147-2.425V67.672a9.3,9.3,0,0,1-.773,1.03c-.222.246-.479.539-.773.884a6.23,6.23,0,0,0-1.1-.884q.511-.59,1.688-2.06a20.725,20.725,0,0,0,1.728-2.425,8.58,8.58,0,0,0,.792-1.692q.662.368,1.617.884A4.469,4.469,0,0,0,304.452,64.182Zm2.8,10.183c0-.194-.028-.61-.075-1.248h1.565c-.052.685-.075,1.1-.075,1.248h4.707c.884,0,1.739-.024,2.575-.071v1.189H310.72A7.711,7.711,0,0,0,313,76.841a27.807,27.807,0,0,0,3.459.991,5.028,5.028,0,0,0-.983,1.478q-1.466-.515-2.377-.919a13.806,13.806,0,0,1-1.692-.884,8.428,8.428,0,0,1-1.292-.971c-.341-.321-.709-.674-1.1-1.066h-.368v1.688a20.287,20.287,0,0,0,.147,2.651h-1.617c.048-.689.075-1.585.075-2.651V75.47h-.3a7.484,7.484,0,0,1-1.189,1.323,10.125,10.125,0,0,1-1.434,1.066c-.515.317-1.066.626-1.652.919a13.273,13.273,0,0,1-2.132.792,5.846,5.846,0,0,0-.884-1.47,24.1,24.1,0,0,0,3.17-.995,5.524,5.524,0,0,0,2.425-1.652h-5.29V74.266c.59.048,1.47.071,2.647.071Zm.511-6.986V66.19h-4.41v1.189Zm0,2.278V68.469h-4.41v1.189Zm0,2.136v-1.03h-4.41v1.018Zm1.656-8.606c.269.293.551.638.848,1.03a8.032,8.032,0,0,1-1.252.792c-.293-.4-.539-.709-.737-.955a5.129,5.129,0,0,0-.725-.721,6.089,6.089,0,0,0,1.1-.884A7.241,7.241,0,0,1,309.417,63.187Z" transform="translate(-180.767 -37.732)" fill="#073783"/>
    <path id="Path_20" data-name="Path 20" d="M364.191,67.756V76.8q0,1.838.075,4.046h-1.323v-.662h-12.87v.662H348.75c.048-1.474.071-2.992.071-4.561V68.362q0-2.207-.071-4.192h15.516C364.215,65.474,364.191,66.678,364.191,67.756ZM362.943,79.08V65.256h-12.87V79.08Zm-4.854-2.06V75.772h-5.222q-.959,0-1.914.071v-1.1c.638.052,1.276.075,1.914.075h5.222a7.414,7.414,0,0,0-.075-.812h1.323a4.275,4.275,0,0,0-.071.812h1.03c.586,0,1.189-.024,1.839-.075v1.1c-.59-.048-1.189-.071-1.839-.071h-1.03v1.545a1.189,1.189,0,0,1-.479,1.1,5.444,5.444,0,0,1-2.021.44,2.679,2.679,0,0,0-.444-1.323c1.276.151,1.866-.024,1.767-.515Zm-1.105-11.546a5.586,5.586,0,0,0-.071.884h3.237c.539,0,1.054-.024,1.541-.071v1.1c-.487-.048-1.03-.071-1.617-.071H356.9v.662h3.6c-.048.733-.071,1.422-.071,2.056s.024,1.323.071,2.06h-3.6v.884c1.371-.052,2.453-.1,3.237-.147-.151-.246-.246-.42-.3-.515a7.529,7.529,0,0,0,1.105-.368q.44.959.88,2.056l-1.189.368-.218-.662c-1.375.052-2.774.123-4.228.222s-2.956.222-4.525.368a5.923,5.923,0,0,0-.44-1.189c.4,0,.967,0,1.728-.036s1.68-.063,2.774-.111v-.872h-3.455c.048-.737.071-1.422.071-2.06s-.024-1.371-.071-2.056h3.455v-.662h-2.92q-.816,0-1.545.071v-1.1a15.406,15.406,0,0,0,1.617.071h2.869a5.156,5.156,0,0,0-.075-.884Zm-4.042,11.182a11.5,11.5,0,0,1,1.026-.666q.519.586,1.189,1.395a10.813,10.813,0,0,0-1.1.662A4.835,4.835,0,0,0,352.942,76.655Zm2.793-7.061v-.662h-2.207v.662Zm0,1.545v-.662h-2.207v.662Zm3.53-1.545v-.662h-2.354v.662Zm0,1.545v-.662h-2.354v.662Z" transform="translate(-210.575 -38.771)" fill="#073783"/>
    <path id="Path_21" data-name="Path 21" d="M393.85,72.6c.979-.246,1.839-.491,2.572-.737v-3.6h-.511a16.025,16.025,0,0,0-1.767.075V67.012a16.025,16.025,0,0,0,1.767.075h.511V65.4a19.342,19.342,0,0,0-.135-2.425h1.692a13.073,13.073,0,0,0-.147,2.132v1.981c.539,0,1.078-.024,1.617-.075v1.327c-.539-.052-1.078-.075-1.617-.075v3.087a16.243,16.243,0,0,1,1.617-.792c0,.2.028.662.075,1.4-.586.246-1.153.491-1.692.737v5.072q-.071,1.545-.773,1.767a17.678,17.678,0,0,1-1.8.44,5.3,5.3,0,0,0-.59-1.763,4.577,4.577,0,0,0,1.506.036c.222-.075.309-.4.258-.919V73.265a19.02,19.02,0,0,0-2.056,1.03A4.928,4.928,0,0,0,393.85,72.6Zm13.607-.44q1.319,0,2.425-.075v1.323q-1.105-.071-2.354-.071h-1.4V77.9h2.441a23.7,23.7,0,0,0,2.647-.147v1.387c-.884-.048-1.716-.075-2.5-.075h-6.1c-1.189,0-2.06.028-2.651.075V77.75a15.486,15.486,0,0,0,2.429.147h2.354V73.34h-1.692a13.681,13.681,0,0,0-2.207.147v-1.4c.539.052,1.252.075,2.132.075Zm-2.8-7.207A11.543,11.543,0,0,0,404,63.189l1.692-.369c.194.59.4,1.3.59,2.136h4.7c-.048.539-.071,1.1-.071,1.692a14.563,14.563,0,0,0,.071,1.541h-1.47v-1.91h-7.869v1.91h-1.47c.048-.487.075-.979.075-1.47s-.028-1.125-.075-1.763Zm-.955,4.557c-.491.59-1.224,1.4-2.207,2.429l-1.189-1.03a15.913,15.913,0,0,0,3.17-3.6,10.372,10.372,0,0,0,1.4.955A10.653,10.653,0,0,0,403.7,69.512Zm6.847,1.327q-.369.289-1.248.88a19.121,19.121,0,0,0-2.952-3.455c.293-.194.685-.491,1.189-.884A35.5,35.5,0,0,1,410.551,70.84Z" transform="translate(-237.805 -37.956)" fill="#073783"/>
    <path id="Path_22" data-name="Path 22" d="M446.876,79.312c.345-.048.515-.44.515-1.189V74.68H444.6a23.109,23.109,0,0,1-.586,3.491A15.313,15.313,0,0,1,442.905,81a3.114,3.114,0,0,0-1.545-.792,7.132,7.132,0,0,0,1.363-2.98,20.149,20.149,0,0,0,.44-4.081c.024-1.522.036-3.063.036-4.632s-.024-2.722-.071-3.459h5.662c-.047.983-.075,1.981-.075,2.944V78.8c0,.931-.206,1.5-.622,1.692a10.342,10.342,0,0,1-2.243.586,6.9,6.9,0,0,0-.515-1.763A8.112,8.112,0,0,0,446.876,79.312Zm.515-10.076V66.213h-2.718v3.015Zm0,4.192V70.413h-2.718v3.015Zm8.677,6.839a11.263,11.263,0,0,1-2.278-1.617,14.93,14.93,0,0,1-1.692,1.434,22.421,22.421,0,0,1-2.278,1.434,4.224,4.224,0,0,0-1.105-1.4,11.49,11.49,0,0,0,2.429-1.066A7.793,7.793,0,0,0,452.76,77.7a11.672,11.672,0,0,1-1.395-2.282,9.651,9.651,0,0,1-.884-2.278h-.59V71.812q1.256.071,2.429.071h5.222a16.693,16.693,0,0,1-2.8,5.821,16.735,16.735,0,0,0,1.8,1.066,9.712,9.712,0,0,0,2.377.844,3.1,3.1,0,0,0-1.03,1.621Zm.3-11.839c-.051.638.218.955.793.955l1.617-.071a4.57,4.57,0,0,0-.369,1.323h-1.839c-1.125,0-1.692-.444-1.692-1.323v-3.1h-2.425a8.8,8.8,0,0,1-.4,2.9,5.388,5.388,0,0,1-1.724,2.247,3.962,3.962,0,0,0-1.106-1.1,3.21,3.21,0,0,0,1.692-2.425,18.15,18.15,0,0,0,.075-2.8h5.44a14.662,14.662,0,0,0-.071,1.545Zm-4.489,4.632a8.391,8.391,0,0,0,.737,2.06,9.876,9.876,0,0,0,1.189,1.617,9.046,9.046,0,0,0,1.767-3.677Z" transform="translate(-266.49 -39.296)" fill="#073783"/>
    <path id="Path_23" data-name="Path 23" d="M492.559,70.575a18.443,18.443,0,0,0,2.932-4.081H492.84q-1.026,0-2.572.075V65.19c1.272.048,2.231.075,2.869.075h2.793a12.967,12.967,0,0,0,.662-2.576c.737.194,1.323.345,1.763.44a7.988,7.988,0,0,0-.733,2.136h5.943c.836,0,1.692-.028,2.575-.075v1.4q-1.327-.079-2.354-.075h-6.6q-.511.959-1.1,1.914h8.459q-.079,1.835-.075,3.309v5.943a1.835,1.835,0,0,1-.59,1.51,5.012,5.012,0,0,1-2.5.626,5.4,5.4,0,0,0-.511-1.767,6.6,6.6,0,0,0,1.617.075c.341-.052.515-.321.515-.812V75.833h-7.651v3.9h-1.617c.047-1.224.075-2.278.075-3.17V71.348a23.841,23.841,0,0,1-3.237,3.091,4.05,4.05,0,0,0-1.323-1.189A17.192,17.192,0,0,0,492.559,70.575Zm10.461,1.066V69.584h-7.667v2.056Zm0,3.015V72.818h-7.667v1.839Z" transform="translate(-295.405 -37.877)" fill="#073783"/>
    <path id="Path_24" data-name="Path 24" d="M543.128,70.564A6.849,6.849,0,0,1,544.82,73.8a2.837,2.837,0,0,1-.626,2.425,4.358,4.358,0,0,1-2.112,1.323,3.008,3.008,0,0,0-.662-1.692c.884,0,1.446-.17,1.692-.515a2.592,2.592,0,0,0,.3-1.652,6.06,6.06,0,0,0-1.767-3.055,38.964,38.964,0,0,0,1.47-4.779H540.9V80.712H539.51q.071-2.056.071-4.046v-8.6c0-.884-.024-2.009-.071-3.384h5.44Q543.647,69.019,543.128,70.564Zm10.738-2.191q0,2.282.075,3.606h-3.459a6.835,6.835,0,0,0,.737,2.94,7.686,7.686,0,0,0,2.5-2.278,6.738,6.738,0,0,0,1.1,1.323,33.641,33.641,0,0,0-3.229,1.894,12.832,12.832,0,0,0,1.692,1.914,7.39,7.39,0,0,0,2.572,1.395,2.845,2.845,0,0,0-1.323,1.4,12.141,12.141,0,0,1-2.774-2.243,9.555,9.555,0,0,1-1.617-2.647,13.208,13.208,0,0,1-.848-3.713h-1.664v6.712a10.921,10.921,0,0,0,2.136-1.4,11.844,11.844,0,0,0,.293,1.545l-1.728.955a12.708,12.708,0,0,0-1.8,1.189,10.577,10.577,0,0,0-.792-1.323,2.378,2.378,0,0,0,.555-1.363V67.917q0-1.474-.071-3.237h7.722Q553.861,66,553.865,68.373Zm-1.323-.662V65.857h-4.913V67.7Zm0,3.091V68.821h-4.913V70.8Z" transform="translate(-325.75 -39.079)" fill="#073783"/>
    <path id="Path_25" data-name="Path 25" d="M588.728,69.219a21.643,21.643,0,0,1-3.015,3.677,3.962,3.962,0,0,0-1.252-1.189,16.11,16.11,0,0,0,3.237-3.6,18.041,18.041,0,0,0,2.429-4.707,5.092,5.092,0,0,0,1.47.67,41.7,41.7,0,0,1-2.869,5.151Zm6.34,4.929a9.241,9.241,0,0,0,1.252-.884q1.1,1.617,2.056,3.2c.638,1.058,1.129,1.9,1.474,2.54-.543.293-1.006.563-1.4.792q-.44-.888-1.189-2.132-4.925.662-6.95.955a13.076,13.076,0,0,0-2.9.662,6.136,6.136,0,0,0-.792-1.617,3.879,3.879,0,0,0,1.395-1.03,18.912,18.912,0,0,0,1.949-3.091,21.275,21.275,0,0,0,1.8-4.117,7.16,7.16,0,0,0,1.692.792q-.792,1.256-2.171,3.752a26.75,26.75,0,0,1-1.949,3.233q3.388-.293,7.354-.733a20.5,20.5,0,0,0-1.636-2.334Zm3.348-5.662a11.345,11.345,0,0,0,3.2,2.774,2.983,2.983,0,0,0-1.4,1.248,18.336,18.336,0,0,1-3.748-4.263,27.089,27.089,0,0,1-2.5-4.929,4.657,4.657,0,0,0,1.47-.515,19.653,19.653,0,0,0,2.964,5.674Z" transform="translate(-352.89 -37.944)" fill="#073783"/>
    <path id="Path_26" data-name="Path 26" d="M642.542,68.488c.638,0,1.494-.024,2.576-.071v1.47c-1.03-.048-1.866-.075-2.5-.075h-6.839c-.935,0-1.89.028-2.869.075V68.4q1.47.071,2.869.071Zm6.031-3.53c-.047,1.078-.071,2.037-.071,2.869V79.3a1.4,1.4,0,0,1-.994,1.288,13.355,13.355,0,0,1-2.683.555,3.539,3.539,0,0,0-.737-1.767,10.537,10.537,0,0,0,2.354-.147c.293-.1.44-.468.44-1.1V66.193H636.734q-1.323,0-2.869.071V64.87q1.545.071,2.774.071Zm-4.779,9.193V75.77q0,1.189.071,2.425h-1.617v-.971h-6.031v1.981H634.6a22.386,22.386,0,0,0,.147-2.354V74.134a19.926,19.926,0,0,0-.147-2.207h9.264c-.048.689-.071,1.422-.071,2.207Zm-1.545,1.914V73.1h-6.031v2.944Z" transform="translate(-382.142 -39.193)" fill="#073783"/>
    <path id="Path_27" data-name="Path 27" d="M203.69,124.681l1.236-.111a2.774,2.774,0,0,0,.4,1.224,2.219,2.219,0,0,0,1,.769,3.737,3.737,0,0,0,1.522.293,3.629,3.629,0,0,0,1.327-.222,1.842,1.842,0,0,0,.856-.614,1.411,1.411,0,0,0,.277-.848,1.272,1.272,0,0,0-.269-.812,1.981,1.981,0,0,0-.892-.586,17.437,17.437,0,0,0-1.767-.483,8.89,8.89,0,0,1-1.914-.622,2.659,2.659,0,0,1-1.062-.919,2.291,2.291,0,0,1-.345-1.236,2.544,2.544,0,0,1,.424-1.4,2.631,2.631,0,0,1,1.244-.991,4.656,4.656,0,0,1,1.823-.341,4.969,4.969,0,0,1,1.945.357,2.8,2.8,0,0,1,1.3,1.046,3,3,0,0,1,.487,1.561l-1.26.1a2.037,2.037,0,0,0-.686-1.422,2.679,2.679,0,0,0-1.732-.479,2.774,2.774,0,0,0-1.735.436,1.311,1.311,0,0,0-.543,1.054,1.125,1.125,0,0,0,.4.88,5.4,5.4,0,0,0,1.981.705,12.914,12.914,0,0,1,2.2.634,3.011,3.011,0,0,1,1.28,1.01,2.48,2.48,0,0,1,.4,1.411,2.687,2.687,0,0,1-.456,1.494,2.968,2.968,0,0,1-1.3,1.086,4.513,4.513,0,0,1-1.914.4,5.706,5.706,0,0,1-2.255-.4,3.209,3.209,0,0,1-1.43-1.189A3.372,3.372,0,0,1,203.69,124.681Z" transform="translate(-122.992 -71.137)" fill="#073783"/>
    <path id="Path_28" data-name="Path 28" d="M227.75,134.792v-9.937h1.109v.931a2.773,2.773,0,0,1,.888-.824,2.429,2.429,0,0,1,1.189-.273,2.869,2.869,0,0,1,1.625.475,2.94,2.94,0,0,1,1.062,1.335,4.91,4.91,0,0,1,.357,1.89,4.794,4.794,0,0,1-.4,1.981,3.011,3.011,0,0,1-2.734,1.823,2.3,2.3,0,0,1-1.094-.258,2.484,2.484,0,0,1-.792-.65v3.5Zm1.1-6.308a3.12,3.12,0,0,0,.563,2.052,1.712,1.712,0,0,0,1.359.662,1.763,1.763,0,0,0,1.391-.685,4.108,4.108,0,0,0,.012-4.184,1.7,1.7,0,0,0-1.347-.685,1.763,1.763,0,0,0-1.379.729A3.265,3.265,0,0,0,228.852,128.484Z" transform="translate(-137.519 -75.309)" fill="#073783"/>
    <path id="Path_29" data-name="Path 29" d="M251.228,131.18a4.544,4.544,0,0,1-1.3.812,3.781,3.781,0,0,1-1.347.238,2.6,2.6,0,0,1-1.819-.578,1.906,1.906,0,0,1-.634-1.478,1.981,1.981,0,0,1,.238-.967,2.021,2.021,0,0,1,.63-.7,2.945,2.945,0,0,1,.876-.4,8.874,8.874,0,0,1,1.082-.182,11.281,11.281,0,0,0,2.175-.42v-.317a1.347,1.347,0,0,0-.345-1.05,2.041,2.041,0,0,0-1.387-.4,2.143,2.143,0,0,0-1.268.3,1.838,1.838,0,0,0-.606,1.066l-1.189-.162a2.912,2.912,0,0,1,.535-1.236,2.31,2.31,0,0,1,1.074-.721,4.754,4.754,0,0,1,1.632-.258,4.359,4.359,0,0,1,1.494.218,1.937,1.937,0,0,1,.844.547,1.862,1.862,0,0,1,.4.828,7.007,7.007,0,0,1,.059,1.121v1.625a17.14,17.14,0,0,0,.079,2.148,2.659,2.659,0,0,0,.309.864h-1.272a2.56,2.56,0,0,1-.258-.907Zm-.1-2.718a9.112,9.112,0,0,1-1.981.46,4.788,4.788,0,0,0-1.066.242,1.106,1.106,0,0,0-.479.4,1.058,1.058,0,0,0-.166.578,1.034,1.034,0,0,0,.368.792,1.585,1.585,0,0,0,1.078.325,2.508,2.508,0,0,0,1.252-.309,1.87,1.87,0,0,0,.792-.84,2.932,2.932,0,0,0,.2-1.216Z" transform="translate(-148.615 -75.338)" fill="#073783"/>
    <path id="Path_30" data-name="Path 30" d="M270.757,129.393l1.189.155a3.106,3.106,0,0,1-1,1.938,2.924,2.924,0,0,1-1.981.7,3.087,3.087,0,0,1-2.377-.963,3.925,3.925,0,0,1-.9-2.774,4.992,4.992,0,0,1,.4-2.037,2.675,2.675,0,0,1,1.189-1.308,3.483,3.483,0,0,1,1.712-.44,2.988,2.988,0,0,1,1.918.594,2.714,2.714,0,0,1,.951,1.68l-1.189.182a1.958,1.958,0,0,0-.6-1.086,1.533,1.533,0,0,0-1.038-.369,1.89,1.89,0,0,0-1.494.662,3.06,3.06,0,0,0-.575,2.088,3.245,3.245,0,0,0,.555,2.1,1.8,1.8,0,0,0,1.446.654,1.712,1.712,0,0,0,1.189-.44A2.2,2.2,0,0,0,270.757,129.393Z" transform="translate(-160.425 -75.295)" fill="#073783"/>
    <path id="Path_31" data-name="Path 31" d="M288.425,129.723l1.256.155a3.043,3.043,0,0,1-1.1,1.712,3.733,3.733,0,0,1-4.557-.361,3.808,3.808,0,0,1-.923-2.722,3.965,3.965,0,0,1,.935-2.817,3.17,3.17,0,0,1,2.421-1,3.079,3.079,0,0,1,2.354.983,3.9,3.9,0,0,1,.915,2.774v.325H284.36a2.774,2.774,0,0,0,.67,1.815,1.981,1.981,0,0,0,1.5.626,1.839,1.839,0,0,0,1.141-.353,2.322,2.322,0,0,0,.753-1.133Zm-4-1.981h4.01a2.437,2.437,0,0,0-.46-1.359,1.862,1.862,0,0,0-1.51-.705,1.933,1.933,0,0,0-1.411.563,2.227,2.227,0,0,0-.63,1.514Z" transform="translate(-170.933 -75.308)" fill="#073783"/>
    <path id="Path_32" data-name="Path 32" d="M317.856,123.993v-1.161h4.2v3.681a7.458,7.458,0,0,1-1.981,1.157,5.864,5.864,0,0,1-2.108.4,5.658,5.658,0,0,1-2.659-.626,4.145,4.145,0,0,1-1.8-1.811,5.721,5.721,0,0,1-.606-2.647,6.133,6.133,0,0,1,.6-2.7,4.026,4.026,0,0,1,1.743-1.862,5.44,5.44,0,0,1,2.619-.61,5.151,5.151,0,0,1,1.945.349,3.2,3.2,0,0,1,1.363.971,4.359,4.359,0,0,1,.753,1.625l-1.189.325a3.766,3.766,0,0,0-.555-1.189,2.334,2.334,0,0,0-.947-.693,3.475,3.475,0,0,0-1.367-.261,3.962,3.962,0,0,0-1.557.277,2.885,2.885,0,0,0-1.058.717,3.417,3.417,0,0,0-.626.983,5.182,5.182,0,0,0-.4,1.981,4.885,4.885,0,0,0,.456,2.219,2.936,2.936,0,0,0,1.331,1.327,4.165,4.165,0,0,0,1.854.432,4.434,4.434,0,0,0,1.664-.329,4.248,4.248,0,0,0,1.232-.7v-1.846Z" transform="translate(-188.929 -71.155)" fill="#073783"/>
    <path id="Path_33" data-name="Path 33" d="M340.47,132.04v-7.184h1.094v1.09a2.98,2.98,0,0,1,.792-1.01,1.359,1.359,0,0,1,.792-.246,2.377,2.377,0,0,1,1.252.4l-.42,1.129a1.715,1.715,0,0,0-.892-.265,1.145,1.145,0,0,0-.717.242,1.284,1.284,0,0,0-.456.666,4.755,4.755,0,0,0-.2,1.419v3.764Z" transform="translate(-205.576 -75.311)" fill="#073783"/>
    <path id="Path_34" data-name="Path 34" d="M351,128.459a3.715,3.715,0,0,1,1.109-2.96,3.352,3.352,0,0,1,2.262-.792,3.225,3.225,0,0,1,2.421.971,3.7,3.7,0,0,1,.939,2.686,4.754,4.754,0,0,1-.416,2.179,2.956,2.956,0,0,1-1.208,1.236,3.531,3.531,0,0,1-1.736.44,3.233,3.233,0,0,1-2.441-.967A3.894,3.894,0,0,1,351,128.459Zm1.252,0a3.063,3.063,0,0,0,.6,2.064,1.938,1.938,0,0,0,1.518.685,1.914,1.914,0,0,0,1.506-.689,3.159,3.159,0,0,0,.6-2.1,3,3,0,0,0-.6-2.021,2.013,2.013,0,0,0-3.023,0A3.063,3.063,0,0,0,352.252,128.459Z" transform="translate(-211.934 -75.32)" fill="#073783"/>
    <path id="Path_35" data-name="Path 35" d="M376.261,132.264v-1.058a2.631,2.631,0,0,1-2.278,1.22,2.98,2.98,0,0,1-1.189-.242,1.981,1.981,0,0,1-.82-.614,2.275,2.275,0,0,1-.372-.9,6,6,0,0,1-.075-1.137v-4.45h1.216v3.962a6.919,6.919,0,0,0,.075,1.288,1.252,1.252,0,0,0,.487.753,1.482,1.482,0,0,0,.919.273,1.981,1.981,0,0,0,1.03-.281,1.529,1.529,0,0,0,.678-.765,3.776,3.776,0,0,0,.2-1.4V125.06h1.216v7.184Z" transform="translate(-224.325 -75.534)" fill="#073783"/>
    <path id="Path_36" data-name="Path 36" d="M391.05,134.793v-9.937h1.109v.931a2.774,2.774,0,0,1,.884-.824,2.445,2.445,0,0,1,1.189-.273,2.853,2.853,0,0,1,1.621.475,2.92,2.92,0,0,1,1.066,1.335,4.91,4.91,0,0,1,.357,1.89,4.794,4.794,0,0,1-.4,1.981,3.011,3.011,0,0,1-2.738,1.823,2.294,2.294,0,0,1-1.09-.258,2.44,2.44,0,0,1-.792-.65v3.5Zm1.1-6.308a3.12,3.12,0,0,0,.563,2.052,1.712,1.712,0,0,0,1.359.662,1.767,1.767,0,0,0,1.391-.685,4.108,4.108,0,0,0,.012-4.184,1.7,1.7,0,0,0-1.347-.685,1.763,1.763,0,0,0-1.379.729A3.241,3.241,0,0,0,392.152,128.485Z" transform="translate(-236.115 -75.31)" fill="#073783"/>
    <path id="Path_37" data-name="Path 37" d="M420.71,128.128v-9.906h1.3V122.3h5.151V118.21h1.311v9.906h-1.311V123.44h-5.151v4.676Z" transform="translate(-254.022 -71.398)" fill="#073783"/>
    <path id="Path_38" data-name="Path 38" d="M444.32,128.459a3.715,3.715,0,0,1,1.109-2.96,3.352,3.352,0,0,1,2.262-.792,3.225,3.225,0,0,1,2.421.971,3.7,3.7,0,0,1,.939,2.686,4.756,4.756,0,0,1-.416,2.179,2.956,2.956,0,0,1-1.209,1.236,3.53,3.53,0,0,1-1.736.44,3.233,3.233,0,0,1-2.441-.967A3.912,3.912,0,0,1,444.32,128.459Zm1.252,0a3.063,3.063,0,0,0,.6,2.064,1.938,1.938,0,0,0,1.518.685,1.914,1.914,0,0,0,1.506-.689,3.16,3.16,0,0,0,.6-2.1,3,3,0,0,0-.6-2.021,2.013,2.013,0,0,0-3.023,0A3.063,3.063,0,0,0,445.572,128.459Z" transform="translate(-268.277 -75.32)" fill="#073783"/>
    <path id="Path_39" data-name="Path 39" d="M464.85,128.146V118.24h1.216v9.906Z" transform="translate(-280.673 -71.416)" fill="#073783"/>
    <path id="Path_40" data-name="Path 40" d="M476.666,128.146v-.888a2.235,2.235,0,0,1-2.009,1.07,2.805,2.805,0,0,1-1.585-.475,3.13,3.13,0,0,1-1.117-1.319,4.608,4.608,0,0,1-.4-1.953,5.15,5.15,0,0,1,.357-1.953,2.821,2.821,0,0,1,2.678-1.811,2.377,2.377,0,0,1,1.157.273,2.473,2.473,0,0,1,.828.717V118.24h1.208v9.906Zm-3.847-3.586a3.146,3.146,0,0,0,.578,2.064,1.755,1.755,0,0,0,1.375.681,1.728,1.728,0,0,0,1.355-.65,3.016,3.016,0,0,0,.559-1.981,3.389,3.389,0,0,0-.567-2.167,1.755,1.755,0,0,0-1.4-.689,1.7,1.7,0,0,0-1.355.662,3.191,3.191,0,0,0-.543,2.08Z" transform="translate(-284.723 -71.416)" fill="#073783"/>
    <path id="Path_41" data-name="Path 41" d="M492.15,119.609v-1.4h1.22v1.4Zm0,8.519v-7.184h1.22v7.184Z" transform="translate(-297.156 -71.398)" fill="#073783"/>
    <path id="Path_42" data-name="Path 42" d="M499.9,132.036v-7.184H501v1.022a2.579,2.579,0,0,1,2.286-1.189,3.027,3.027,0,0,1,1.189.234,1.886,1.886,0,0,1,.812.614,2.306,2.306,0,0,1,.4.9,7.169,7.169,0,0,1,.067,1.189v4.418h-1.216v-4.359a3.272,3.272,0,0,0-.143-1.113,1.149,1.149,0,0,0-.5-.586,1.585,1.585,0,0,0-.852-.222,1.981,1.981,0,0,0-1.343.5,2.433,2.433,0,0,0-.563,1.874v3.923Z" transform="translate(-301.835 -75.307)" fill="#073783"/>
    <path id="Path_43" data-name="Path 43" d="M518.437,132.622l1.189.174a1.117,1.117,0,0,0,.4.792,2.029,2.029,0,0,0,1.24.337,2.163,2.163,0,0,0,1.3-.337,1.652,1.652,0,0,0,.622-.947,7.527,7.527,0,0,0,.087-1.565,2.492,2.492,0,0,1-1.981.943,2.714,2.714,0,0,1-2.294-1.07,4.125,4.125,0,0,1-.792-2.564,4.812,4.812,0,0,1,.369-1.9,3,3,0,0,1,1.082-1.343,2.94,2.94,0,0,1,1.66-.475,2.572,2.572,0,0,1,2.1,1.03v-.864h1.125v6.209a5.942,5.942,0,0,1-.341,2.377,2.508,2.508,0,0,1-1.082,1.105,3.74,3.74,0,0,1-1.827.4,3.447,3.447,0,0,1-2.076-.578,1.981,1.981,0,0,1-.777-1.724Zm1.006-4.315a3.134,3.134,0,0,0,.563,2.064,1.787,1.787,0,0,0,1.407.646,1.811,1.811,0,0,0,1.411-.642,3.055,3.055,0,0,0,.567-2.029,2.936,2.936,0,0,0-.586-1.981,1.8,1.8,0,0,0-1.411-.67,1.771,1.771,0,0,0-1.379.658A2.932,2.932,0,0,0,519.443,128.307Z" transform="translate(-312.887 -75.298)" fill="#073783"/>
    <path id="Path_44" data-name="Path 44" d="M537.58,129.95l1.189-.19a1.68,1.68,0,0,0,.567,1.109,1.982,1.982,0,0,0,1.3.4,1.91,1.91,0,0,0,1.244-.341,1.031,1.031,0,0,0,.4-.792.745.745,0,0,0-.361-.65,5.149,5.149,0,0,0-1.244-.4,11.94,11.94,0,0,1-1.858-.586,1.763,1.763,0,0,1-1.05-1.648,1.854,1.854,0,0,1,.218-.891,1.982,1.982,0,0,1,.6-.678,2.5,2.5,0,0,1,.792-.353,3.6,3.6,0,0,1,1.05-.151,4.141,4.141,0,0,1,1.486.246,2.029,2.029,0,0,1,.943.658,2.527,2.527,0,0,1,.42,1.113l-1.189.166a1.311,1.311,0,0,0-.472-.868,1.727,1.727,0,0,0-1.1-.313,2.013,2.013,0,0,0-1.189.277.816.816,0,0,0-.357.65.674.674,0,0,0,.147.428,1.1,1.1,0,0,0,.468.325c.123.044.479.147,1.078.309a14.961,14.961,0,0,1,1.8.567,1.838,1.838,0,0,1,.792.638,1.786,1.786,0,0,1,.293,1.042,2.024,2.024,0,0,1-.357,1.145,2.306,2.306,0,0,1-1.026.836,3.765,3.765,0,0,1-1.514.293,3.372,3.372,0,0,1-2.136-.582,2.694,2.694,0,0,1-.927-1.759Z" transform="translate(-324.585 -75.364)" fill="#073783"/>
    <path id="Path_45" data-name="Path 45" d="M566.26,128.146V118.24h1.316v8.749h4.882v1.189Z" transform="translate(-341.901 -71.416)" fill="#073783"/>
    <path id="Path_46" data-name="Path 46" d="M585.47,119.609v-1.4h1.22v1.4Zm0,8.519v-7.184h1.22v7.184Z" transform="translate(-353.499 -71.398)" fill="#073783"/>
    <path id="Path_47" data-name="Path 47" d="M593.23,132.033v-7.184h1.1v1.006a2.521,2.521,0,0,1,.9-.848,2.548,2.548,0,0,1,1.28-.325,2.377,2.377,0,0,1,1.312.333,1.815,1.815,0,0,1,.721.927,2.583,2.583,0,0,1,2.219-1.26,2.175,2.175,0,0,1,1.64.594,2.528,2.528,0,0,1,.578,1.823v4.933h-1.212V127.5a3.322,3.322,0,0,0-.119-1.05,1,1,0,0,0-.428-.515,1.319,1.319,0,0,0-.733-.2,1.692,1.692,0,0,0-1.256.5,2.211,2.211,0,0,0-.5,1.613v4.176H597.5v-4.668a2.068,2.068,0,0,0-.3-1.22,1.129,1.129,0,0,0-.975-.4,1.791,1.791,0,0,0-.951.269,1.549,1.549,0,0,0-.634.792,4.465,4.465,0,0,0-.194,1.5v3.729Z" transform="translate(-358.185 -75.304)" fill="#073783"/>
    <path id="Path_48" data-name="Path 48" d="M622.38,119.609v-1.4H623.6v1.4Zm0,8.519v-7.184H623.6v7.184Z" transform="translate(-375.784 -71.398)" fill="#073783"/>
    <path id="Path_49" data-name="Path 49" d="M631.768,127.376l.174,1.078a4.554,4.554,0,0,1-.919.107,2.076,2.076,0,0,1-1.026-.21,1.15,1.15,0,0,1-.515-.551,4.359,4.359,0,0,1-.151-1.438v-4.133h-.891v-.947h.891V119.5l1.212-.729v2.512h1.224v.947h-1.224v4.2a2.1,2.1,0,0,0,.063.67.531.531,0,0,0,.21.238.792.792,0,0,0,.4.087A3.962,3.962,0,0,0,631.768,127.376Z" transform="translate(-379.443 -71.736)" fill="#073783"/>
    <path id="Path_50" data-name="Path 50" d="M644.13,129.723l1.26.155a3.063,3.063,0,0,1-1.1,1.712,3.732,3.732,0,0,1-4.557-.361,3.788,3.788,0,0,1-.923-2.722,3.983,3.983,0,0,1,.931-2.817,3.17,3.17,0,0,1,2.425-1,3.079,3.079,0,0,1,2.354.983,3.915,3.915,0,0,1,.911,2.774v.325h-5.361a2.8,2.8,0,0,0,.67,1.815,2.009,2.009,0,0,0,1.5.626,1.851,1.851,0,0,0,1.145-.353A2.294,2.294,0,0,0,644.13,129.723Zm-3.994-1.981h4.01a2.468,2.468,0,0,0-.46-1.359,1.862,1.862,0,0,0-1.51-.705,1.926,1.926,0,0,0-1.411.563,2.227,2.227,0,0,0-.63,1.514Z" transform="translate(-385.699 -75.308)" fill="#073783"/>
    <path id="Path_51" data-name="Path 51" d="M663.266,128.146v-.888a2.231,2.231,0,0,1-2.009,1.07,2.8,2.8,0,0,1-1.585-.475,3.1,3.1,0,0,1-1.117-1.319,4.552,4.552,0,0,1-.4-1.953,5.077,5.077,0,0,1,.361-1.953,2.825,2.825,0,0,1,1.074-1.343,2.889,2.889,0,0,1,1.585-.468,2.417,2.417,0,0,1,1.161.273,2.5,2.5,0,0,1,.824.717V118.24h1.213v9.906Zm-3.847-3.586a3.123,3.123,0,0,0,.582,2.064,1.732,1.732,0,0,0,2.73.032,3.015,3.015,0,0,0,.555-1.981,3.371,3.371,0,0,0-.567-2.167,1.747,1.747,0,0,0-1.4-.689,1.7,1.7,0,0,0-1.359.662,3.192,3.192,0,0,0-.543,2.08Z" transform="translate(-397.386 -71.416)" fill="#073783"/>
  </g>
</svg>
