<svg xmlns="http://www.w3.org/2000/svg" viewBox="0 0 448.94 167.16"><defs><style>.cls-1{fill:#1d1d1b;}.cls-2{fill:#fff;}.cls-3{fill:#fdeb07;}.cls-4{fill:#e01f26;}</style></defs><g id="Layer_2" data-name="Layer 2"><g id="LDCHK_logo"><polygon class="cls-1" points="107.91 124.07 122.65 124.07 122.65 134.48 95.61 134.48 95.61 87.19 107.91 87.19 107.91 124.07"/><polygon class="cls-1" points="138.95 97.6 138.95 105.5 152.81 105.5 152.81 115.92 138.95 115.92 138.95 124.07 153.57 124.07 153.57 134.48 126.66 134.48 126.66 87.19 153.57 87.19 153.57 97.6 138.95 97.6"/><path class="cls-1" d="M208.31,108.07c-.12,6.9-.62,12.8-4.82,18.7-4.65,6.45-11.61,9.28-19.51,9.28-14.87,0-25.22-10.1-25.22-25,0-15.36,10.42-25.46,25.66-25.46,9.72,0,17.25,4.39,21.32,13.23l-11.66,4.89c-1.7-4.51-5.27-7.52-10.22-7.52-8.1,0-12.3,7.71-12.3,14.93S176,126,184,126c5.33,0,9.41-2.76,9.91-8.22h-10v-9.66Z"/><path class="cls-1" d="M263.87,110c0,15.31-11,26.1-26.15,26.1s-26.15-10.79-26.15-26.1c0-14.3,12.54-24.33,26.15-24.33s26.15,10,26.15,24.33m-39.51.07c0,8.15,6,14.11,13.36,14.11s13.36-6,13.36-14.11c0-6.53-6-12.48-13.36-12.48s-13.36,5.95-13.36,12.48"/><polygon class="cls-1" points="281.26 124.07 296 124.07 296 134.48 268.96 134.48 268.96 87.19 281.26 87.19 281.26 124.07"/><path class="cls-1" d="M313.81,126.26l-3.26,8.22h-13L315.7,87.19h13.42l17.81,47.29H333.82l-3.07-8.22Zm8.6-24.46h-.13l-5.08,15.06h10.22Z"/><path class="cls-1" d="M404.88,87.19h17.44a23.65,23.65,0,1,1,0,47.29H404.88Zm12.3,36.88h2.76c7.33,0,13.6-4,13.6-13.23,0-8.47-5.58-13.24-13.48-13.24h-2.88Z"/><polygon class="cls-1" points="396.73 28.74 384.44 28.74 384.44 116.11 384.31 116.11 361.8 87.19 349.51 87.19 349.51 134.48 361.8 134.48 361.8 105.5 361.93 105.5 384.44 134.48 396.74 134.48 396.73 28.74"/><path class="cls-1" d="M440.09,131.8a3.57,3.57,0,1,1,3.56,3.59,3.55,3.55,0,0,1-3.56-3.59m.78,0a2.79,2.79,0,1,0,2.78-2.82,2.76,2.76,0,0,0-2.78,2.82m4.44,1.85h-.85l-.87-1.49h-.65v1.49h-.78v-3.73H444c.86,0,1.45.15,1.45,1.14a1,1,0,0,1-1,1.1ZM444,131.49c.41,0,.67-.09.67-.5s-.5-.4-.86-.4h-.86v.9Z"/><rect class="cls-2" x="330.68" y="29.24" width="49.34" height="49.34"/><path class="cls-3" d="M330.68,78.58H380V29.24H330.68Zm46.06-28.83a19.72,19.72,0,0,1-1,4.73c-1.73,5.16-3.74,8.35-8.4,8.35-1.37,0-3.8-.36-4.7-2.8l-.21-.58-.38.48a7.57,7.57,0,0,1-5.94,2.92A5,5,0,0,1,352,61.13l-.25-.31-.28.3a6.3,6.3,0,0,1-4.71,1.71,5.13,5.13,0,0,1-3.84-1.51l-.24-.26-.25.25a6,6,0,0,1-4.55,1.47c-2.39-.06-3.85-1.39-3.9-3.58-.07-3.36,3.19-10.45,4.54-12.6a4,4,0,0,1,3.68-2.14,3,3,0,0,1,2.28.7,2.17,2.17,0,0,1,.52,1.65l0,1.12.59-1c1.44-2.31,3.8-2.62,6.15-2.62a4.29,4.29,0,0,1,3.64,1.53l.2.34.31-.26a7.39,7.39,0,0,1,4.81-1.6c2.06,0,3.56.52,4.46,1.53a2.77,2.77,0,0,1,.52.78l.23.49.34-.42a6.66,6.66,0,0,1,5.32-2.33,5.26,5.26,0,0,1,4,1.39,5.35,5.35,0,0,1,1.19,3.94"/><path class="cls-4" d="M330.68,78.58H380V29.24H330.68Zm47.45-26.94A28.21,28.21,0,0,1,376,58.09c-1.73,3.57-4,6.3-8.49,6.3a6.71,6.71,0,0,1-5.48-2.21,8.94,8.94,0,0,1-6,2.24A7,7,0,0,1,351.68,63a8.52,8.52,0,0,1-4.91,1.4,7,7,0,0,1-4.16-1.24,8.34,8.34,0,0,1-4.8,1.19c-3.18-.08-5.38-2.1-5.45-5-.08-3.89,3.2-11,4.75-13.5a5.76,5.76,0,0,1,5.09-2.93c2.35,0,3.2.67,3.62,1.53,1.82-1.54,4.22-1.63,5.93-1.63a6.1,6.1,0,0,1,4.09,1.3,9.29,9.29,0,0,1,4.89-1.27c2.44,0,4.25.57,5.51,1.82a8.14,8.14,0,0,1,5.37-1.79c2.72,0,4.52,1,5.57,2.45,1.49,2.07,1.22,4.15.95,6.35"/><path class="cls-1" d="M330.34,78.91h50v-50h-50Zm49.32-.69H331V29.59h48.63Z"/><path class="cls-1" d="M377.88,43.91v-.34h.23c.18,0,.26.06.26.17s-.05.17-.23.17Zm.83.71-.14-.25c-.13-.22-.16-.26-.27-.29h0a.35.35,0,0,0,.34-.35.35.35,0,0,0-.39-.35h-.62v1.25h.25v-.51h.05c.11,0,.16,0,.21.06a1.66,1.66,0,0,1,.16.24l.11.21ZM378.1,43a1,1,0,1,1-1,1,1,1,0,0,1,1-1m0-.24a1.2,1.2,0,1,0,1.2,1.2,1.19,1.19,0,0,0-1.2-1.2"/><path class="cls-1" d="M371.58,44.08A7,7,0,0,0,366,46.53a3.05,3.05,0,0,0-.58-.86c-1-1.12-2.58-1.64-4.71-1.64a7.68,7.68,0,0,0-5,1.68,4.55,4.55,0,0,0-3.92-1.7c-2.36,0-4.92.33-6.45,2.79a2.43,2.43,0,0,0-.61-1.88,3.41,3.41,0,0,0-2.53-.8,4.38,4.38,0,0,0-4,2.3c-1.36,2.17-4.66,9.33-4.58,12.79,0,2.24,1.55,3.85,4.23,3.92a6.44,6.44,0,0,0,4.8-1.57,5.44,5.44,0,0,0,4.09,1.62,6.76,6.76,0,0,0,5-1.83,5.43,5.43,0,0,0,4.4,1.85,7.94,7.94,0,0,0,6.2-3.05c.8,2.17,2.82,3,5,3,4.84,0,7-3.33,8.73-8.59a20.09,20.09,0,0,0,1-4.82c.15-2.77-1-5.69-5.5-5.69M339.4,57.3c2.51-.43,3.13.47,3.05,1.31-.23,2.51-2.54,3.07-4.53,3-1.45,0-2.75-.7-2.79-2.38-.06-2.94,2.94-9.75,4.35-12a2.91,2.91,0,0,1,2.71-1.6c1.21,0,1.51.61,1.49,1.35-.05,2-3.24,8-4.28,10.31M347.55,55c-.17.45-.48,1.38-.74,2.38a8,8,0,0,1,2.5-.32c1.2,0,2,.52,2,1.52,0,2.41-2.66,3.12-4.51,3.12-2,0-3.81-1.16-3.81-3.38,0-2.6,1.41-6.54,2.73-9.17,1.62-3.23,3.29-3.66,6.15-3.66,1.25,0,2.7.54,2.7,1.73,0,1.64-1.39,2.27-2.77,2.35-.6,0-1.5.06-2,0a11.16,11.16,0,0,0-.94,1.95c2.55-.36,3.64.22,3.2,1.69-.58,2-2.31,2.14-4.43,1.76m12.59-6.22a1.84,1.84,0,0,0-1.49.91,26.6,26.6,0,0,0-2.6,6.93c-.17,1.17.34,1.41.89,1.41.89,0,1.89-.94,2.23-2.49,0,0-1.69,0-1.23-1.54s1.32-1.77,2.74-1.83c2.81-.12,2.54,2,2.31,3.06-.73,3.59-3.29,6.48-6.9,6.48-2.48,0-4-1.37-4-3.9a19.7,19.7,0,0,1,1.59-6.27c1.51-3.52,3.09-6,7.11-6,2.41,0,4.32.87,4,3.13-.2,1.66-1,2.64-2.55,2.75-.41,0-2.14,0-1.57-1.64.2-.57.28-1-.56-1m15.19,3a24.68,24.68,0,0,1-2.42,6.48c-1.7,3.05-3.75,3.48-5.56,3.46s-3.82-.69-3.83-3.46a21,21,0,0,1,1.57-6.64c1.27-3.34,2.57-6.06,6.68-6,4.78.06,3.93,4.31,3.56,6.17m-3.42-2.09a33.54,33.54,0,0,1-2.58,7.51c-.3.49-.62.9-1.2.9a.73.73,0,0,1-.76-.78c0-1.16,2.08-6.93,2.81-7.87a1.1,1.1,0,0,1,1.09-.57c.6,0,.66.44.64.81"/><path class="cls-4" d="M50.27,68.8c-.17-.36-.68.17-.3-.24.31.06.54.13.3.24"/><path class="cls-4" d="M48.21,163.18c-2-1.17.06-2.62-1.19-3.88-.08-.15,1.09,0,.84-.28-1.54-1.23-.58-3.1.65-4.55l.31.09c.22-.27-.79-.63-.65-.92.21,0,.29.1.58,0-.62-.09-.28-.54-.74-.68.24-.11.73-.09,1-.24l-.7-.18c-1.67-.5.13-1.14-.72-1.79l.45.05c-1-1.05-.79-2.34-1.15-3.49l1,0a1.08,1.08,0,0,1-1.07-.73c.77-.13-.69-.55-.26-.9l.17,0c-.8-.28.47-.39-.49-.62l.6-.16c-1.07-.13.57-.38,0-.61h-.21c-.27-.22.28-.32.1-.51l.12,0c-.27-.46.33-.71-.5-.71.67-.15.29.44,1.28.21-.84-1.5-.65-3-.64-4.54a2,2,0,0,1,.76-.3c-.16-.15-.14-.57-.57-.71,0,.05.44-.09.48-.17.32-.27-.92-.31-.54-.61l.81.14c-.65-.27-.54-.61-.75-.92a.94.94,0,0,0,.49.12c-.74-.34.16-.6-.3-.9l.48.12c.6-.46-1-.15-.66-.55l.55.09c-.88-.39-.58-1-.87-1.37h.2c-.1-.41.18-.83-.2-1.28.22-.16,1.18.07,1-.37-1,0-.39-.74-1.49-.5.16-.37.54-.95.21-1.2.37.17,1.19-.16,1.27.15l.6-.22c.39,0-.14.24.36.17,0-.15-.41-.61-.25-.74-.59-.3-1.7-.58-1.82-1,.37.22,1.08-.11,1.24,0l-1.86-.67c0-.16.77,0,.53-.25l-.63-.16c.11-.06-.23-.65.73-.7.37-.06.19.26.54.09,0-.28-.33-.3-.34-.58h.12c.15-.18-.39-.56-.93-.36,0,.13.58,0,.3.15-.55-.14-.71-.47-.71-.76l.68.14a3.28,3.28,0,0,1-1.29-1.24c-.46,0,.83.18.59.23.64-.53-.88-1.14,0-1.57.08.07-.65,0-.52,0,.06-.26.73-.24.49-.41.38,0-.13-.22-.24-.4-.28-.09.19,0,.23.11-.33-.25-.91-1.24-.33-1.8-.26,0-.94-.36-.91-.49l.6.06c.36-.12,0-.44.47-.45-.72-.29.6,1.08,0,.69.5-.09-1-.54-.13-.44,0-.27-.69-.53-.13-.77-.09.07.83.23.79,0-.1-.37-.28-.11-.48-.41l-.24-.2c-.58,0,.09-.33-.57-.2.48,0-.29-.55.68-.49l.76.06c0-.16-.8-.28-1.13-.41l.35,0c-1.17,0,.1-.38-.8-.59.41-.33,0-.85.78-1-.35-.27-.76-.51-.51-.8.12.06.14.14.39.16.35-.18,0-.23-.14-.4.17,0,.69-.36,1.11-.56-.35-.27-1-.19-1.37-.22,1.16-.22-.73-.74.32-1,.16.09.57.39.86.18,1.15-.22-.85-.49-.29-.86l-1,.07c.59-.16-.55-.57.43-.51-.35-.14.32-.45-.61-.42.79-.61-.45-1.53,1.23-1.88-.16-.09,0-.32-.47-.28s.36.22,0,.27c0-.08-.28-.11-.41-.12.21-.19.28-.34,1.06-.14.58-.43-1.59-.48-1.21-1,.39,0,.53,0,.47-.17l-.65-.32c.16-.35.88-.18,1.53-.18-.11-.19-.07-.42-.56-.52l.83-.22c-.6.16-.39-.16-.55-.25l.16.09c.28,0,.11-.25,0-.36a.91.91,0,0,0-.69.36c-.29-.1-.22-.25-.56-.39.64,0,.46-.3.54-.45s-.58-.21-.56-.26c.34,0,.07-.28.53-.14.11.07-.33.13,0,.24.26-.11.84-.09.42-.33s-1.27,0-.86-.31l.64.18.34-.31-.58,0,.27,0c-.61-.1-.18-.49-.87-.57-.06-.16.41-.33.48-.48l.05,0c.35-.18.13-.43-.26-.6h.12c0-.1,0-.34-.37-.48.44-.24,2.2,0,1.47-.34,0-.26-1.07-.43-1.44-.33.4-.46-.54-1,.37-1.43-.23-.07-.38,0-.52-.18.25-.68-.66-1.47.49-2,.25.2.59,0,.92,0-.52-.17.55-.19-.35-.26-.53,0-.78,0-1,.17A.83.83,0,0,1,45,97.31a.54.54,0,0,1-.56-.07c.84,0,1-.26.68-.5l-.51,0,.53-.15c-.17-.09-1.08-.11-.58-.33l.55-.06c-.42-.24-1.13-.59-.69-.84l.76-.2c-.08-.11-.53-.3-.75-.11.46-.44.52-.72,1.17-.85a2.37,2.37,0,0,1-1.48-2.76l.38,0c.36-.23-.67-.13-.4-.29.37.08.8-.17,1.25,0,.41-.33-.66-.44-.83-.67-.51,0,.32.18-.32.13-.18,0,.4-.46-.36-.53a3.56,3.56,0,0,1,1.17.05l-.37-.21c.9-.24,1.58.6,2.69.35l-.12-.19c.8-.17.89.52,1.18.05a2.93,2.93,0,0,0-1.82-.23c-.2-.44-1.82-.24-1.74-.7.44-.12.1.37.72.3s-.33-.45-.11-.64a1.36,1.36,0,0,1-1.2-.13c.37-.23.72.17.81-.16-.44-.07-.77-.38-1.08-.12-1-.14.28-.34-.49-.54.7-.1,1.62.37,2,0-.67,0-.91-.47-1.91-.29a1.7,1.7,0,0,1,1.14,0c.42-.19-1.23-.52.12-.56L44.11,87c.22-.07.39-.15.77-.25,0-.18-.93-.6.12-.57-.11-.06-.06-.47-.78-.33-.45.25.52.31-.46.44.8-.17-.1-.38-.36-.53l.4,0c-.15-.09-.06-.29-.5-.35a.86.86,0,0,0,.61,0l-.62-.1c-.29-.37,1.09-.07.92-.43l.47.28c-.11-.06.48-.17.28-.34l-1.66-.27c-.25-.21.63-.08.06-.29l.67.27c.19,0,.93-.15.92-.42-.19-.17-1-.45-1.31-.19,0-.13.34-.31.75-.2-.19-.3-.6,0-1-.23.37-.1.91-.42,1.46-.61l.94.28v-.17c.75.24.58-.11,1.37,0,.12-.12-.14-.27-.35-.39-1.28.33-1.73-.44-2.89-.35-.31-.5,2.82-.26,1-.8-.31.07-1.19-.18-.85.13.13-.3-1.16-.22-.68-.58.47.28,1.18-.26,1.86.13-.38,0-.29.21-.18.27.44-.11,1.16.05,1.17-.26s-.12-.46-.73-.43.07.29-.61.16c-.22-.39.79-.43-.38-.61.09.24-.6.29-1.06.28l-.26-.29.44.07c.32-.44-.81-.15-.68-.58l.88-.19c.75.12-.35.63.88.57.05-.28-.57-.39-.25-.65l.24.21c0-.1,1.67-.18.72-.6-.36-.21-.43-.06-.89-.07-.13-.46-.59-.6-.66-.89.9.07.1-.52,1-.18-.52.14-.48.8.37,1,1.06-.15-.16.36.91.47C46.27,79,47.31,79,48,79c0-.1-.24-.21-.34-.27a11.48,11.48,0,0,0-1.3.08c.18-.41-.17-.8-.79-1,.32-.13,1-.07,1,.09a1.9,1.9,0,0,1,.11-1.46c-1.05.28-.23-.51-1.11-.33a1.8,1.8,0,0,1-1.46.3c.07-.15.46,0,.69,0-.57-.2.92-.28,0-.49.33.45,1.28.11,2.1.2-.46-.33.58,0,.58-.29a3.18,3.18,0,0,1-1-1.07c.78-.43,0-1.12,0-1.52.42-.2,1.35,0,1.51-.26,0-.27-1,.17-.57-.21l.18,0c-.21-.12.64-.7-.69-.84L48,72c.1-.07-.13-.15-.23-.21.32,0,.62-.07.83,0,.7-.23-.1-.51-.12-.77l-.6.16c-.46-.46.14-.75-.06-1.18l.57,0L48,69.79c.56.07.93-.16.46-.31l1.42.7c-.35.18-.7-.22-1.28-.11s-.35.49.21.57c.07-.15-.06-.16-.27-.29.81,0,.78.2,1.32.32,0-.08.21-.19,0-.21.4.17.46.33.47.59-.31-.18-.5.09-.73,0,.71,0,.93.28.72.61-.83.21.53.61.29,1A4.33,4.33,0,0,1,49,72.06c-.36.23,0,.27-.35.5a4.21,4.21,0,0,1,1.68.53h-.53c.27.28,1.06.29.9.65a5.93,5.93,0,0,0-.35,1.69h-.53c1.13.28.4.87.9,1.23-.52.58.48,1.29-.44,1.58a5.41,5.41,0,0,1,.56,3l-.77-.19c.57.2-.44.12-.33.31.62-.21.79.28,1.27.42-.61.47,0,1.1.57,1.54h-.53c1,.44.1.95-.07,1.48-.22.06-.72.15-.67.31.86.31.8.46,1.33.9a1.83,1.83,0,0,1-.57,1.12c1.19,1.2.39,2.39,1.1,3.62l-.63.08c1.32,1.21.08,2.65.75,3.67l-1.07-.11c-.34.31.27.72,1,.66-.34.31.51.8-.38,1-.2.33.49.41.63.68a1.38,1.38,0,0,0-.14,1.51l.07-.15c-.23-.07-.69-.09-.76.06.29.24-.3.84,1,.63-.75.65.57,1.54-.43,2.16.34,0,.41.12.64.19,0,.57-.71,1.17-.13,1.63-.18.09-.59-.15-.63.08.13.14.45,0,.65.19.63.94-.71,1.87-.55,2.72.65,1.52.28,3.08.37,4.53l-.26,0c1,.5-1,1.11.45,1.52-.25.11-.12.44-.62.34.69.4-.67,1.07.2,1.64l-.13-.14c-.58.55.19,1.06-.34,1.64a.79.79,0,0,0-.44-.19c-.5.22,1.07.56-.17.66,0,.14.62.11.59,0-.5,1.29.26,2.69.52,4-.76,1-2.08,0-1.17.8-.24.06.47.06.21.06.34.3-1.39.44-.75.66.77-.07.43.14.89.15-.5.59-1.19.69-.62,1.17l-.4,0c1.12.57.5,1.19,1.8,1.67.18,3,.85,5.93,1,8.88-.3,2.91.23,5.76-.51,8.71-1.06.67-1,.72-.62,1.49l-.37,0c.86.05.07.53.9.62a19.38,19.38,0,0,0,0,3.23c-.09-.18-.79-.29-.74-.07l.55.23-.24,0a.79.79,0,0,0,.82.17c.7,2.83-1.08,5.58-.91,8.35-.37.65-.06,1.59.1,2.31-1.18,2.09-2.14,4-1.37,6.15,0,0-2.22-.32-2.72-1.22"/><path class="cls-4" d="M50.34,69.22c-.43.07-.67.31-1.24.11Z"/><path class="cls-4" d="M45.8,75.71c.13,0-.17.09-.25.11s-.38-.16-.16-.22c0,.08.23.07.41.11"/><path class="cls-4" d="M45.52,77.39a.92.92,0,0,1-.73-.61Z"/><path class="cls-4" d="M43.91,78.92c-.32.13-.5.09-.49-.09Z"/><path class="cls-4" d="M44.78,79.05c0,.13-.22.19-.44.25.33,0-.2-.3.44-.25"/><path class="cls-4" d="M43.61,82.43c0,.08.34.26-.08.33.3-.08-.48-.41.08-.33"/><path class="cls-4" d="M44.16,84s-.09.07,0,.13a.46.46,0,0,1-.49-.1Z"/><polygon class="cls-4" points="45.21 112.78 45.02 112.6 45.4 112.63 45.21 112.78"/><path class="cls-4" d="M296.15,28.15c-4.25.42-8.08-3.33-12.38-3.72-.48-.11.53-1-.58-1.14-4.3-.07-9.78-3.32-13.84-6.28l.39-.18c-.77-.55-2.21,0-3.07-.54.07-.19.4-.15.3-.5-.46.48-1.76-.41-2.32-.14-.27-.37,0-.81-.41-1.25l-.78.44c-2.09,1-3.48-1.55-5.79-1.56.16-.11.41-.15.31-.36-3.56-.35-7.46-2.16-11.15-3.26.23-.18.54-.54.44-.89-.46.62-1.63.34-2.64.09-.14-.88-1.89,0-2.85-.87l.16-.12c-1.13.4-1.05-.93-2.08-.31l-.3-.77c-.76.85-1-1-1.87-.78l-.06.21c-.74,0-.87-.66-1.54-.73V5.35c-.4.15-2.1.25-1.6.91-.71-.48,1.3-.72.22-1.41-4.48,2.31-9.41,3.68-14.17,5.19-.64-.16-1-.14-1.24-.41-.42.31-1.74.71-2,1.25.16-.06-.43-.31-.7-.27-1,0-.67,1.18-1.73,1.12.31-.33.36-.63.13-.89-.61.88-1.73,1.12-2.62,1.62.1-.18.31-.33.19-.58-.82,1-2,.46-2.74,1.19l.2-.57c-1.66-.1-.13,1.11-1.52,1.18.26-.24.1-.39.09-.6-.93,1.22-2.94,1.54-4,2.2v-.2a23,23,0,0,0-4,1.49c-.59-.05-.19-1.18-1.51-.58.34.91-2.21,1.11-1.07,1.91-1.22.22-3.19.45-3.87,1,.41-.52-.93-1,0-1.34l-.92-.34c0-.41.81-.1.42-.51a10.65,10.65,0,0,1-2.27,1c-.73.85-1.23,2.18-2.66,2.76.58-.58-.71-.91-.29-1.21l-1.49,2.42c-.47.2-.33-.7-1-.24.12.24-.14.49-.29.76-.22-.05-2,.86-2.46,0-.33-.29.74-.44.09-.59-.89.29-.84.61-1.73.91l-.06-.12c-.64.05-1.63.94-.83,1.25.43-.1-.33-.51.37-.43-.25.66-1.25,1.14-2.15,1.43.26-.24.14-.48.19-.77a13.17,13.17,0,0,1-3.46,2.45c.12.44.26-.95.53-.78-1.92-.06-3.31,2-5,1.54.21-.14.32.59.26.47-.85.21-1-.44-1.48,0-.17-.35-.65.34-1.17.63-.21.35-.2-.14.27-.33a12.41,12.41,0,0,1-5.6,2.13c.11.23-.83,1.25-1.25,1.35v-.62c-.49-.23-1.38.48-1.6,0-.67,1,3.22-1.67,2.19-.76-.46-.37-1.38,1.44-1.37.58-.82.28-1.43,1.18-2.39.89.26,0,.42-1-.23-.75-1.16.47-.25.38-1.16.87L157,32c.13.57-1.09.26-.45.74-.29-.41-1.63.83-1.8-.13l-.07-.78c-.49.21-.59,1-.9,1.47l-.27-.27c.26,1.14-1.25.29-1.59,1.34-1.2,0-2.74.82-3.47.29a4,4,0,0,1-2.36,1.28c.15-.16.4-.27.38-.53-.7-.14-.75.2-1.23.55.07-.21-1.39-.29-2.17-.47-.71.59-.24,1.1-.21,1.49-1.1-.86-2.1,1.44-3.35.74.24-.25,1-.92.26-1-1.09-.87-1.25,1.28-2.63,1.13l.58.82c-.71-.39-1.61,1.09-1.78.12-.3.46-1.52.15-1.11,1-2.22-.13-4.68,2-6.4.76-.24.24-1,.31-.71.72.63.35.55-.56.83-.28a.45.45,0,0,0-.21.5c-.68,0-1.19.08-.84-.85-1.54-.11-.94,2-2.79,2.16,0-.39-.22-.49-.71-.27l-.77.94c-1.18.2-.91-.64-1.13-1.26-.57.3-1.32.5-1.45,1l-1-.55c.71.4-.38.53-.61.77l.23-.24c-.19-.23-.84.15-1.17.34.21.36,1,.3,1.39.29-.22.37-.72.45-1,.91,0-.66-1.12-.13-1.62,0s-.45.75-.61.78c-.12-.31-.92.23-.63-.35.16-.16.53.17.75-.2-.44-.13-.57-.7-1.2,0-.47.48.53,1.16-.67,1.11.23-.24.21-.5.36-.79h-1.11l.14.57c-.19-.1-.11-.18-.19-.23-.12.68-1.48.66-1.51,1.39-.48.22-1.19,0-1.69,0l.08-.08a1.91,1.91,0,0,0-1.8.86l0-.13a2.5,2.5,0,0,0-1.38.83c-.95-.16-.93-2-1.62-1-.82.28-1,1.43-.53,1.69-1.61.09-3,1.53-4.68,1.1-.14.29,0,.39-.37.66-2.26.46-4.42,2.11-6.51,1.56.56-.43-.13-.57-.24-.88-.37.66-.8-.32-.71.59.21.49.23.75.91.76-1.22.68-3.21,1.31-4.09,1.06.44.12.21.37,0,.61-.16-.84-1.16-.66-1.8-.14l0,.52-.64-.36c-.23.25,0,1.13-.85.88L85.86,55c-.63.64-1.48,1.65-2.43,1.49l-.9-.5c-.32.18-.78.8-.09.81-1.54,0-2.45.24-3.09-.24-1.94,2.26-5.42,3.42-8.25,4.19l0-.4c-.86-.1-.19.77-.8.68.14-.43-.81-.58-.35-1.2-1.2,0-1.19,1.08-1.84,1.46,0,.51.47-.48.52.17-.06.21-1.6.09-1.54.87-.36-.2-.32-.8-.26-1.15l-.55.56c-1.07-.59,1.35-2.09.18-2.88l-.57.31c-.82-.58,1.33-1.36-.27-1.15-.55.57-.78,1.8-.09,1.94-1.31.63-.09,1.94-1.59,2.34-.54-.3,1.15-.48.68-1-.88-.37-1.29.76-2,.75.78.06.42,1,0,1.25-.86-.11.28-.84-.81-.59,0,.48-.93,1.11,0,1.13-.08,1.08-1.19.09-1.54,1-.55-.57.61-1.9-.66-1.87.39.59-1.17,1.33-.25,2.1-.52,0-.72-.54-.52-1-.78-.19-1.21,1.68-1.83.46l0,.74c-.27-.15-.62-.22-1.06-.48-.58.17-1.58,1.48-1.84.47-.15.16-1.49.53-.76,1.06.95.16.78-.8,1.53,0-.82-.57-1.15.48-1.54.88l-.2-.36c-.23.24-.91.35-1,.83a.35.35,0,0,0-.3-.54l-.11.68c-1.05.65-.59-1-1.65-.43l.7-.72c-.15.16-.71-.28-1.18.08,0,.6-.23,1.36-.28,1.84-.55.43-.47-.52-.91.22l.6-.9c.07-.21-.82-.71-1.65-.43-.48.35-1.07,1.38-.13,1.41-.42.15-1.11,0-.9-.49-.9.48.3.53-.41,1.12-.45-.25-1.66-.43-2.45-.75l.57-1.17-.57.18c.51-1-.55-.44-.37-1.32-.43,0-.82.4-1.13.72,1.52.86-.76,2.06-.08,3.06-1.47.8-1.82-2.38-2.91-.14.36.21-.14,1.29.74.66-1,.19-.31,1.32-1.6,1.22.7-.72-1.26-.84-.25-1.88,0,.39.78.06.93-.1-.53-.3-.26-1.14-1.26-.83-.58.3-1.4.58-1.1,1.12s.91-.36.72.41c-1.14.6-1.64-.31-1.79,1,.73-.33,1.13.26,1.25.7l-.8.54,0-.47c-1.52.14-.18.89-1.6,1.21L33.39,73c.11-.82,2.11-.31,1.5-1.4-.91.24-1,.92-2,.88l.56-.42c-.33.06-1.14-1.39-2.13-.08-.55.56,0,.47.08.91-1.4.58-1.69,1.16-2.6,1.52-.08-.91-1.67.43-.92-.76.63.35,2.7-.35,2.95-1.33C30,71.49,32,72.12,32,71c-1.16.33-1.42-.68-1.81-1.27-.33.05-.56.43-.72.59.06.66.48.51.7,1.14a4.57,4.57,0,0,0-3,1.79.55.55,0,0,1-.09-1,21,21,0,0,1-4.66,1.36c1.26.7-1.55.74-.64,1.37.85,0,1.74.48,1.45,1.07-.51.09-.12-.45-.39-.6-.45.74-1.24-.57-1.58.48,1.3-.76-.11-1.3-.1-2.17-.87.76-.13-.56-1.13-.25a15.08,15.08,0,0,1-3.06,2c-1.64-.3-3.57,1.1-4.81,1.53-.78-.19-.62-1.22-1.38-1.15-.83.28.92.76-.44.75l.06-.22c-.31.32-2.46.11-2.42,1.5l.08-1.08c-.26,0-.41.27-.57.43-.1-.31-.46-.51-.15-.83C6.4,76,5.8,77,5,77.3l.71.41C4.41,78.6,3.28,78.33,2,79l-.13-.57L1.12,79c0-.6-.83-.71-1.12-.12l1.7-2c.69.14-.44.87.11,1.3S3.5,78,3.53,77.36c-.5.09-.49.22-.8.54-.4-.72.34-.92.55-1.56-.25.12-.68,0-.66.26a3,3,0,0,1,1.7-1c-.47.48.46.38.31.67-.15-.7.59-1.16,1.68-1.3,1,.56,1.78-1.11,3-1.27A4.33,4.33,0,0,1,8,75.77c.86.11.83-.28,1.69-.17a3.2,3.2,0,0,1,1.09-2.12L11,74c.8-.53.57-1.29,1.74-1.5,2-.36,4-1,5.51-1.38l.21.48c.48-1.34,2.61-1.26,3.57-2.08,2-.1,3.94-1.77,5.18-1.19a55.4,55.4,0,0,1,9.48-3.62l-.35.92c.45-.74.54.3,1.11,0-.88-.36.6-1,.88-1.61,1.72.1,3.49-1.15,4.68-2.09l.22.49c1.07-1.38,3-1.06,4.73-1.44.26.15.72.53,1.21.31.67-1.11,1.18-1.21,2.38-2.15a15.09,15.09,0,0,1,3.78-.61c3.38-2.32,7.43-2.78,11.1-4.69l.47.51c3.36-2.46,8.36-2.76,11.37-4.42V51c1.11,0,2.22-1,1.73-1.62,1.11,0,2.37-1.29,3.28-.65,1.09-.14,1.11-.87,1.93-1.28A14,14,0,0,0,90,46.06l-.5.09c-.15.29,0,.73.48.64.64-.51,2.76-.56,1.65-1.55,2.3,0,4.68-2.1,7-1.78-.27-.28.22-.51.36-.8,1.82-.59,4-.51,5.24-1.53.34.07-.29.71.47.51.4-.27-.13-.44.36-.79,2.76-1.55,6.19-1.24,8.83-2.25,4.58-2.14,9.68-3.38,14.23-4.93l0,.27c1.25-1.42,3.91-.18,4.69-2,.44.12,1.42-.32,1.3.23,1-1,3.62-.45,5.12-1.84l-.4.27c2,0,3.3-1.25,5.34-1.35-.16.16-.49.35-.47.61.88.24,1.41-1.57,2.17-.52.42-.14.12-.68-.13-.57,4.27-.84,8.44-3,12.64-4.58,3.3-.26.81,1.92,3,.29.26.16,0-.5.11-.27.83-.62,1.87.86,2.33,0-.49-.64.31-.54.19-1,2-.12,2.61.41,3.92-.6v.42c1.4-1.62,3.6-1.68,4.68-3.38,9.53-3.23,18.51-6.81,27.82-9.89,9.32-2.66,18.2-6,27.8-8.34,2.51.31,2.67.23,5-.93,0,.19-.19.28,0,.38-.07-.43.35-.58.79-.74l.32-.12.15-.06h0c1.43.06-3.21-.14,3.21.13h.15a.53.53,0,0,0,.51-.19c3.31,1.53,6.5,2.58,10,4-.59-.14-1.13.4-.46.62l.89-.23,0,.26c.49.07,1.13-.12.78-.57,9,2.88,16.89,8,25.5,11.27a36.61,36.61,0,0,0,7.16,2.78c6.08,3.73,11.61,7,18.54,9a5.17,5.17,0,0,1-4.64,1.06"/><path class="cls-4" d="M42.79,70.34c.25-.12.72-.59,1.09-.26-.36-.2-1.12.85-1.09.26"/><path class="cls-4" d="M47.63,68.21c.17,0,.26,0,.42-.14.35.07.11.44-.12.55Z"/><path class="cls-4" d="M123.79,165.83a2.17,2.17,0,0,1-2.16-2.12c0-.52.11-.84.11-1.13v-.13a10.26,10.26,0,0,0-.11-1.7l0-.09.29-5.82a9.9,9.9,0,0,1-.12-1.64c0-.51,0-1,.06-1.39l.1-1.39c0-.43.12-1.54.12-1.54v-.23l.12-.18a2.33,2.33,0,0,1,2-1.19,2.37,2.37,0,0,1,.68.1,1.83,1.83,0,0,1,1.46,1.28l0,.11.05,5.17v2.86s0,3.11-.1,4.34a13.67,13.67,0,0,1-.3,3,2.26,2.26,0,0,1-2.2,1.67Z"/><path class="cls-4" d="M379.11,146.54c0,.23,0,.48,0,.74a7.5,7.5,0,0,1-.53,2.61c-.47,1.32-.93,4.16-1.32,5.75-.25.69-.31,1.84-.58,3-.07.74-.17,2.25-.43,3.67s-.56,3-2,3.55a1.79,1.79,0,0,1-.51.07h0c-2.32-.24-4.31-2.66-4.86-3.76a7.2,7.2,0,0,0-1.15-1.67l-.09-.06-.06-.08c-2.7-3.24-3.88-5.85-6.77-7.84l-.3-.16v.18a15.34,15.34,0,0,0,.24,2.68,31.56,31.56,0,0,1,.22,4.44c0,1.76-.05,3.35-.05,3.35v.11l0,.11a3,3,0,0,1-1.68,2l-.17.09h-.7a2.07,2.07,0,0,1-2-1.23c-.73-2-.35-4.28-.73-5.89l0-.13,0-.13c0-.21.13-6.57.13-9.33v-.4l.09-.17a2.22,2.22,0,0,1,2-1.18,6.19,6.19,0,0,1,1.73.35c3,1,6,4,7.32,5.4s2.08,3,2.6,3.48c.63.69,1.56,2.37,2.43,3.55.34-1.32.52-2.8,1.07-4.45.65-1.92.41-3,.84-5a25.39,25.39,0,0,1,1-3.51,9.13,9.13,0,0,1,.27-.94,1.9,1.9,0,0,1,1.28-1,2,2,0,0,1,.62-.1c1.41.07,2.1,2,2.1,2"/><path class="cls-4" d="M199.28,150.71a9.6,9.6,0,0,1,.69,4,11.07,11.07,0,0,1-.28,2.7,19.41,19.41,0,0,1-1.57,3.64l0,.07-.07.08a12.66,12.66,0,0,1-9.59,4.52h0a11.61,11.61,0,0,1-1.9-.15,14.56,14.56,0,0,1-10-4.31,7.33,7.33,0,0,1-1.47-4.5,7.18,7.18,0,0,1,.63-3,9.27,9.27,0,0,1,3.23-3.94A8.23,8.23,0,0,1,181.4,148a16.28,16.28,0,0,1,8.47-2.25,14.83,14.83,0,0,1,1.86.09,11.54,11.54,0,0,1,7.55,4.83m-5.37.32a11.62,11.62,0,0,0-5.18-1.38q-.36,0-.66,0c-2.29,1-4.59,1.45-6.22,3.09a6,6,0,0,0-1.37,2,2.29,2.29,0,0,0-.13.86c0,.52.1,1.17.1,1.93v0a6.24,6.24,0,0,0,4,3.86,13,13,0,0,0,3.94.64,7.13,7.13,0,0,0,5.95-2.56,7.64,7.64,0,0,0,1-6.76,4.33,4.33,0,0,0-1.35-1.74"/><path class="cls-4" d="M262.37,145.44a8.94,8.94,0,0,1,5.11,2.84,6.48,6.48,0,0,1,.63,2.32c0,.07,0,.08,0,.16V151a3.56,3.56,0,0,1-1.3,2.58c-1.48,1.49-2.8,1.45-3.43,1.89a8.49,8.49,0,0,1-2.39.58,9.24,9.24,0,0,1,2.37,2.38c.78,1.2,3.43,3.63,4,5.52l.08.31-.15.3a2.69,2.69,0,0,1-2.35,1.36h-.26l-.22-.14a19.77,19.77,0,0,1-2.87-2.52c-.72-.76-1.33-1.93-1.85-2.41a22.26,22.26,0,0,0-4.41-3.49,6.16,6.16,0,0,0-.07,1.09v.29a10.69,10.69,0,0,1-.6,3.07v.05a4.29,4.29,0,0,1-1.87,3.21l-.09.07-.12,0a1.88,1.88,0,0,1-.72.14,2.2,2.2,0,0,1-1.79-1.06l-.12-.17v-.22c0-.12,0-.24,0-.37a11.79,11.79,0,0,1,.81-3.65,29.42,29.42,0,0,0,.26-4.18c0-1.75-.09-3.53-.09-5.42,0-.37,0-.75,0-1.13a1.78,1.78,0,0,1-1.36-1.65,2.6,2.6,0,0,1,.44-1.35c.48-.62.77-.52,1.22-.67a15.94,15.94,0,0,1,1.6-.22c1.25-.1,2.81-.15,4.34-.15a29.45,29.45,0,0,1,5.21.32m-6.86,6.67c0,.2,0,.37,0,.56v.1l0,.1a2.94,2.94,0,0,0-.12.7c1.73-.61,3.61-.63,5-1.2l.11-.05h.11a3,3,0,0,0,2.26-1.58,5.31,5.31,0,0,0,.08-.71c0-.27,0-.27-.13-.33a6.48,6.48,0,0,0-3.91-1c-1.09,0-2.27.11-3.45.15,0,.83.08,2.2.08,3.24"/><path class="cls-4" d="M419.67,145.44a8.94,8.94,0,0,1,5.11,2.84,6.48,6.48,0,0,1,.63,2.32c0,.07,0,.08,0,.16V151a3.52,3.52,0,0,1-1.3,2.58c-1.48,1.49-2.79,1.45-3.43,1.89a8.49,8.49,0,0,1-2.39.58,9.44,9.44,0,0,1,2.38,2.38c.77,1.2,3.43,3.63,4,5.52l.09.31-.16.3a2.67,2.67,0,0,1-2.35,1.36H422l-.22-.14a19.77,19.77,0,0,1-2.87-2.52c-.71-.76-1.32-1.93-1.85-2.41a22,22,0,0,0-4.41-3.49,6.16,6.16,0,0,0-.07,1.09v.29a10.69,10.69,0,0,1-.6,3.07v.05a4.29,4.29,0,0,1-1.87,3.21l-.09.07-.12,0a1.88,1.88,0,0,1-.72.14,2.2,2.2,0,0,1-1.79-1.06l-.12-.17v-.22c0-.12,0-.24,0-.37a12.08,12.08,0,0,1,.81-3.65,29.42,29.42,0,0,0,.26-4.18c0-1.75-.09-3.53-.09-5.42,0-.37,0-.75,0-1.13a1.78,1.78,0,0,1-1.36-1.65,2.6,2.6,0,0,1,.44-1.35c.48-.62.78-.52,1.23-.67a15.3,15.3,0,0,1,1.59-.22c1.25-.1,2.81-.15,4.34-.15a29.38,29.38,0,0,1,5.21.32m-6.86,6.67v.66l0,.1a2.94,2.94,0,0,0-.12.7c1.73-.61,3.62-.63,5-1.2l.11-.05h.11a3,3,0,0,0,2.26-1.58,5.31,5.31,0,0,0,.08-.71c0-.27,0-.27-.13-.33a6.47,6.47,0,0,0-3.9-1c-1.1,0-2.28.11-3.46.15,0,.83.08,2.2.08,3.24"/><path class="cls-4" d="M130.53,166.19a1.26,1.26,0,0,1-.57-1.07v-.21c0-.1,0-.17,0-.17a1.83,1.83,0,0,1,1.57-1.66,19.38,19.38,0,0,1,2.72-.29c1.73-.16,3.51-.34,5-.62l1.05-.37c.31-.05.72-.49,1.41-.76h0a2.12,2.12,0,0,0,.19-.14,5.65,5.65,0,0,0,.56-.5,3.4,3.4,0,0,0,.74-1.07c0-.14,0-.24,0-.36-.15-1.11-.55-1.13-2.12-1.77l-2-.53c-1.85-.46-4-1.27-4.83-2.77a3,3,0,0,1-.25-1.19,13.27,13.27,0,0,1,.31-1.9v-.07l0-.07c.7-2.22,2.95-3.49,5.15-3.82.53,0,1.19-.06,1.83-.06a5.46,5.46,0,0,1,2,.29,5.4,5.4,0,0,1,1.54.76,3.33,3.33,0,0,1,1.23,1.67c0,.1,0,.2,0,.32a1.5,1.5,0,0,1-.58,1.11,2,2,0,0,1-1.4.64,1.63,1.63,0,0,1-.55-.08,2.44,2.44,0,0,1-1.21-.55,4.28,4.28,0,0,0-2.05-.89.87.87,0,0,0-.25,0c-1.32.48-.46.07-1.17.51a1.38,1.38,0,0,0-.44,1.06,1.27,1.27,0,0,0,0,.28h0a1.27,1.27,0,0,0,.16.15,5.78,5.78,0,0,0,.77.41c.63.27,1.38.49,1.84.64,1.22.42,2.62.47,4,1.45,1.26.75,2.84,1.66,2.82,4-.44,3.81-4.1,5.43-6.16,6.12-2.51.58-5.3,1-7.92,1.31a17.78,17.78,0,0,1-2.68.41,1.43,1.43,0,0,1-.78-.2"/><path class="cls-4" d="M391.74,163.64c-.14-2.12-.24-4-.56-6.11-.08-.63-.38-1.52-.5-2.35s-.29-1.79-.42-2.68c-.09-.6-.19-1-.29-1.48l-1,.12c-1.36.15-1.95.36-3.46.52h-.18a2.13,2.13,0,0,1-1.82-2.36,1.84,1.84,0,0,1,1.51-2c1.11-.07,1.31-.73,2.95-1a8.27,8.27,0,0,1,1.11-.07c1,0,2,.1,2.78.1h.35c2.84-.13,5.73-.12,8.43-.2h.13A1.76,1.76,0,0,1,402.4,148a2,2,0,0,1-1.8,2.06h-.37c-.63,0-1.27,0-1.86,0a6.69,6.69,0,0,0-.78,0c-1,.08-1.94.28-3,.45a12.15,12.15,0,0,1,.31,1.38,27.3,27.3,0,0,1,.55,3.22,22.26,22.26,0,0,1,.24,2.63,6.91,6.91,0,0,1-.08,1.11,7.2,7.2,0,0,0-.09,1.21c0,1,.12,2.18.21,3.61v.05a1.8,1.8,0,0,1-1.92,1.64h-.05a1.92,1.92,0,0,1-2-1.68"/><path class="cls-4" d="M213.39,165.48c-2.31-.64-3.5-3-4.6-5.47s-1.68-5.78-4.09-8.3a5,5,0,0,1-2-2.39,3.31,3.31,0,0,1-.06-.55,2.13,2.13,0,0,1,1.81-2.29,1.48,1.48,0,0,1,.82.25c2.42,1.64,2.39,2.37,4,4.76.26.54.55,1.09.81,1.58a11.39,11.39,0,0,1,1,2.3,28.12,28.12,0,0,1,1.6,3.77,28.49,28.49,0,0,1,2-3.8c.69-1.65,2.12-3.55,2.41-4.59a8.94,8.94,0,0,1,1.54-3.26,2.34,2.34,0,0,1,1.93-1.17,2.16,2.16,0,0,1,.89.19,2.29,2.29,0,0,1,1.57,1.88h0a1.7,1.7,0,0,1,.05.42c-.1,1.22-.76,1.58-1.41,3.19-.88,2-1.92,2.92-2.54,4.11-.38.49-.95,2.3-1.51,3.32-.53,1.44-1.35,2.38-1.71,3.48l0,.14-.1.12c-.48.44-.61,1.71-2,2.3l-.23.07Z"/><path class="cls-4" d="M166.49,147c-.08.15,1.44.13,1.67,1.73a2.73,2.73,0,0,1-.91,1.75,2.47,2.47,0,0,1-1.83.82c-1.47-.07-2.57-1-3.18-.89a.78.78,0,0,0-.39.1,6.63,6.63,0,0,0-2.81,2.71,8.75,8.75,0,0,0-.3,2.74c0,.32,0,.67,0,1.06.09,2.18,1.06,3.59,2.13,4.06a6.37,6.37,0,0,0,1.84.35,5.72,5.72,0,0,0,1.68-.3,6.23,6.23,0,0,0,3.75-3.1l.13-.22.15-.07.23-.22a1.8,1.8,0,0,1,1.15-.44,2.17,2.17,0,0,1,1.11.34,1.57,1.57,0,0,1,1,1.31c-.12,1-.56,1.13-1,2.16a12.07,12.07,0,0,1-9,5,6.45,6.45,0,0,1-2.07-.33,6.52,6.52,0,0,1-3.66-2.47c-1.17-1.25-1.65-4.23-2-5.39a5.32,5.32,0,0,1-.2-1.49,13,13,0,0,1,1.86-6c1.77-3.37,4.23-3.86,5.69-3.8h.71c.09,0,.18,0,.15,0a5.32,5.32,0,0,1,1.14-.1,5.6,5.6,0,0,1,3,.67"/><path class="cls-4" d="M322.92,147c-.08.15,1.44.13,1.67,1.73a2.69,2.69,0,0,1-.91,1.75,2.47,2.47,0,0,1-1.83.82c-1.47-.07-2.57-1-3.18-.89a.78.78,0,0,0-.39.1,6.63,6.63,0,0,0-2.81,2.71,8.44,8.44,0,0,0-.3,2.74c0,.32,0,.67,0,1.06.09,2.18,1.06,3.59,2.12,4.06a6.49,6.49,0,0,0,1.85.35,5.67,5.67,0,0,0,1.68-.3,6.23,6.23,0,0,0,3.75-3.1l.13-.22.15-.07.23-.22a1.8,1.8,0,0,1,1.15-.44,2.17,2.17,0,0,1,1.11.34,1.6,1.6,0,0,1,1,1.31c-.13,1-.56,1.13-1,2.16a12.07,12.07,0,0,1-9,5,6.45,6.45,0,0,1-2.07-.33,6.52,6.52,0,0,1-3.66-2.47c-1.17-1.25-1.65-4.23-2-5.39a5.32,5.32,0,0,1-.2-1.49,13,13,0,0,1,1.86-6c1.77-3.37,4.23-3.86,5.69-3.8h.71c.09,0,.18,0,.14,0a5.47,5.47,0,0,1,1.15-.1,5.58,5.58,0,0,1,3,.67"/><path class="cls-4" d="M97.56,165.86A8.89,8.89,0,0,1,96,166a3.65,3.65,0,0,1-1.17-.17l-.23-.08-.15-.18a2.24,2.24,0,0,1-.55-1.41,1.8,1.8,0,0,1,0-.44l0-.17.1-.13a3.27,3.27,0,0,1,2.58-1c-.18-1.07-.37-2.23-.51-3.29s-.18-1.86-.3-2.87c0,0-.27-2.82-.33-4.65h-.07a1.75,1.75,0,0,1-.62-.1,2.46,2.46,0,0,1-2-1.67,1.92,1.92,0,0,1,0-.41,3,3,0,0,1,.3-1.19,1.89,1.89,0,0,1,1.69-1,3.29,3.29,0,0,1,.65,0c2.4,0,10.12.65,11.46.94,2.08.39,3.9.4,6.3,2.12a3.75,3.75,0,0,1,1.81,2.25c.1.72,0,.75.17,1a4.83,4.83,0,0,1,.76,3,1.7,1.7,0,0,1,0,.22,2.84,2.84,0,0,1-.52,1.71c-.46,1.31-1.62,1.83-2,2.43-1.65,1.49-3.72,2.08-5.59,2.76-2.08.42-4.14,1-6.43,1.44l.16.29-.22.4a4.61,4.61,0,0,1-1.1,1.22l-.15.11-.17.05a2.22,2.22,0,0,1-.49.07,2.58,2.58,0,0,1-2-1.3m2.3-13.4a4,4,0,0,0,.13,1c.4,1.59.19,4.09.39,5.4a15.12,15.12,0,0,0,.6,2.35c3.06-.71,7.13-1.56,8.26-2.44a6.55,6.55,0,0,0,2.1-2.07,3,3,0,0,0,.1-.72,2,2,0,0,0-.42-1.27,3.89,3.89,0,0,0-1.18-1l-.08,0-.07-.05c-2.49-1.88-5.56-2-9.12-2h-.64a4.92,4.92,0,0,0-.07.8"/><path class="cls-4" d="M233.08,165.45c-1.6-.12-3.23-.25-4.08-.25h-.35l-.23,0-.22-.11a2.28,2.28,0,0,1-1.34-2.06,2,2,0,0,1,.11-.69,1.66,1.66,0,0,1,1.5-1c0-.29,0-.58,0-.85a5.86,5.86,0,0,0-.1-1.25l0-.09v-2.86l-.07-.09a1.28,1.28,0,0,1-.23-.74,3.1,3.1,0,0,1,0-.49,2.89,2.89,0,0,1,.24-.92c0-.47-.09-1.4-.09-2.12a5.34,5.34,0,0,1,0-.58v-.1a10.45,10.45,0,0,1,.07-1.07l-.32,0a2.2,2.2,0,0,1-1.66-2.12,1.52,1.52,0,0,1,.92-1.42c1.31-.56,3.31-.49,5.72-.59,2.1-.08,3.16-.4,4.49-.41l.44,0h.19c.93,0,2.42-.43,3.6-.45a2.5,2.5,0,0,1,.72.09,5.88,5.88,0,0,1,1.33.47,1.64,1.64,0,0,1,.92,1.45,2.85,2.85,0,0,1,0,.29,2.61,2.61,0,0,1-1.86,2l-.1,0h-.11c-2.73.09-4.36.41-7.11.43l-2.61.3c0,1,0,2,0,3l1-.06q.45,0,.93,0a27.56,27.56,0,0,1,3.32.22h.36a3,3,0,0,1,2,.49,1.71,1.71,0,0,1,.63,1.28,5.75,5.75,0,0,1-.21,1.07,1.13,1.13,0,0,1-.73.89c-.26.09-.32.09-.36.11l-.14,0h-.13c-1,0-1.42.06-1.75.06s-.53,0-1.1,0h-.84l-3,.18c0,.57,0,1.34,0,1.89a6.84,6.84,0,0,1-.25,1.65,4.08,4.08,0,0,0,.65-.09l.11,0,4.26.18a9.44,9.44,0,0,1,1.74-.14,13.5,13.5,0,0,1,1.73.09h.1a10.71,10.71,0,0,1,2.91.54c.25.15.4,0,.73.48h0a1.8,1.8,0,0,1,.32,1.17,3,3,0,0,1-.2,1.22h0a1.47,1.47,0,0,1-.82.94l-.14.06h-.15c-1.06.05-2.1.05-3.13.05H236.7s-.51,0-1.29,0c-.63,0-1.44,0-2.33-.08"/><path class="cls-4" d="M436.82,165.45c-1.6-.12-3.23-.25-4.08-.25h-.35l-.23,0-.21-.11a2.29,2.29,0,0,1-1.24-2.75,1.66,1.66,0,0,1,1.5-1c0-.29,0-.58,0-.85a5.86,5.86,0,0,0-.1-1.25l0-.09v-2.86l-.07-.09a1.28,1.28,0,0,1-.23-.74,3.1,3.1,0,0,1,0-.49,2.89,2.89,0,0,1,.24-.92c0-.47-.09-1.4-.09-2.12,0-.21,0-.4,0-.58v-.1a10.45,10.45,0,0,1,.07-1.07l-.32,0a2.18,2.18,0,0,1-1.65-2.12,1.51,1.51,0,0,1,.91-1.42c1.31-.56,3.32-.49,5.72-.59,2.1-.08,3.16-.4,4.49-.41l.44,0h.19c.93,0,2.42-.43,3.61-.45a2.47,2.47,0,0,1,.71.09,5.88,5.88,0,0,1,1.33.47,1.64,1.64,0,0,1,.92,1.45,1.43,1.43,0,0,1,0,.29,2.61,2.61,0,0,1-1.86,2l-.1,0h-.11c-2.73.09-4.35.41-7.1.43l-2.61.3c0,1,0,2,0,3l1-.06q.45,0,.93,0a27.4,27.4,0,0,1,3.32.22h.36a3,3,0,0,1,2,.49,1.67,1.67,0,0,1,.63,1.28,5.12,5.12,0,0,1-.2,1.07,1.17,1.17,0,0,1-.73.89c-.27.09-.33.09-.36.11l-.15,0h-.13c-1,0-1.41.06-1.75.06s-.53,0-1.09,0h-.85l-3,.18c0,.57,0,1.34,0,1.89a6.84,6.84,0,0,1-.25,1.65A4.21,4.21,0,0,0,437,161l.1,0,4.26.18a9.44,9.44,0,0,1,1.74-.14,13.5,13.5,0,0,1,1.73.09H445a10.71,10.71,0,0,1,2.9.54c.25.15.4,0,.74.48h0a1.81,1.81,0,0,1,.33,1.17,3.19,3.19,0,0,1-.21,1.22h0a1.48,1.48,0,0,1-.81.94l-.15.06h-.15c-1.06.05-2.1.05-3.13.05h-4s-.52,0-1.3,0c-.63,0-1.44,0-2.33-.08"/><path class="cls-4" d="M338.64,165.45c-1.6-.12-3.23-.25-4.08-.25h-.34l-.24,0-.21-.11a2.29,2.29,0,0,1-1.24-2.75,1.66,1.66,0,0,1,1.51-1v-.85a5.86,5.86,0,0,0-.1-1.25l0-.09v-2.86l-.07-.09a1.28,1.28,0,0,1-.23-.74,3.1,3.1,0,0,1,0-.49,2.89,2.89,0,0,1,.24-.92c0-.47-.08-1.4-.08-2.12,0-.21,0-.4,0-.58v-.1c0-.33,0-.69.07-1.07l-.32,0a2.19,2.19,0,0,1-1.65-2.12,1.51,1.51,0,0,1,.91-1.42c1.31-.56,3.32-.49,5.72-.59,2.1-.08,3.16-.4,4.5-.41l.43,0h.19c.93,0,2.42-.43,3.61-.45a2.43,2.43,0,0,1,.71.09,5.88,5.88,0,0,1,1.33.47,1.64,1.64,0,0,1,.92,1.45,1.43,1.43,0,0,1,0,.29,2.6,2.6,0,0,1-1.86,2l-.1,0h-.11c-2.72.09-4.35.41-7.1.43l-2.61.3c0,1,0,2,0,3l1-.06c.3,0,.62,0,.94,0a27.35,27.35,0,0,1,3.31.22h.36a3,3,0,0,1,2.05.49,1.74,1.74,0,0,1,.63,1.28,5.75,5.75,0,0,1-.21,1.07,1.15,1.15,0,0,1-.73.89c-.27.09-.33.09-.36.11l-.14,0h-.14c-1,0-1.41.06-1.75.06s-.53,0-1.09,0h-.85l-3,.18c0,.57,0,1.34,0,1.89a7.32,7.32,0,0,1-.26,1.65,4.21,4.21,0,0,0,.66-.09l.11,0,4.25.18a9.44,9.44,0,0,1,1.74-.14,13.5,13.5,0,0,1,1.73.09h.11a10.71,10.71,0,0,1,2.9.54c.25.15.41,0,.74.48h0a1.8,1.8,0,0,1,.32,1.17,3,3,0,0,1-.2,1.22h0a1.52,1.52,0,0,1-.83.94l-.14.06h-.14c-1.07.05-2.11.05-3.14.05h-4s-.51,0-1.29,0-1.45,0-2.34-.08"/><path class="cls-4" d="M289.87,146.7a2.18,2.18,0,0,1,.07.52A5,5,0,0,1,288.5,150h0l-.07.12-.1.11a13.66,13.66,0,0,0-1.68,2.48c-.25.27-.45.94-.87,1.65-.43,1.05-1.07,1.66-1.22,2.17l-.12.6v.22c0,.61,0,1.22,0,1.82,0,.22,0,.44,0,.7l0,1.17a17.42,17.42,0,0,1,.18,2.07,2.61,2.61,0,0,1-.24,1.26,2.54,2.54,0,0,1-2.11,1.09h0a2.46,2.46,0,0,1-1.61-.61c-.91-.91-.84-2.14-.9-3.35s.11-2.17.1-2.54c0-.67-.09-1.72-.15-2.2-.59-.64-1.62-1.79-1.64-1.77l-.08-.07-.06-.07a57,57,0,0,0-4.6-5.28,3.86,3.86,0,0,1-1.71-2.68,2.5,2.5,0,0,1,1-1.88,1.88,1.88,0,0,1,1.25-.51c1.22.08,1.82,1,2.42,1.76s1.11,1.71,1.46,2.08c1.13,1.22,1.44,1.84,2.24,2.71a26.92,26.92,0,0,0,2,2c.5-.78.9-1.77,1.31-2.52s.29-1,1-2.19a17.79,17.79,0,0,1,1.49-2.3,2.48,2.48,0,0,1,1.94-.68,2.14,2.14,0,0,1,2.23,1.37"/></g></g></svg>