<svg xmlns="http://www.w3.org/2000/svg" viewBox="0 0 1445.67 737.01"><defs><style>.cls-1{fill:#a5c550;}.cls-2{fill:#fff;}</style></defs><g id="Layer_2" data-name="Layer 2"><g id="Layer_1-2" data-name="Layer 1"><rect class="cls-1" width="1445.67" height="737.01"/><path class="cls-2" d="M179.71,152.56a35.13,35.13,0,1,1-35.12-35.13A35.13,35.13,0,0,1,179.71,152.56Z"/><path class="cls-2" d="M613.22,152.56a35.13,35.13,0,1,1-35.13-35.13A35.13,35.13,0,0,1,613.22,152.56Z"/><path class="cls-2" d="M685.51,152.56a35.13,35.13,0,1,1-35.13-35.13A35.13,35.13,0,0,1,685.51,152.56Z"/><path class="cls-2" d="M757.58,152.56a35.13,35.13,0,1,1-35.13-35.13A35.13,35.13,0,0,1,757.58,152.56Z"/><path class="cls-2" d="M829.87,152.56a35.13,35.13,0,1,1-35.13-35.13A35.13,35.13,0,0,1,829.87,152.56Z"/><path class="cls-2" d="M902.7,152.56a35.13,35.13,0,1,1-35.13-35.13A35.13,35.13,0,0,1,902.7,152.56Z"/><path class="cls-2" d="M1047.55,152.56a35.14,35.14,0,1,1-35.13-35.13A35.13,35.13,0,0,1,1047.55,152.56Z"/><path class="cls-2" d="M1336.5,152.56a35.14,35.14,0,1,1-35.14-35.13A35.14,35.14,0,0,1,1336.5,152.56Z"/><path class="cls-2" d="M214.85,188.48a35.92,35.92,0,1,1,35.92-35.92A36,36,0,0,1,214.85,188.48Zm0-70.26a34.35,34.35,0,1,0,34.35,34.34A34.39,34.39,0,0,0,214.85,118.22Z"/><path class="cls-2" d="M287.38,188.48a35.92,35.92,0,1,1,35.92-35.92A36,36,0,0,1,287.38,188.48Zm0-70.26a34.35,34.35,0,1,0,34.34,34.34A34.38,34.38,0,0,0,287.38,118.22Z"/><path class="cls-2" d="M360.06,188.48A35.92,35.92,0,1,1,396,152.56,36,36,0,0,1,360.06,188.48Zm0-70.26a34.35,34.35,0,1,0,34.35,34.34A34.39,34.39,0,0,0,360.06,118.22Z"/><path class="cls-2" d="M432.59,188.48a35.92,35.92,0,1,1,35.92-35.92A36,36,0,0,1,432.59,188.48Zm0-70.26a34.35,34.35,0,1,0,34.35,34.34A34.39,34.39,0,0,0,432.59,118.22Z"/><path class="cls-2" d="M505.37,188.48a35.92,35.92,0,1,1,35.92-35.92A36,36,0,0,1,505.37,188.48Zm0-70.26a34.35,34.35,0,1,0,34.35,34.34A34.38,34.38,0,0,0,505.37,118.22Z"/><path class="cls-2" d="M939.79,188.48a35.92,35.92,0,1,1,35.93-35.92A36,36,0,0,1,939.79,188.48Zm0-70.26a34.35,34.35,0,1,0,34.35,34.34A34.39,34.39,0,0,0,939.79,118.22Z"/><path class="cls-2" d="M1084.77,188.48a35.92,35.92,0,1,1,35.92-35.92A36,36,0,0,1,1084.77,188.48Zm0-70.26a34.35,34.35,0,1,0,34.34,34.34A34.39,34.39,0,0,0,1084.77,118.22Z"/><path class="cls-2" d="M1157.26,188.48a35.92,35.92,0,1,1,35.92-35.92A36,36,0,0,1,1157.26,188.48Zm0-70.26a34.35,34.35,0,1,0,34.35,34.34A34.38,34.38,0,0,0,1157.26,118.22Z"/><path class="cls-2" d="M1229.46,188.48a35.92,35.92,0,1,1,35.91-35.92A36,36,0,0,1,1229.46,188.48Zm0-70.26a34.35,34.35,0,1,0,34.35,34.34A34.39,34.39,0,0,0,1229.46,118.22Z"/><path class="cls-2" d="M179.71,225.4a35.13,35.13,0,1,1-35.12-35.14A35.12,35.12,0,0,1,179.71,225.4Z"/><path class="cls-2" d="M578.09,261.32A35.92,35.92,0,1,1,614,225.4,36,36,0,0,1,578.09,261.32Zm0-70.27a34.35,34.35,0,1,0,34.35,34.35A34.38,34.38,0,0,0,578.09,191.05Z"/><path class="cls-2" d="M650.38,261.32A35.92,35.92,0,1,1,686.3,225.4,36,36,0,0,1,650.38,261.32Zm0-70.27a34.35,34.35,0,1,0,34.35,34.35A34.39,34.39,0,0,0,650.38,191.05Z"/><path class="cls-2" d="M757.58,225.4a35.13,35.13,0,1,1-35.13-35.14A35.13,35.13,0,0,1,757.58,225.4Z"/><path class="cls-2" d="M794.74,261.32a35.92,35.92,0,1,1,35.92-35.92A36,36,0,0,1,794.74,261.32Zm0-70.27a34.35,34.35,0,1,0,34.34,34.35A34.39,34.39,0,0,0,794.74,191.05Z"/><path class="cls-2" d="M867.57,261.32a35.92,35.92,0,1,1,35.92-35.92A36,36,0,0,1,867.57,261.32Zm0-70.27a34.35,34.35,0,1,0,34.35,34.35A34.38,34.38,0,0,0,867.57,191.05Z"/><path class="cls-2" d="M1047.55,225.4a35.14,35.14,0,1,1-35.13-35.14A35.13,35.13,0,0,1,1047.55,225.4Z"/><path class="cls-2" d="M1336.5,225.4a35.14,35.14,0,1,1-35.14-35.14A35.13,35.13,0,0,1,1336.5,225.4Z"/><path class="cls-2" d="M214.85,261.32a35.92,35.92,0,1,1,35.92-35.92A36,36,0,0,1,214.85,261.32Zm0-70.27A34.35,34.35,0,1,0,249.2,225.4,34.39,34.39,0,0,0,214.85,191.05Z"/><path class="cls-2" d="M287.38,261.32A35.92,35.92,0,1,1,323.3,225.4,36,36,0,0,1,287.38,261.32Zm0-70.27a34.35,34.35,0,1,0,34.34,34.35A34.38,34.38,0,0,0,287.38,191.05Z"/><path class="cls-2" d="M360.06,261.32A35.92,35.92,0,1,1,396,225.4,36,36,0,0,1,360.06,261.32Zm0-70.27a34.35,34.35,0,1,0,34.35,34.35A34.39,34.39,0,0,0,360.06,191.05Z"/><path class="cls-2" d="M432.59,261.32a35.92,35.92,0,1,1,35.92-35.92A36,36,0,0,1,432.59,261.32Zm0-70.27a34.35,34.35,0,1,0,34.35,34.35A34.39,34.39,0,0,0,432.59,191.05Z"/><path class="cls-2" d="M505.37,261.32a35.92,35.92,0,1,1,35.92-35.92A36,36,0,0,1,505.37,261.32Zm0-70.27a34.35,34.35,0,1,0,34.35,34.35A34.38,34.38,0,0,0,505.37,191.05Z"/><path class="cls-2" d="M939.79,261.32a35.92,35.92,0,1,1,35.93-35.92A36,36,0,0,1,939.79,261.32Zm0-70.27a34.35,34.35,0,1,0,34.35,34.35A34.39,34.39,0,0,0,939.79,191.05Z"/><path class="cls-2" d="M1119.9,225.4a35.14,35.14,0,1,1-35.13-35.14A35.13,35.13,0,0,1,1119.9,225.4Z"/><path class="cls-2" d="M1157.26,261.32a35.92,35.92,0,1,1,35.92-35.92A36,36,0,0,1,1157.26,261.32Zm0-70.27a34.35,34.35,0,1,0,34.35,34.35A34.38,34.38,0,0,0,1157.26,191.05Z"/><path class="cls-2" d="M1264.59,225.4a35.13,35.13,0,1,1-35.13-35.14A35.13,35.13,0,0,1,1264.59,225.4Z"/><path class="cls-2" d="M179.71,297.9a35.13,35.13,0,1,1-35.12-35.13A35.13,35.13,0,0,1,179.71,297.9Z"/><path class="cls-2" d="M578.09,333.83A35.92,35.92,0,1,1,614,297.9,36,36,0,0,1,578.09,333.83Zm0-70.27a34.35,34.35,0,1,0,34.35,34.34A34.38,34.38,0,0,0,578.09,263.56Z"/><path class="cls-2" d="M650.38,333.83A35.92,35.92,0,1,1,686.3,297.9,36,36,0,0,1,650.38,333.83Zm0-70.27a34.35,34.35,0,1,0,34.35,34.34A34.39,34.39,0,0,0,650.38,263.56Z"/><path class="cls-2" d="M757.58,297.9a35.13,35.13,0,1,1-35.13-35.13A35.13,35.13,0,0,1,757.58,297.9Z"/><path class="cls-2" d="M794.74,333.83a35.92,35.92,0,1,1,35.92-35.93A36,36,0,0,1,794.74,333.83Zm0-70.27a34.35,34.35,0,1,0,34.34,34.34A34.39,34.39,0,0,0,794.74,263.56Z"/><path class="cls-2" d="M867.57,333.83a35.92,35.92,0,1,1,35.92-35.93A36,36,0,0,1,867.57,333.83Zm0-70.27a34.35,34.35,0,1,0,34.35,34.34A34.38,34.38,0,0,0,867.57,263.56Z"/><path class="cls-2" d="M1047.55,297.9a35.14,35.14,0,1,1-35.13-35.13A35.13,35.13,0,0,1,1047.55,297.9Z"/><path class="cls-2" d="M1336.5,297.9a35.14,35.14,0,1,1-35.14-35.13A35.14,35.14,0,0,1,1336.5,297.9Z"/><path class="cls-2" d="M214.85,333.83a35.92,35.92,0,1,1,35.92-35.93A36,36,0,0,1,214.85,333.83Zm0-70.27A34.35,34.35,0,1,0,249.2,297.9,34.39,34.39,0,0,0,214.85,263.56Z"/><path class="cls-2" d="M287.38,333.83A35.92,35.92,0,1,1,323.3,297.9,36,36,0,0,1,287.38,333.83Zm0-70.27a34.35,34.35,0,1,0,34.34,34.34A34.38,34.38,0,0,0,287.38,263.56Z"/><path class="cls-2" d="M360.06,333.83A35.92,35.92,0,1,1,396,297.9,36,36,0,0,1,360.06,333.83Zm0-70.27a34.35,34.35,0,1,0,34.35,34.34A34.39,34.39,0,0,0,360.06,263.56Z"/><path class="cls-2" d="M432.59,333.83a35.92,35.92,0,1,1,35.92-35.93A36,36,0,0,1,432.59,333.83Zm0-70.27a34.35,34.35,0,1,0,34.35,34.34A34.39,34.39,0,0,0,432.59,263.56Z"/><path class="cls-2" d="M505.37,333.83a35.92,35.92,0,1,1,35.92-35.93A36,36,0,0,1,505.37,333.83Zm0-70.27a34.35,34.35,0,1,0,34.35,34.34A34.38,34.38,0,0,0,505.37,263.56Z"/><path class="cls-2" d="M939.79,333.83a35.92,35.92,0,1,1,35.93-35.93A36,36,0,0,1,939.79,333.83Zm0-70.27a34.35,34.35,0,1,0,34.35,34.34A34.39,34.39,0,0,0,939.79,263.56Z"/><path class="cls-2" d="M1084.77,333.83a35.92,35.92,0,1,1,35.92-35.93A36,36,0,0,1,1084.77,333.83Zm0-70.27a34.35,34.35,0,1,0,34.34,34.34A34.39,34.39,0,0,0,1084.77,263.56Z"/><circle class="cls-2" cx="1157.26" cy="297.9" r="35.13" transform="translate(778.06 1431.13) rotate(-85.93)"/><path class="cls-2" d="M1229.46,333.83a35.92,35.92,0,1,1,35.91-35.93A36,36,0,0,1,1229.46,333.83Zm0-70.27a34.35,34.35,0,1,0,34.35,34.34A34.39,34.39,0,0,0,1229.46,263.56Z"/><path class="cls-2" d="M179.71,371.4a35.13,35.13,0,1,1-35.12-35.14A35.12,35.12,0,0,1,179.71,371.4Z"/><path class="cls-2" d="M578.09,407.31A35.92,35.92,0,1,1,614,371.4,36,36,0,0,1,578.09,407.31Zm0-70.26a34.35,34.35,0,1,0,34.35,34.35A34.38,34.38,0,0,0,578.09,337.05Z"/><path class="cls-2" d="M650.38,407.31A35.92,35.92,0,1,1,686.3,371.4,36,36,0,0,1,650.38,407.31Zm0-70.26a34.35,34.35,0,1,0,34.35,34.35A34.39,34.39,0,0,0,650.38,337.05Z"/><path class="cls-2" d="M757.58,371.4a35.13,35.13,0,1,1-35.13-35.14A35.13,35.13,0,0,1,757.58,371.4Z"/><path class="cls-2" d="M794.74,407.31a35.92,35.92,0,1,1,35.92-35.91A36,36,0,0,1,794.74,407.31Zm0-70.26a34.35,34.35,0,1,0,34.34,34.35A34.39,34.39,0,0,0,794.74,337.05Z"/><path class="cls-2" d="M867.57,407.31a35.92,35.92,0,1,1,35.92-35.91A36,36,0,0,1,867.57,407.31Zm0-70.26a34.35,34.35,0,1,0,34.35,34.35A34.38,34.38,0,0,0,867.57,337.05Z"/><path class="cls-2" d="M1047.55,371.4a35.14,35.14,0,1,1-35.13-35.14A35.13,35.13,0,0,1,1047.55,371.4Z"/><path class="cls-2" d="M1336.5,371.4a35.14,35.14,0,1,1-35.14-35.14A35.13,35.13,0,0,1,1336.5,371.4Z"/><path class="cls-2" d="M214.85,407.31a35.92,35.92,0,1,1,35.92-35.91A36,36,0,0,1,214.85,407.31Zm0-70.26A34.35,34.35,0,1,0,249.2,371.4,34.39,34.39,0,0,0,214.85,337.05Z"/><path class="cls-2" d="M287.38,407.31A35.92,35.92,0,1,1,323.3,371.4,36,36,0,0,1,287.38,407.31Zm0-70.26a34.35,34.35,0,1,0,34.34,34.35A34.38,34.38,0,0,0,287.38,337.05Z"/><path class="cls-2" d="M360.06,407.31A35.92,35.92,0,1,1,396,371.4,36,36,0,0,1,360.06,407.31Zm0-70.26a34.35,34.35,0,1,0,34.35,34.35A34.39,34.39,0,0,0,360.06,337.05Z"/><path class="cls-2" d="M432.59,407.31a35.92,35.92,0,1,1,35.92-35.91A36,36,0,0,1,432.59,407.31Zm0-70.26a34.35,34.35,0,1,0,34.35,34.35A34.39,34.39,0,0,0,432.59,337.05Z"/><path class="cls-2" d="M505.37,407.31a35.92,35.92,0,1,1,35.92-35.91A36,36,0,0,1,505.37,407.31Zm0-70.26a34.35,34.35,0,1,0,34.35,34.35A34.38,34.38,0,0,0,505.37,337.05Z"/><path class="cls-2" d="M939.79,407.31a35.92,35.92,0,1,1,35.93-35.91A36,36,0,0,1,939.79,407.31Zm0-70.26a34.35,34.35,0,1,0,34.35,34.35A34.39,34.39,0,0,0,939.79,337.05Z"/><path class="cls-2" d="M1084.77,407.31a35.92,35.92,0,1,1,35.92-35.91A36,36,0,0,1,1084.77,407.31Zm0-70.26a34.35,34.35,0,1,0,34.34,34.35A34.39,34.39,0,0,0,1084.77,337.05Z"/><path class="cls-2" d="M1157.26,407.31a35.92,35.92,0,1,1,35.92-35.91A36,36,0,0,1,1157.26,407.31Zm0-70.26a34.35,34.35,0,1,0,34.35,34.35A34.38,34.38,0,0,0,1157.26,337.05Z"/><path class="cls-2" d="M1229.46,407.31a35.92,35.92,0,1,1,35.91-35.91A36,36,0,0,1,1229.46,407.31Zm0-70.26a34.35,34.35,0,1,0,34.35,34.35A34.39,34.39,0,0,0,1229.46,337.05Z"/><path class="cls-2" d="M179.71,445.55a35.13,35.13,0,1,1-35.12-35.14A35.12,35.12,0,0,1,179.71,445.55Z"/><path class="cls-2" d="M613.22,445.55a35.13,35.13,0,1,1-35.13-35.14A35.12,35.12,0,0,1,613.22,445.55Z"/><path class="cls-2" d="M685.51,445.55a35.13,35.13,0,1,1-35.13-35.14A35.12,35.12,0,0,1,685.51,445.55Z"/><path class="cls-2" d="M757.58,445.55a35.13,35.13,0,1,1-35.13-35.14A35.12,35.12,0,0,1,757.58,445.55Z"/><path class="cls-2" d="M829.87,445.55a35.13,35.13,0,1,1-35.13-35.14A35.12,35.12,0,0,1,829.87,445.55Z"/><path class="cls-2" d="M902.7,445.55a35.13,35.13,0,1,1-35.13-35.14A35.12,35.12,0,0,1,902.7,445.55Z"/><path class="cls-2" d="M1047.55,445.55a35.14,35.14,0,1,1-35.13-35.14A35.12,35.12,0,0,1,1047.55,445.55Z"/><path class="cls-2" d="M1336.5,445.55a35.14,35.14,0,1,1-35.14-35.14A35.13,35.13,0,0,1,1336.5,445.55Z"/><path class="cls-2" d="M250,445.55a35.14,35.14,0,1,1-35.13-35.14A35.12,35.12,0,0,1,250,445.55Z"/><path class="cls-2" d="M322.51,445.55a35.13,35.13,0,1,1-35.13-35.14A35.12,35.12,0,0,1,322.51,445.55Z"/><path class="cls-2" d="M395.19,445.55a35.13,35.13,0,1,1-35.13-35.14A35.12,35.12,0,0,1,395.19,445.55Z"/><path class="cls-2" d="M467.72,445.55a35.13,35.13,0,1,1-35.13-35.14A35.12,35.12,0,0,1,467.72,445.55Z"/><path class="cls-2" d="M505.37,481.46a35.92,35.92,0,1,1,35.92-35.91A36,36,0,0,1,505.37,481.46Zm0-70.26a34.35,34.35,0,1,0,34.35,34.35A34.38,34.38,0,0,0,505.37,411.2Z"/><path class="cls-2" d="M939.79,481.46a35.92,35.92,0,1,1,35.93-35.91A36,36,0,0,1,939.79,481.46Zm0-70.26a34.35,34.35,0,1,0,34.35,34.35A34.39,34.39,0,0,0,939.79,411.2Z"/><path class="cls-2" d="M1084.77,481.46a35.92,35.92,0,1,1,35.92-35.91A36,36,0,0,1,1084.77,481.46Zm0-70.26a34.35,34.35,0,1,0,34.34,34.35A34.39,34.39,0,0,0,1084.77,411.2Z"/><path class="cls-2" d="M1157.26,481.46a35.92,35.92,0,1,1,35.92-35.91A36,36,0,0,1,1157.26,481.46Zm0-70.26a34.35,34.35,0,1,0,34.35,34.35A34.38,34.38,0,0,0,1157.26,411.2Z"/><path class="cls-2" d="M1229.46,481.46a35.92,35.92,0,1,1,35.91-35.91A36,36,0,0,1,1229.46,481.46Zm0-70.26a34.35,34.35,0,1,0,34.35,34.35A34.39,34.39,0,0,0,1229.46,411.2Z"/><path class="cls-2" d="M109.17,632.17V508.76h16.36V617.61h60.88v14.56Z"/><path class="cls-2" d="M193.19,632.17V508.76h16.73V632.17Z"/><path class="cls-2" d="M577.79,632.17V508.76h16.73V632.17Z"/><path class="cls-2" d="M1088.94,632.17V508.76h16.73V632.17Z"/><path class="cls-2" d="M343.09,632.17V508.81h15.85v50.66h62.27V508.81h15.86V632.17H421.21V574H358.94v58.15Z"/><path class="cls-2" d="M482.63,633V523.46H443.11V508.81h95.08v14.65H498.5V633Z"/><path class="cls-2" d="M1025.93,633V523.46H986.41V508.81h95.08v14.65h-39.68V633Z"/><path class="cls-2" d="M608.83,632.39V508.81h16.31l63.09,97v-97h15.24V632.39h-16.3l-63.09-97.11v97.11Z"/><path class="cls-2" d="M1238.24,632.39V508.81h16.3l63.09,97v-97h15.25V632.39h-16.31l-63.09-97.11v97.11Z"/><path class="cls-2" d="M750.62,632.39V508.81h23.57l28,87.5q3.88,12.23,5.65,18.29,2-6.75,6.31-19.81l28.33-86h21.08V632.39h-15.1V529l-34.4,103.43H800L765.72,527.18V632.39Z"/><path class="cls-2" d="M872.11,572.54q0-29.84,16.37-46.73t42.28-16.89a59.72,59.72,0,0,1,30.57,7.93A52.25,52.25,0,0,1,982.09,539q7.14,14.17,7.14,32.17,0,18.24-7.52,32.63a50.74,50.74,0,0,1-21.3,21.8,61.94,61.94,0,0,1-29.74,7.4,58.88,58.88,0,0,1-30.91-8.18,53,53,0,0,1-20.63-22.32A66.37,66.37,0,0,1,872.11,572.54Zm16.7.25q0,21.68,11.9,34.14t29.87,12.47q18.3,0,30.12-12.59t11.82-35.74q0-14.64-5-25.56a38.29,38.29,0,0,0-14.79-16.92,40.69,40.69,0,0,0-21.85-6,41.89,41.89,0,0,0-29.6,11.57Q888.81,545.72,888.81,572.79Z"/><path class="cls-2" d="M1115.7,572.54q0-29.84,16.39-46.73t42.26-16.89a59.71,59.71,0,0,1,30.58,7.93A52.31,52.31,0,0,1,1225.69,539q7.14,14.17,7.14,32.17,0,18.24-7.52,32.63a50.74,50.74,0,0,1-21.3,21.8,61.94,61.94,0,0,1-29.74,7.4,58.88,58.88,0,0,1-30.91-8.18,53.1,53.1,0,0,1-20.64-22.32A66.5,66.5,0,0,1,1115.7,572.54Zm16.72.25q0,21.68,11.9,34.14t29.86,12.47q18.3,0,30.12-12.59t11.83-35.74q0-14.64-5.06-25.56a38.29,38.29,0,0,0-14.79-16.92,40.71,40.71,0,0,0-21.85-6,41.93,41.93,0,0,0-29.61,11.57Q1132.42,545.72,1132.42,572.79Z"/><path class="cls-2" d="M276.39,565.67v14.57H312v16.22c-1.85,10.83-19.07,25-34,25a46,46,0,0,1-21.78-5.42,35.57,35.57,0,0,1-15.61-16.61q-5.37-11.19-5.37-27.8a68.91,68.91,0,0,1,4.45-25A43.66,43.66,0,0,1,247,534.4a34.22,34.22,0,0,1,12.44-9,44.8,44.8,0,0,1,18.28-3.43,38.5,38.5,0,0,1,16.05,3.27,27,27,0,0,1,11.13,8.68q3.9,5.43,6.52,14.91l13.91-4.06q-3-12.54-8.83-20.34a38,38,0,0,0-16-12.16,57.61,57.61,0,0,0-22.85-4.36q-17.4,0-30.75,7.62T226.4,538.85a81.16,81.16,0,0,0-7.11,33.85,75.23,75.23,0,0,0,7.15,33.13,50.32,50.32,0,0,0,21.18,22.67c9.35,5.22,19.75,5.42,31.19,5.42,15.16,0,30.62-15,34.9-17.77l1.72,16h11.62V565.59Z"/></g></g></svg>