<svg xmlns="http://www.w3.org/2000/svg" viewBox="0 0 435.83 413.83"><defs><style>.cls-1{fill:#37ab4e;}.cls-2,.cls-3{fill:#2a4b9a;}.cls-3{font-size:31.2px;stroke:#2a4b9a;stroke-miterlimit:10;stroke-width:0.25px;font-family:NuevaStd-BoldCondItalic, Nueva Std;font-weight:700;font-style:italic;}</style></defs><g id="Layer_2" data-name="Layer 2"><g id="Layer_2-2" data-name="Layer 2"><polygon class="cls-1" points="287.24 358.1 287.24 307.58 435.83 307.58 435.83 264.49 287.24 264.49 287.24 213.97 435.83 213.97 435.83 171.62 287.24 171.62 287.24 121.1 435.83 121.1 435.83 82.47 287.24 82.47 287.24 31.95 435.83 31.95 435.83 0 0 0 0 413.83 435.83 413.83 435.83 358.1 287.24 358.1"/></g><g id="Layer_3" data-name="Layer 3"><path class="cls-2" d="M309.25,205.06c35.94-7.25,45.41-29.26,43.18-49.88s-23.95-29.53-37.89-29.53H291l-1,14.49a22.12,22.12,0,0,1,7.52,1.67c6.69,3.34,2.78,33.16,0,41.51s-7,13.66-18.95,14.21l-1.67,16.16,8.08.56c9.2,3.06,3.9,31.2-.28,46.53s-21.17,18.94-21.17,18.94L263,290.31h32.87C355.5,276.1,351.88,210.07,309.25,205.06Z"/><path class="cls-2" d="M281.67,125.65H220.1c-6.13,0-7.25,12.82-2.18,13.65,8.12,1.68,7.19,6.13,7.19,6.13l-19.5,116.18s0,10.31-10.66,16.16-1.88,12.54-1.88,12.54h61.11Z"/><path class="cls-2" d="M105.45,278.93c-9.49-2.65-20.71-9.87-25.12-27.25-1.86-12.26-2-20.06-5.2-22.1s-8.92-1.86-11.89,8.35-10.4,49.6-7.62,53.5S61,293.65,61,293.65c7.24-2.23,8.36-6.13,8.36-6.13s2.6-4.64,9.47,0c3.69,2.5,12.91,5.66,25.41,6.21Z"/><path class="cls-2" d="M122.26,146.55c4.7-6,9.81-9,14.9-10V120.34a69.61,69.61,0,0,0-31.57,9.49c-41.47,23.55-32.69,65.75-30.28,73.93s11.52,22.29,47.92,37c30.28,16.71,5,39.37-8,39.56h-.44l-1.08,13.35a95.34,95.34,0,0,0,28.82-6.47c30.83-12.07,53.49-54.23,33.25-84.51C155.05,171.62,102.52,176.64,122.26,146.55Z"/><path class="cls-2" d="M186.57,124.45c-7.24,5.75-11.89,7-17.83,3.34,0,0-7.94-5.25-20.8-7v16.7c12.61,4.33,23.17,18.88,24.51,29.27-.18,10.41,2,20.06,11.05,14.12,7.53-5,11.43-48.11,11.43-48.11S195.86,119.62,186.57,124.45Z"/><path class="cls-2" d="M379.58,100.34c-16.83,0-30.47,11.93-30.47,26.65s13.64,26.66,30.47,26.66S410,141.71,410,127,396.4,100.34,379.58,100.34Zm0,47.46c-13.54,0-24.52-9.32-24.52-20.81s11-20.8,24.52-20.8,24.51,9.31,24.51,20.8S393.12,147.8,379.58,147.8Z"/><text class="cls-3" transform="translate(363.74 136.38)">TM</text></g></g></svg>