<svg xmlns="http://www.w3.org/2000/svg" viewBox="0 0 209.52 72.75"><defs><style>.cls-1{fill:#e02e27;}.cls-2{fill:#1e3c70;}</style></defs><g id="Layer_2" data-name="Layer 2"><g id="圖層_1" data-name="圖層 1"><path class="cls-1" d="M31.36,64.5l-.78,3.9a6.47,6.47,0,0,0-.15,1.18.8.8,0,0,0,.38.7,3.82,3.82,0,0,1-1,.2c-.41,0-.61-.16-.61-.49a9.11,9.11,0,0,1,.36-1.92L30.86,63l-.24-.75a3.33,3.33,0,0,0-.81-1.53,1.94,1.94,0,0,1,1-.36q.33,0,.57.51c.15.35.44,1.22.86,2.62.08.28.15.51.2.67l.11.29c.6,1.76,1.13,2.64,1.57,2.64s1.17-.71,2-2.13a8.68,8.68,0,0,0,1.42-3.51,3.72,3.72,0,0,1,1-.22c.39,0,.58.22.58.65,0,.14,0,.53-.13,1.18s-.15,1.07-.19,1.43l-.41,3.87a7.26,7.26,0,0,0,0,.8q0,1.17.48,1.47a2,2,0,0,1-1.05.43c-.47,0-.7-.49-.7-1.47a14.14,14.14,0,0,1,.09-1.44l.52-4.91a12.79,12.79,0,0,1-1.83,3.62c-.74,1-1.41,1.49-2,1.49s-.92-.34-1.37-1A10.21,10.21,0,0,1,31.36,64.5Z"/><path class="cls-1" d="M46.39,66.63a9.61,9.61,0,0,1-1.88,2.67,3.05,3.05,0,0,1-1.94,1.11,1.17,1.17,0,0,1-1-.56,2.69,2.69,0,0,1-.38-1.5,5.1,5.1,0,0,1,1.13-3.27,3.27,3.27,0,0,1,2.61-1.42,4.19,4.19,0,0,1,1.94.56c.1-.37.52-.55,1.26-.55h.23a4,4,0,0,0-.51,1.42l-.11.5a10.44,10.44,0,0,0-.17,2c0,.86.2,1.3.61,1.3a3.06,3.06,0,0,0,1.75-1.08,14.5,14.5,0,0,0,2.19-2.73l.47.33a13.5,13.5,0,0,1-2.52,3.27A4,4,0,0,1,47.63,70c-.85,0-1.28-.72-1.28-2.14C46.35,67.53,46.36,67.13,46.39,66.63Zm.28-1.42a4.18,4.18,0,0,0-2.08-.82A1.85,1.85,0,0,0,43,65.48a4.91,4.91,0,0,0-.66,2.59c0,.8.26,1.2.79,1.2s1.65-1.24,3.25-3.73Z"/><path class="cls-1" d="M53.27,66.87,53,68.28a6.65,6.65,0,0,0-.15,1.3,1.3,1.3,0,0,0,.16.62,3.14,3.14,0,0,1-.92.21c-.32,0-.49-.19-.49-.56a8.54,8.54,0,0,1,.2-1.42l1.45-7.33a2.79,2.79,0,0,1-.93.19c-.46,0-.69-.21-.69-.62a3.69,3.69,0,0,1,.11-.74,1.43,1.43,0,0,0,1.05.43,4.51,4.51,0,0,0,1.87-.51l-1.31,6.7a13.83,13.83,0,0,1,2-2,3.38,3.38,0,0,1,1.56-.88c.18,0,.39.27.63.8a4.42,4.42,0,0,0-1.59.65,8,8,0,0,0-1.65,1.21q1.5,2.37,2.61,2.37a1.73,1.73,0,0,0,1-.38,8.83,8.83,0,0,0,1.33-1.4,14.89,14.89,0,0,0,1.29-1.82l.5.28a14.42,14.42,0,0,1-2.29,3.22,3.28,3.28,0,0,1-2.08,1.23,3,3,0,0,1-1.78-.9A7.35,7.35,0,0,1,53.27,66.87Z"/><path class="cls-1" d="M61.23,67.78q0,1.74,1.47,1.74a4.73,4.73,0,0,0,2.82-1.21,12.27,12.27,0,0,0,2.77-3.21l.51.28a11.08,11.08,0,0,1-3,3.6,5.92,5.92,0,0,1-3.53,1.43,2.14,2.14,0,0,1-1.69-.69,2.69,2.69,0,0,1-.62-1.89,4.17,4.17,0,0,1,1.12-2.94,3.56,3.56,0,0,1,2.72-1.23,1.82,1.82,0,0,1,1.22.39,1.27,1.27,0,0,1,.46,1A2.27,2.27,0,0,1,64.17,67,5.29,5.29,0,0,1,61.23,67.78Zm.05-.57a3.9,3.9,0,0,0,2.13-.71A1.84,1.84,0,0,0,64.29,65c0-.51-.22-.76-.67-.76a1.94,1.94,0,0,0-1.5.87A4.21,4.21,0,0,0,61.28,67.21Z"/><path class="cls-1" d="M71.29,68.17a2,2,0,0,1,.2.86,2,2,0,0,1-.76,1.58,2.59,2.59,0,0,1-1.78.68,1.71,1.71,0,0,1-1-.31.92.92,0,0,1-.42-.75,1.28,1.28,0,0,1,.57-.93,10,10,0,0,1,2-1.13l-.48-.77a4.65,4.65,0,0,1-.87-2.18A2.06,2.06,0,0,1,70,63.4c.53.21.8.47.8.78s-.34.87-1,1.28l.68,1.24.53,1a13.21,13.21,0,0,0,1.71-1.16A15.29,15.29,0,0,0,74.15,65l.47.29A10.5,10.5,0,0,1,71.29,68.17Zm-1,.53c-1.16.63-1.75,1.11-1.75,1.46s.24.48.71.48a1.09,1.09,0,0,0,.85-.35,1.29,1.29,0,0,0,.33-.91A1.88,1.88,0,0,0,70.28,68.7Z"/><path class="cls-1" d="M82.81,67.91a1.15,1.15,0,0,1,.16.51c0,.38-.33.81-1,1.28a3.16,3.16,0,0,1-1.79.71A1.38,1.38,0,0,1,79,69.77a2.77,2.77,0,0,1-.45-1.64A12.78,12.78,0,0,1,79.17,65l.27-1h-1a2.37,2.37,0,0,0-1,.18,2.39,2.39,0,0,1,.57-.78,1.36,1.36,0,0,1,.77-.16h.9l.12-.41a2.8,2.8,0,0,1,.65-1.27,1.69,1.69,0,0,1,1.14-.34h.29a7.81,7.81,0,0,0-1,2H84A3,3,0,0,0,85.3,63a1.48,1.48,0,0,1-.39.8A1.7,1.7,0,0,1,84,64H80.65c0,.14-.07.23-.09.29a14.56,14.56,0,0,0-.72,3.7q0,1.38,1,1.38A2,2,0,0,0,82,68.89,2.62,2.62,0,0,0,82.81,67.91Z"/><path class="cls-1" d="M85.67,67.65q1.77-4,3.61-4a1.11,1.11,0,0,1,1.06.62,4.44,4.44,0,0,1,.33,2V67q0,1.86.54,1.89c.3,0,.76-.34,1.39-1.06a19.79,19.79,0,0,0,1.93-2.7l.49.27a14.12,14.12,0,0,1-2.17,3.23c-.81.87-1.47,1.32-2,1.32a1.1,1.1,0,0,1-1.06-.69A5.7,5.7,0,0,1,89.49,67v-.53c0-1.2-.2-1.8-.62-1.8-.58,0-1.32.81-2.22,2.41A11.13,11.13,0,0,0,85.28,70a.5.5,0,0,0,.11.29,1.38,1.38,0,0,1-.69.15c-.35,0-.53-.16-.53-.47a14.25,14.25,0,0,1,.37-2l.16-.77,1.22-6.13a2.32,2.32,0,0,1-.81.15c-.76,0-1.15-.46-1.15-1.36a2.17,2.17,0,0,0,1.33.42,5.14,5.14,0,0,0,2-.42l-1,4.91c0,.06-.19.79-.54,2.21C85.78,67.09,85.73,67.32,85.67,67.65Z"/><path class="cls-1" d="M95.19,67.78q0,1.74,1.47,1.74a4.73,4.73,0,0,0,2.82-1.21,12.27,12.27,0,0,0,2.77-3.21l.51.28a11.08,11.08,0,0,1-3,3.6,5.92,5.92,0,0,1-3.53,1.43,2.14,2.14,0,0,1-1.69-.69,2.69,2.69,0,0,1-.62-1.89A4.17,4.17,0,0,1,95,64.89a3.56,3.56,0,0,1,2.72-1.23,1.81,1.81,0,0,1,1.22.39,1.27,1.27,0,0,1,.46,1A2.27,2.27,0,0,1,98.13,67,5.29,5.29,0,0,1,95.19,67.78Zm0-.57a3.9,3.9,0,0,0,2.13-.71A1.84,1.84,0,0,0,98.25,65c0-.51-.22-.76-.67-.76a1.94,1.94,0,0,0-1.5.87A4.21,4.21,0,0,0,95.24,67.21Z"/><path class="cls-1" d="M111.46,66.78a11.51,11.51,0,0,1-1.94,2.65,2.85,2.85,0,0,1-1.81,1,1.16,1.16,0,0,1-1-.56,2.63,2.63,0,0,1-.38-1.49,5.12,5.12,0,0,1,1.12-3.29,3.25,3.25,0,0,1,2.6-1.41,4.09,4.09,0,0,1,1.93.57l.63-3.2a4.58,4.58,0,0,1-.86.11,1.06,1.06,0,0,1-.77-.25,2,2,0,0,1-.39-.93,2.37,2.37,0,0,0,1.31.29,5.7,5.7,0,0,0,2.12-.4l-1.29,6.51a9.44,9.44,0,0,0-.22,1.86c0,.68.19,1,.58,1s1-.44,1.9-1.33a15.69,15.69,0,0,0,2.21-2.8l.49.31A14.63,14.63,0,0,1,115,68.88a4.38,4.38,0,0,1-2.53,1.53c-.8,0-1.2-.65-1.2-1.93A10.49,10.49,0,0,1,111.46,66.78Zm.31-1.57a4.07,4.07,0,0,0-2-.82,1.86,1.86,0,0,0-1.55,1.1,5,5,0,0,0-.65,2.58c0,.8.26,1.2.79,1.2S110,68,111.55,65.54Z"/><path class="cls-1" d="M123.68,65.39A16.41,16.41,0,0,1,121,69.08a3.87,3.87,0,0,1-2.47,1.33,1.4,1.4,0,0,1-1.07-.44,1.61,1.61,0,0,1-.41-1.14,4.76,4.76,0,0,1,.12-.85l.13-.65a12,12,0,0,0,.29-2,.79.79,0,0,0-.2-.55,6.08,6.08,0,0,1,1-.18c.29,0,.44.21.44.62a7.64,7.64,0,0,1-.17,1.31l-.24,1.16a7.9,7.9,0,0,0-.17,1.08c0,.5.21.74.63.74s1.15-.42,2-1.25a16.49,16.49,0,0,0,2.4-3.17Zm-5.29-3h.09a3.22,3.22,0,0,0,1.14-.4,5.37,5.37,0,0,0,1.17-.78,3,3,0,0,1-.93,1.37,3.14,3.14,0,0,1-1.37.84c-.15,0-.23-.09-.23-.29A2,2,0,0,1,118.39,62.4Z"/><path class="cls-1" d="M123.52,65.53h-.12a2.71,2.71,0,0,0-1.55.44,1.65,1.65,0,0,1,.42-1,2.29,2.29,0,0,1,1.16-.2h.23l.2-1a5.52,5.52,0,0,1,1.27-2.88,3.3,3.3,0,0,1,2.39-1.09,1.57,1.57,0,0,1,.88.24.66.66,0,0,1,.37.57c0,.23-.25.49-.77.79-.14-.6-.46-.91-1-.91-.9,0-1.54,1-1.93,2.94l-.26,1.32h2.07a9.63,9.63,0,0,0,2.09-.16,1.33,1.33,0,0,1-.65.76,8.18,8.18,0,0,1-1.88.13h-1.78l-1,5.1a6.56,6.56,0,0,0-.15,1.29,1.33,1.33,0,0,0,.15.63,3.21,3.21,0,0,1-.91.2c-.33,0-.49-.19-.49-.56a8.37,8.37,0,0,1,.19-1.42Z"/><path class="cls-1" d="M128.52,65.53h-.12a2.65,2.65,0,0,0-1.54.44,1.54,1.54,0,0,1,.42-1,2.24,2.24,0,0,1,1.16-.2h.23l.19-1a5.69,5.69,0,0,1,1.27-2.88,3.3,3.3,0,0,1,2.4-1.09,1.59,1.59,0,0,1,.88.24.68.68,0,0,1,.37.57c0,.23-.26.49-.77.79-.14-.6-.47-.91-1-.91-.9,0-1.55,1-1.94,2.94l-.26,1.32h2.08a9.53,9.53,0,0,0,2.08-.16,1.3,1.3,0,0,1-.65.76,8.11,8.11,0,0,1-1.88.13h-1.78l-1,5.1a7.31,7.31,0,0,0-.14,1.29,1.33,1.33,0,0,0,.15.63,3.28,3.28,0,0,1-.91.2c-.33,0-.5-.19-.5-.56a8.68,8.68,0,0,1,.2-1.42Z"/><path class="cls-1" d="M133.85,67.78q0,1.74,1.47,1.74a4.7,4.7,0,0,0,2.82-1.21,12.29,12.29,0,0,0,2.78-3.21l.5.28a11,11,0,0,1-3,3.6,5.92,5.92,0,0,1-3.53,1.43,2.16,2.16,0,0,1-1.69-.69,2.74,2.74,0,0,1-.62-1.89,4.13,4.13,0,0,1,1.13-2.94,3.54,3.54,0,0,1,2.71-1.23,1.81,1.81,0,0,1,1.22.39,1.28,1.28,0,0,1,.47,1A2.28,2.28,0,0,1,136.79,67,5.29,5.29,0,0,1,133.85,67.78Zm.05-.57A3.85,3.85,0,0,0,136,66.5a1.85,1.85,0,0,0,.89-1.49c0-.51-.23-.76-.68-.76a1.9,1.9,0,0,0-1.49.87A4.13,4.13,0,0,0,133.9,67.21Z"/><path class="cls-1" d="M141.83,70.22a1.79,1.79,0,0,1-.65.19c-.41,0-.61-.18-.61-.54a10.51,10.51,0,0,1,.21-1.36l.3-1.48a10.86,10.86,0,0,0,.27-2,.82.82,0,0,0-.2-.58,3.48,3.48,0,0,1,1-.22c.28,0,.42.18.42.53a12.21,12.21,0,0,1-.3,1.72L142,68.26a14.82,14.82,0,0,1,2.26-3.39,3.05,3.05,0,0,1,2.06-1.21.85.85,0,0,1,.56.19.56.56,0,0,1,.24.45q0,.42-.9,1.11a.71.71,0,0,0-.64-.47c-.51,0-1.15.53-1.93,1.6a15.3,15.3,0,0,0-1.25,2.06,4.07,4.07,0,0,0-.54,1.51Z"/><path class="cls-1" d="M148.77,67.78q0,1.74,1.47,1.74a4.7,4.7,0,0,0,2.82-1.21,12.29,12.29,0,0,0,2.78-3.21l.5.28a11,11,0,0,1-3,3.6,5.92,5.92,0,0,1-3.53,1.43,2.16,2.16,0,0,1-1.69-.69,2.74,2.74,0,0,1-.62-1.89,4.13,4.13,0,0,1,1.13-2.94,3.54,3.54,0,0,1,2.71-1.23,1.81,1.81,0,0,1,1.22.39,1.27,1.27,0,0,1,.46,1A2.27,2.27,0,0,1,151.71,67,5.29,5.29,0,0,1,148.77,67.78Zm0-.57A3.85,3.85,0,0,0,151,66.5a1.85,1.85,0,0,0,.89-1.49c0-.51-.23-.76-.68-.76a1.9,1.9,0,0,0-1.49.87A4.13,4.13,0,0,0,148.82,67.21Z"/><path class="cls-1" d="M157.27,68.13q2.11-4.47,3.79-4.47c.87,0,1.32.87,1.32,2.62V67a8.21,8.21,0,0,0,.12,1.72c.09.32.25.48.47.48s.73-.27,1.16-.81a34.85,34.85,0,0,0,2.12-3.28l.5.29a19.84,19.84,0,0,1-2.34,3.66,2.76,2.76,0,0,1-1.86,1.2,1.09,1.09,0,0,1-1.06-.73,7.45,7.45,0,0,1-.3-2.53v-.52a5.38,5.38,0,0,0-.12-1.37c-.09-.26-.23-.39-.44-.39-.52,0-1.36,1-2.52,3.13-.29.51-.47.84-.55,1A2.72,2.72,0,0,0,157.1,70a.5.5,0,0,0,.07.27,1.5,1.5,0,0,1-.58.15c-.4,0-.6-.23-.6-.67,0-.13,0-.7.16-1.71l.13-1.29a12.53,12.53,0,0,0,.09-1.27,1.56,1.56,0,0,0-.29-1l.42-.15a2,2,0,0,1,.59-.13c.3,0,.46.23.46.68,0,.24,0,.65-.09,1.22,0,.13,0,.25,0,.37Z"/><path class="cls-1" d="M174.32,65.4a15.08,15.08,0,0,1-3,3.8,4.73,4.73,0,0,1-3,1.39,2.42,2.42,0,0,1-1.86-.78,3,3,0,0,1-.71-2,4.2,4.2,0,0,1,4.12-4.11,2.13,2.13,0,0,1,1.1.26.75.75,0,0,1,.43.66c0,.43-.37.76-1.11,1a.74.74,0,0,0,.06-.28q0-1-1-1a2.07,2.07,0,0,0-1.63,1,3.51,3.51,0,0,0-.75,2.17,2.41,2.41,0,0,0,.5,1.56,1.59,1.59,0,0,0,1.29.6q2.19,0,5.12-4.53Z"/><path class="cls-1" d="M174.48,67.78c0,1.16.5,1.74,1.48,1.74a4.68,4.68,0,0,0,2.81-1.21,12.29,12.29,0,0,0,2.78-3.21l.5.28a10.93,10.93,0,0,1-3,3.6,6,6,0,0,1-3.54,1.43,2.17,2.17,0,0,1-1.69-.69,2.74,2.74,0,0,1-.62-1.89,4.18,4.18,0,0,1,1.13-2.94A3.54,3.54,0,0,1,177,63.66a1.85,1.85,0,0,1,1.23.39,1.27,1.27,0,0,1,.46,1A2.29,2.29,0,0,1,177.43,67,5.34,5.34,0,0,1,174.48,67.78Zm.05-.57a3.85,3.85,0,0,0,2.13-.71,1.85,1.85,0,0,0,.89-1.49c0-.51-.23-.76-.68-.76a1.92,1.92,0,0,0-1.49.87A4.22,4.22,0,0,0,174.53,67.21Z"/><path class="cls-2" d="M27.31,18.92a30.58,30.58,0,0,1-.5,6,12.62,12.62,0,0,1-1.88,4.56,11.54,11.54,0,0,1-4.47,3.87,13.53,13.53,0,0,1-6.1,1.36,13.24,13.24,0,0,1-6.93-1.83,11.66,11.66,0,0,1-4.62-5.06,17,17,0,0,1-1.15-3.91,28,28,0,0,1-.36-4.63,37.59,37.59,0,0,1,.4-5.79A16.58,16.58,0,0,1,3,9.06,10.5,10.5,0,0,1,7.33,4.39a13.71,13.71,0,0,1,6.82-1.61,14.8,14.8,0,0,1,4.75.72,11.15,11.15,0,0,1,3.75,2.08A12,12,0,0,1,25.38,9Q27.32,12.49,27.31,18.92Zm-6.95-.43a30,30,0,0,0-.56-6.37,7.23,7.23,0,0,0-1.89-3.75,5.09,5.09,0,0,0-3.67-1.26A4.71,4.71,0,0,0,9.57,9.94c-.88,1.88-1.31,4.79-1.31,8.72a31.84,31.84,0,0,0,.55,6.56,7.66,7.66,0,0,0,1.89,3.86,4.85,4.85,0,0,0,3.59,1.31A4.9,4.9,0,0,0,18,29a7.74,7.74,0,0,0,1.85-3.9A32.9,32.9,0,0,0,20.36,18.49Z"/><path class="cls-2" d="M47.71,7.92,34.57,31.49c-.43.78-.8,1.39-1.09,1.83a2.52,2.52,0,0,1-1.07.94,2.65,2.65,0,0,1-1.64,0c-1.68-.41-2.36-1.26-2.05-2.55a17.21,17.21,0,0,1,1.12-2.4L43,5.75a11.3,11.3,0,0,1,1.72-2.51A2.24,2.24,0,0,1,46.78,3a3.09,3.09,0,0,1,1.76,1,1.79,1.79,0,0,1,.3,1.6A11,11,0,0,1,47.71,7.92Z"/><path class="cls-2" d="M195.3,33.14s-7.25-16.49-8.67-20,3.25-4.46,4.26-2.21L198,26.67l6-13.49s1-3.08,3.08-3.08,3.23,1.11,1.89,4.18S196.41,43,196.41,43s-.55,1.41-3.24.63-1.42-2.84-.71-4.58S195.3,33.14,195.3,33.14Z"/><path class="cls-2" d="M4.18,50.26a2,2,0,0,1-2.09,2,2,2,0,1,1,0-4A2,2,0,0,1,4.18,50.26Z"/><path class="cls-2" d="M208.43,50.26a2.09,2.09,0,1,1-2.08-2A2,2,0,0,1,208.43,50.26Z"/><path class="cls-2" d="M33.67,46.83l-.66.38a3.68,3.68,0,0,0-1.33-.82,5.14,5.14,0,0,0-1.7-.27,4.62,4.62,0,0,0-1.87.37,3.14,3.14,0,0,0-1.34,1,2.21,2.21,0,0,0-.48,1.39,2.36,2.36,0,0,0,1.06,2,4.43,4.43,0,0,0,2.68.78,4.36,4.36,0,0,0,3-1.05l.66.39a4.23,4.23,0,0,1-1.57,1,6.34,6.34,0,0,1-2.1.33,5.13,5.13,0,0,1-3.49-1.11,2.93,2.93,0,0,1-1.08-2.28,2.88,2.88,0,0,1,1.3-2.37,5.34,5.34,0,0,1,3.26-1,6.26,6.26,0,0,1,2.13.35A4,4,0,0,1,33.67,46.83Z"/><path class="cls-2" d="M45.89,51.89a3.83,3.83,0,0,1-1.6-1.13,2.42,2.42,0,0,1-.59-1.57A2.59,2.59,0,0,1,45,47a6.07,6.07,0,0,1,6.33,0,2.5,2.5,0,0,1,0,4.38,5.6,5.6,0,0,1-3.22.89A6,6,0,0,1,45.89,51.89Zm4.06-.5a3.22,3.22,0,0,0,1.33-.9,1.91,1.91,0,0,0,.47-1.27,2,2,0,0,0-.47-1.28A3.12,3.12,0,0,0,50,47a4.8,4.8,0,0,0-1.83-.34,4.32,4.32,0,0,0-2.54.73,2.08,2.08,0,0,0-1.05,1.76A2,2,0,0,0,45,50.48a3.17,3.17,0,0,0,1.32.91,4.67,4.67,0,0,0,1.79.34A4.81,4.81,0,0,0,50,51.39Z"/><path class="cls-2" d="M78.43,46h1v5.41h3.85V52H78.43Z"/><path class="cls-2" d="M63.71,46h1v5.41h3.85V52H63.71Z"/><path class="cls-2" d="M93.73,46H98v.55H94.48v2.19H98v.56H94.48v1.74H98v.55H93.73Z"/><path class="cls-2" d="M117.36,47.15l-.68.35a3.7,3.7,0,0,0-1.33-.76,5.49,5.49,0,0,0-1.72-.26,5.08,5.08,0,0,0-1.89.34,3.22,3.22,0,0,0-1.34.92,1.92,1.92,0,0,0-.48,1.3A2.13,2.13,0,0,0,111,50.85a4.69,4.69,0,0,0,2.7.73,4.61,4.61,0,0,0,3-1l.68.36a4.44,4.44,0,0,1-1.59.88,6.69,6.69,0,0,1-2.12.32,5.41,5.41,0,0,1-3.52-1A2.63,2.63,0,0,1,109.05,49a2.6,2.6,0,0,1,1.31-2.2,5.64,5.64,0,0,1,3.28-.89,6.61,6.61,0,0,1,2.15.32A4.11,4.11,0,0,1,117.36,47.15Z"/><path class="cls-2" d="M126.89,46.46v-.6H132v.6h-2.09v5.4H129v-5.4Z"/><path class="cls-2" d="M143.25,46.17h.67v5.71h-.67Z"/><path class="cls-2" d="M158.81,45.34a6.2,6.2,0,0,1,3.52.95,2.63,2.63,0,0,1,0,4.67,6,6,0,0,1-3.45,1,6.11,6.11,0,0,1-3.48-1A2.76,2.76,0,0,1,154,48.66a2.55,2.55,0,0,1,.65-1.67,4.16,4.16,0,0,1,1.76-1.21A6.57,6.57,0,0,1,158.81,45.34Zm0,.61a5.28,5.28,0,0,0-1.95.36,3.47,3.47,0,0,0-1.45,1,2,2,0,0,0-.52,1.36,2.22,2.22,0,0,0,1.15,1.89,4.82,4.82,0,0,0,2.77.77,5.52,5.52,0,0,0,2-.35,3.55,3.55,0,0,0,1.44-1,2.07,2.07,0,0,0,.51-1.36,2,2,0,0,0-.51-1.35,3.56,3.56,0,0,0-1.46-1A5.49,5.49,0,0,0,158.85,46Z"/><path class="cls-2" d="M174.49,51.48v-6h.23l6.88,4.57V45.48h1v6h-.24L175.57,47v4.53Z"/><path class="cls-2" d="M57.77,12.65c-1.47-.74-2.1-1.89-1.26-3.9C57.9,5.45,60,3.14,63.68,2.32s9-.41,11.42,3.05,2.9,8.52-.68,10.86c-.92.51-1.47.74-.94,1.06a10.12,10.12,0,0,1,4.21,3.37,7.62,7.62,0,0,1,1,6.43c-.79,4.13-3.29,7-12.22,7.69-9.91.31-11.42-5.17-11.7-7.06s.53-2.53,2.21-2.53,2.53,1.37,3.27,2.74,3.26,2.74,5.58,2.74,7.17-1,7.59-4.53-1.48-5-4.85-5.63S63.78,19.3,63.78,18s.84-2.23,3.37-2.65,4.11-2,4-4.53a4.37,4.37,0,0,0-4-4.32c-2.1-.21-5.27.42-5.48,2.53S60.83,13.39,57.77,12.65Z"/><path class="cls-2" d="M149.45,34.71c-3-.08-1.5-3.06-2.29-2.28-2.27,2.28-5.57,2.44-8.17,2.44a14.11,14.11,0,0,1-7.77-2.44,10.42,10.42,0,0,1-4.74-8.95c0-4.32.33-6.09,1.31-7.73,1.86-3.07,6.1-5.39,11.6-5.39s7.77,2.75,7.77,2.75-.08-1.2.27-1.55c1.54-2.6,5.36-1.6,5.23.73V32.5C152.73,35,150.55,34.74,149.45,34.71ZM132.11,23.08c0,6.81,5.44,8.17,8.27,8.17s6.92-2,6.92-9A7.78,7.78,0,0,0,139.65,14C137.45,14,132.11,16.28,132.11,23.08Z"/><path class="cls-2" d="M102.52,2.12c0,.32.11,11.39.11,11.39.11-.19,2.45-3.13,8.85-3.13,7.62,0,12.16,6.21,11.74,14-.25,4.69-4.39,10.5-12.23,10.5s-8.19-3.32-8.31-1.88c0-.13.39,2.39-2.58,2.39a2.54,2.54,0,0,1-2.75-2.78V2C97.35-.32,102.09-1,102.52,2.12Zm-.21,21c0,6.79,5.44,8.15,8.26,8.15s6.9-2,6.9-9A7.75,7.75,0,0,0,109.84,14C107.64,14,102.31,16.33,102.31,23.13Z"/><path class="cls-2" d="M164.09,2.12c0,.32.1,11.39.1,11.39.12-.19,2.45-3.13,8.85-3.13,7.63,0,12.16,6.21,11.74,14-.25,4.69-4.39,10.5-12.23,10.5s-8.18-3.32-8.31-1.88c0-.13.4,2.39-2.58,2.39a2.55,2.55,0,0,1-2.75-2.78V2C158.91-.32,163.65-1,164.09,2.12Zm-.21,21c0,6.79,5.43,8.15,8.26,8.15s6.89-2,6.89-9A7.75,7.75,0,0,0,171.4,14C169.21,14,163.88,16.33,163.88,23.13Z"/></g></g></svg>