<svg xmlns="http://www.w3.org/2000/svg" viewBox="0 0 382.54 42.27"><g id="Layer_2" data-name="Layer 2"><g id="Layer_1-2" data-name="Layer 1"><path d="M13.7,1.33A.78.78,0,0,0,12.79.09a23.71,23.71,0,0,0,0,42.09.78.78,0,0,0,.91-1.24A16.56,16.56,0,0,1,8.89,29.13a16.88,16.88,0,0,1,2-8,17,17,0,0,1-2-8A16.54,16.54,0,0,1,13.7,1.33Z"/><path d="M34.59.09a.78.78,0,0,0-.9,1.24,16.58,16.58,0,0,1,4.81,11.8,17,17,0,0,1-2,8,16.88,16.88,0,0,1,2,8,16.6,16.6,0,0,1-4.81,11.81.78.78,0,0,0,.9,1.24,23.7,23.7,0,0,0,0-42.09Z"/><path d="M23.69,13.13a14.63,14.63,0,0,0-12.82,8,14.63,14.63,0,0,0,12.82,8,14.65,14.65,0,0,0,12.83-8A14.65,14.65,0,0,0,23.69,13.13Z"/><path d="M90.68,19.86l-23.2,0c-3.89-.08-8.77,1.74-9.09-.24s7.29-1.75,10.76-3.83,5.17-4.37,5.22-6.52V0H61.63V5.14s-.12,4.74-.12,5.18c0,3.64-4.87,5.51-4.87,8.65,0,3.83,4.84,2.46,4.84,6.35l0,14.86v2.09H74.38V26A5.65,5.65,0,0,0,72,21.23H90.68v21h11.88V0H90.68Z"/><path d="M171.81,25.7c-7.11,0-9.29,3.34-10.49,3.59-.87.18-1.93-.4-1.28-1.82.74-1.64,4.43-4.28,12.11-4.91,4.6-.37,6.64-3.23,5.12-7.42L171.71,0H154.54L137.76,40.81l-8.5,0c-9.09,0-13.76-4-13.76-9.52,0-8.36,15.16-3.26,18.19-8.39,1.67-2.84,1.16-5.83-6.06-10S121.33,1.44,130,1.44l16.65.07V.08H119c-9.89,0-10.8,12-.93,13.75,8.54,1.49,12.82,2.8,14.22,4.43,1.22,1.43.47,2.56-.47,2.56-1.64,0-4.66-3.26-12.12-3.26-11.19,0-14.45,6.29-14.45,11.65,0,5.83,3,13.06,21,13.06h22.18l14-34.09,2.5,6.78a6,6,0,0,1-2.2,6.7c-5.38,4.2-4.78,7.18-2.16,10,4.68,5.07,13.81-1.4,17.84,9h0l.57,1.58h11.31l-1.41-3.92C186.67,32.23,181.4,25.7,171.81,25.7Z"/><path d="M206,26c0-2.82-1.67-5.11-5.16-5.93-4-.94-10.46,1.86-10.83-.43-.31-1.87,7.29-1.76,10.76-3.84S206,11.4,206,9.25V0H193.25V5.14s0,4.75-.11,5.18C192.33,14.54,188,16,188,19.11c0,4.17,5.24,1.47,5.14,6.22l0,14.85v2.09h33V40.9H206Z"/><path d="M236.37,15.77c3.51-2.1,5.17-4.37,5.23-6.52V1.37h17.09V0H211.46V1.37h17.39V5.14s-.12,4.74-.12,5.18c0,3.64-4.86,5.51-4.86,8.65,0,3.83,5.28,2.46,4.84,6.35l0,14.86v2.09H241.6V26c0-2.82-1.67-5.11-5.15-5.93-4-.94-10.46,1.85-10.84-.44C225.31,17.73,232.91,17.85,236.37,15.77Z"/><path d="M289.36,19.86l-23.2,0c-3.9-.08-8.78,1.74-9.1-.24s7.29-1.75,10.76-3.83S273,11.4,273,9.25V0H260.3V5.14s-.12,4.74-.12,5.18c0,3.64-4.87,5.51-4.87,8.65,0,3.83,4.84,2.46,4.84,6.35l0,14.86v2.09h12.87V26a5.62,5.62,0,0,0-2.39-4.74h18.7v21h11.87V0H289.36Z"/><path d="M314.18,31.31c0-8.36,15.15-3.26,18.18-8.39,1.67-2.84,1.16-5.83-6.06-10S320,1.44,328.63,1.44l16.65.07V.08H317.67c-9.89,0-10.8,12-.93,13.75,8.55,1.49,12.82,2.8,14.22,4.43,1.23,1.43.47,2.56-.47,2.56-1.64,0-4.66-3.26-12.12-3.26-11.18,0-14.45,6.29-14.45,11.65,0,5.83,3,13.06,21,13.06h20.38V40.78l-17.35,0C318.84,40.83,314.18,36.83,314.18,31.31Z"/><path d="M365.89,1.44l16.65.07V.08H354.93c-9.9,0-10.81,12-.93,13.75,8.54,1.49,12.82,2.8,14.22,4.43,1.22,1.43.46,2.56-.47,2.56-1.65,0-4.66-3.26-12.12-3.26-11.19,0-14.45,6.29-14.45,11.65,0,5.83,3,13.06,21,13.06h20.38V40.78l-17.36,0c-9.09,0-13.75-4-13.75-9.52,0-8.36,15.15-3.26,18.19-8.39,1.67-2.84,1.16-5.83-6.07-10S357.26,1.44,365.89,1.44Z"/></g></g></svg>