<svg xmlns="http://www.w3.org/2000/svg" viewBox="0 0 117.99 48.53"><defs><style>.cls-1{fill:#e73137;}</style></defs><g id="Layer_2" data-name="Layer 2"><path class="cls-1" d="M106.66,12V8.43h1.58a1.9,1.9,0,0,1,.72.1.78.78,0,0,1,.4.34,1,1,0,0,1,.15.53.86.86,0,0,1-.25.64,1.25,1.25,0,0,1-.75.33,1.36,1.36,0,0,1,.28.18,2.08,2.08,0,0,1,.39.47l.62,1h-.59l-.47-.74-.34-.49a1.34,1.34,0,0,0-.24-.24.6.6,0,0,0-.22-.09l-.26,0h-.54V12Zm.48-2h1a1.66,1.66,0,0,0,.5-.06.62.62,0,0,0,.28-.22A.59.59,0,0,0,109,9.4a.52.52,0,0,0-.18-.41.86.86,0,0,0-.58-.16h-1.12Z"/><path class="cls-1" d="M105.17,10.23a2.77,2.77,0,0,1,2.77-2.77h0a2.77,2.77,0,0,1,2.78,2.77h0A2.77,2.77,0,0,1,107.94,13h0a2.77,2.77,0,0,1-2.77-2.78Zm.48,0a2.3,2.3,0,0,0,2.29,2.29h0a2.28,2.28,0,0,0,2.29-2.29h0a2.3,2.3,0,0,0-2.29-2.29h0a2.31,2.31,0,0,0-2.29,2.29Z"/><path class="cls-1" d="M8.07,38A8.06,8.06,0,0,1,0,30H0V8.06A8.06,8.06,0,0,1,8.07,0H109.93A8.06,8.06,0,0,1,118,8.06h0V30A8.06,8.06,0,0,1,109.93,38H8.07ZM2.9,8.06V30a5.18,5.18,0,0,0,5.17,5.16H109.93A5.17,5.17,0,0,0,115.09,30h0V8.06a5.17,5.17,0,0,0-5.16-5.16H8.07A5.18,5.18,0,0,0,2.9,8.06Z"/><path class="cls-1" d="M65.37,8H50.56c-.44,0-2.69,3.78-2.69,3.78,0,.44,0,.8.45.8h6.8V28.53a.81.81,0,0,0,.81.81H59.4a.8.8,0,0,0,.8-.81V12.61h5.17a.81.81,0,0,0,.81-.81v-3A.81.81,0,0,0,65.37,8Z"/><path class="cls-1" d="M44.46,28.58a.8.8,0,0,1-.8.8H40a.8.8,0,0,1-.81-.8V18.42c.32-1.11,4.08-3.94,4.48-4.14s.93-.16.84.53Z"/><path class="cls-1" d="M41.44,4.8,40.8,3.3a14.71,14.71,0,0,0-2.75,4,12.38,12.38,0,0,0-.2,5.17,3.74,3.74,0,0,0,3.31,2.66c1,0,2.54-.94,3.23-3.07a8.89,8.89,0,0,0,.08-4.69,11.72,11.72,0,0,0-1.86-3.18A8.92,8.92,0,0,0,41.44,4.8Z"/><path class="cls-1" d="M110.69,28.8,101.47,8.74a3.35,3.35,0,0,0-2.83-1.16A2.85,2.85,0,0,0,96,8.67l-7.67,17c-.62,1.2-1.18,2.3-1.29,2.46H87c-.75-1-4.55-6.73-4.86-7.56,2.18-2.3,3.13-3.09,3.33-5.92.24-3.53-2.46-6.72-5.34-7,0,0,0-.05,0-.05H68a.81.81,0,0,0-.81.81v20.1a.81.81,0,0,0,.81.81h3.54a.82.82,0,0,0,.81-.81V12.93h7l.13.15a2.62,2.62,0,0,1,.18,2.6c-.61,0-4.89,0-5.56,0-.09.05-.35.58-.18.84.54,1.7,6.89,11,8.22,12.82,0,.1.22.14.45.16a0,0,0,0,0,0,0H91.8a.68.68,0,0,0,.7-.37L94,26h9.85l1.34,2.83c.19.41.38.7.86.7l4.27,0A.66.66,0,0,0,110.69,28.8ZM96.16,21.32l2.71-5.79,2.75,5.79Z"/><path class="cls-1" d="M34.4,24.14a5.16,5.16,0,0,0-1.89-4.44,12.5,12.5,0,0,0-1.42-.76L21.93,14.6c-1.78-.92-3.39-1.83-1.93-1.82,0,0,2.18.06,2.18,0h8a.75.75,0,0,0,.41-.13c.34-.34,3-4.57,3-4.57s.09-.27-.42-.39L18,7.77c-2.29,0-4.15,2.3-4.15,5.13a5.41,5.41,0,0,0,2,4.37h0l0,0c.41.3,11.69,5.5,12.12,5.73s.31,1.24-.08,1.28-17.32.09-17.68.09a30.06,30.06,0,0,0-2.93,4.47c0,.27.12.36.36.39s2.6.05,2.6.05H29.6l.89,0A5.06,5.06,0,0,0,34.4,24.14Z"/><path class="cls-1" d="M48.54,45.66l1.64-.16a2,2,0,0,0,.61,1.22,1.81,1.81,0,0,0,1.22.39,1.86,1.86,0,0,0,1.23-.35,1,1,0,0,0,.42-.81.71.71,0,0,0-.18-.5,1.42,1.42,0,0,0-.61-.37c-.19-.07-.65-.19-1.35-.36a4.64,4.64,0,0,1-1.91-.83,2.19,2.19,0,0,1-.77-1.69A2.16,2.16,0,0,1,49.2,41a2.24,2.24,0,0,1,1-.85,4.06,4.06,0,0,1,1.65-.29,3.53,3.53,0,0,1,2.37.69,2.44,2.44,0,0,1,.84,1.84l-1.69.08a1.47,1.47,0,0,0-.47-.93,1.69,1.69,0,0,0-1.07-.28,1.92,1.92,0,0,0-1.15.3.61.61,0,0,0-.27.52.63.63,0,0,0,.25.51,4.51,4.51,0,0,0,1.55.56,8.09,8.09,0,0,1,1.83.6,2.36,2.36,0,0,1,.92.85A2.45,2.45,0,0,1,55.35,46a2.48,2.48,0,0,1-1.53,2.28,4.86,4.86,0,0,1-1.83.3,3.63,3.63,0,0,1-2.44-.73A3.21,3.21,0,0,1,48.54,45.66Z"/><path class="cls-1" d="M56.13,48.39V40h1.69v8.38Z"/><path class="cls-1" d="M58.87,48.39V40h1.64l3.43,5.59V40h1.57v8.38H63.82l-3.38-5.47v5.47Z"/><path class="cls-1" d="M72.07,45.3l1.65.53a3.68,3.68,0,0,1-1.26,2,3.54,3.54,0,0,1-2.23.67,3.61,3.61,0,0,1-2.74-1.14,4.39,4.39,0,0,1-1.07-3.12A4.59,4.59,0,0,1,67.5,41a3.69,3.69,0,0,1,2.84-1.15,3.52,3.52,0,0,1,2.5.9,3.34,3.34,0,0,1,.85,1.55l-1.67.4a1.78,1.78,0,0,0-.62-1,1.81,1.81,0,0,0-1.15-.38,1.93,1.93,0,0,0-1.51.67,3.28,3.28,0,0,0-.58,2.17,3.53,3.53,0,0,0,.57,2.26,1.86,1.86,0,0,0,1.49.67,1.69,1.69,0,0,0,1.16-.43A2.4,2.4,0,0,0,72.07,45.3Z"/><path class="cls-1" d="M74.58,48.39V40h6.21v1.42H76.27v1.85h4.21v1.41H76.27V47H81v1.42Z"/><path class="cls-1" d="M88.78,47.54V42.29a4.71,4.71,0,0,1-2,1.12.59.59,0,0,1-.43-.19.64.64,0,0,1-.18-.45.5.5,0,0,1,.18-.43A4.48,4.48,0,0,1,87,42a4.93,4.93,0,0,0,1.12-.69,4.43,4.43,0,0,0,.74-.82,6.32,6.32,0,0,1,.43-.55.48.48,0,0,1,.37-.11.6.6,0,0,1,.49.24,1.07,1.07,0,0,1,.18.65v6.62c0,.77-.26,1.16-.79,1.16a.73.73,0,0,1-.57-.24A1,1,0,0,1,88.78,47.54Z"/><path class="cls-1" d="M96.7,44.54a2.61,2.61,0,0,1-.86.68,2.37,2.37,0,0,1-1,.23,2.46,2.46,0,0,1-1.83-.8,2.84,2.84,0,0,1-.53-.89,3.11,3.11,0,0,1-.18-1.06,3.06,3.06,0,0,1,.21-1.13,2.85,2.85,0,0,1,.59-.92A2.77,2.77,0,0,1,94,40a3.23,3.23,0,0,1,1.19-.22,3,3,0,0,1,1.32.28,2.69,2.69,0,0,1,1,.78,3.79,3.79,0,0,1,.61,1.31A6.85,6.85,0,0,1,98.3,44a7.59,7.59,0,0,1-.22,1.95,4.06,4.06,0,0,1-.66,1.42,2.74,2.74,0,0,1-1,.86,3.27,3.27,0,0,1-1.36.28,2.84,2.84,0,0,1-1.31-.29,2.21,2.21,0,0,1-.84-.71,1.49,1.49,0,0,1-.29-.82.61.61,0,0,1,.18-.43.58.58,0,0,1,.45-.19.81.81,0,0,1,.46.14.83.83,0,0,1,.31.43,1.09,1.09,0,0,0,.42.55,1.13,1.13,0,0,0,.66.21,1.28,1.28,0,0,0,.63-.16,1.63,1.63,0,0,0,.5-.48A4.6,4.6,0,0,0,96.7,44.54Zm-.14-1.77a2.37,2.37,0,0,0-.1-.72,2.26,2.26,0,0,0-.3-.58,1.43,1.43,0,0,0-.47-.38,1.27,1.27,0,0,0-.58-.14,1.16,1.16,0,0,0-.93.47,1.9,1.9,0,0,0-.38,1.25,1.8,1.8,0,0,0,.38,1.22,1.17,1.17,0,0,0,1,.46,1.33,1.33,0,0,0,.69-.19,1.53,1.53,0,0,0,.53-.54A1.65,1.65,0,0,0,96.56,42.77Z"/><path class="cls-1" d="M99.7,42a2,2,0,0,1,.32-1.08,2.12,2.12,0,0,1,.92-.82,3.06,3.06,0,0,1,1.42-.31,3.71,3.71,0,0,1,1.21.18,2.6,2.6,0,0,1,.87.49,2.07,2.07,0,0,1,.51.72,2.14,2.14,0,0,1,.17.84,1.86,1.86,0,0,1-.29,1,2.27,2.27,0,0,1-.87.73,2.27,2.27,0,0,1,.81.5,1.93,1.93,0,0,1,.49.71,2.36,2.36,0,0,1,.16.9,2.52,2.52,0,0,1-.35,1.33,2.38,2.38,0,0,1-1,.92,3.54,3.54,0,0,1-1.61.34,3.61,3.61,0,0,1-1.64-.34,2.38,2.38,0,0,1-1-.92,2.54,2.54,0,0,1-.34-1.31,2.11,2.11,0,0,1,1.46-2.13A1.84,1.84,0,0,1,99.7,42Zm4.14,3.83a1.67,1.67,0,0,0-.18-.79,1.34,1.34,0,0,0-.52-.51,1.6,1.6,0,0,0-.75-.18,1.34,1.34,0,0,0-1,.39,1.46,1.46,0,0,0-.4,1.1,1.6,1.6,0,0,0,.19.8,1.37,1.37,0,0,0,.51.53,1.45,1.45,0,0,0,.72.18,1.4,1.4,0,0,0,.73-.19,1.37,1.37,0,0,0,.51-.53A1.71,1.71,0,0,0,103.84,45.84Zm-1.44-4.93a1.15,1.15,0,0,0-1.21,1.2,1.08,1.08,0,0,0,.34.82,1.22,1.22,0,0,0,.88.33,1.3,1.3,0,0,0,.49-.09,1.12,1.12,0,0,0,.38-.24,1,1,0,0,0,.25-.36,1.19,1.19,0,0,0,.09-.47,1.23,1.23,0,0,0-.16-.61,1.11,1.11,0,0,0-.43-.43A1.28,1.28,0,0,0,102.4,40.91Z"/><path class="cls-1" d="M109.18,43.22a1.38,1.38,0,0,0,.91-.31,1.09,1.09,0,0,0,.39-.9,1,1,0,0,0-.31-.76,1.09,1.09,0,0,0-.82-.32,1.37,1.37,0,0,0-.58.1.85.85,0,0,0-.37.26,1.71,1.71,0,0,0-.25.41q-.12.25-.21.48a.39.39,0,0,1-.21.19.78.78,0,0,1-.35.07.61.61,0,0,1-.42-.18.69.69,0,0,1-.2-.5,1.24,1.24,0,0,1,.19-.64,2.17,2.17,0,0,1,.53-.63,2.59,2.59,0,0,1,.87-.48,3.49,3.49,0,0,1,1.16-.18,3.31,3.31,0,0,1,1,.15,2.29,2.29,0,0,1,.8.44,2,2,0,0,1,.52.67,2,2,0,0,1,.17.82,1.82,1.82,0,0,1-.25,1,3.33,3.33,0,0,1-.72.81,3.16,3.16,0,0,1,.76.55,2.12,2.12,0,0,1,.62,1.51,2.59,2.59,0,0,1-.21,1,2.73,2.73,0,0,1-.62.87,2.83,2.83,0,0,1-1,.6,3.35,3.35,0,0,1-1.25.22,2.92,2.92,0,0,1-1.24-.25,2.62,2.62,0,0,1-.9-.62,2.85,2.85,0,0,1-.54-.77,1.73,1.73,0,0,1-.18-.66.73.73,0,0,1,.21-.54.76.76,0,0,1,.54-.2.59.59,0,0,1,.31.09.4.4,0,0,1,.2.23,4.14,4.14,0,0,0,.64,1.19,1.24,1.24,0,0,0,1,.39,1.42,1.42,0,0,0,.69-.18,1.37,1.37,0,0,0,.55-.52,1.44,1.44,0,0,0,.22-.8,1.46,1.46,0,0,0-.37-1.06,1.36,1.36,0,0,0-1-.39l-.36,0-.31,0a.67.67,0,0,1-.49-.16.54.54,0,0,1-.17-.44.59.59,0,0,1,.2-.45,1,1,0,0,1,.62-.17Z"/></g></svg>