<svg xmlns="http://www.w3.org/2000/svg" viewBox="0 0 354.52 50.41"><defs><style>.cls-1{fill:#b71c25;fill-rule:evenodd;}</style></defs><g id="Layer_2" data-name="Layer 2"><g id="Í_ã_1" data-name="Í¼²ã_1"><path class="cls-1" d="M0,42.77C2.05,39.42,4.05,36.1,6,33c4.67,1.77,9.14,3.69,13.74,5.17a60.48,60.48,0,0,0,22.38,3.09A18.79,18.79,0,0,0,47,40a2.45,2.45,0,0,0,1.81-2.7A3.64,3.64,0,0,0,47,34.94c-3.09-1.11-6.27-2-9.46-2.8-8-2-16-3.81-24-5.9a19.31,19.31,0,0,1-8.12-4.45A10.11,10.11,0,0,1,5.91,6C9.4,3.24,13.55,2,17.83,1.28A89.77,89.77,0,0,1,49,1.46c5.47,1,10.84,2.58,16.26,3.89a9.06,9.06,0,0,1,1,.42q-2.8,4.61-5.52,9c-3.66-1.21-7.16-2.5-10.72-3.56A72.79,72.79,0,0,0,32,8.32c-2.41-.08-4.84.29-7.26.43a1.19,1.19,0,0,0-.27.07C23,9.34,21.2,9.7,21,11.69s1.54,2.64,3,3c4.08,1.08,8.19,2,12.31,2.9,7.45,1.56,15,2.78,22,5.85a24.56,24.56,0,0,1,5,2.9,11.46,11.46,0,0,1,.27,18.1c-3.47,2.91-7.66,4.14-12,4.86C37.26,51.71,23.18,50,9.31,46c-2.89-.82-5.73-1.87-8.57-2.8C.51,43.08.32,42.93,0,42.77Z"/><path class="cls-1" d="M220.58,2C226.06,1.48,231.52.72,237,.49c6.17-.27,12.36-.28,18.52,0a55.86,55.86,0,0,1,19.05,3.76,21.32,21.32,0,0,1,5.24,3.07c4.85,4,5.28,10.52,1.12,15.29-2.85,3.26-6.69,4.88-10.78,6-1.87.51-3.77.88-5.91,1.38,3.68,3.17,7.23,6.25,10.78,9.32l10.92,9.45c-.77.07-1.18.14-1.59.14-6.23,0-12.45,0-18.68,0a3.25,3.25,0,0,1-2-.64q-11.84-10.39-23.59-20.87c-.11-.1-.19-.23-.39-.45.38-.62.82-1.25,1.15-1.93s.89-.89,1.75-.77c5.27.68,10.54,1.2,15.79-.14a11.27,11.27,0,0,0,6-3.41,6.14,6.14,0,0,0-1.25-9.39c-3-2.09-6.53-2.71-10.08-3A63.43,63.43,0,0,0,237.76,9c-1.17.2-1.35.69-1.35,1.71q0,18.11,0,36.19v1.89H220.58Z"/><path class="cls-1" d="M73.8,1.65H89.7V19.72h1.64c9.43,0,18.87,0,28.3,0,1.34,0,1.61-.43,1.59-1.67-.06-4.91,0-9.83,0-14.74V1.68H137.1V48.77a13.59,13.59,0,0,1-1.54.15c-4.23,0-8.47-.06-12.69,0-1.37,0-1.7-.45-1.69-1.76.07-5.29,0-10.59,0-15.9,0-1.11-.27-1.51-1.47-1.51q-14.28.07-28.59,0c-1.16,0-1.49.38-1.48,1.51,0,5.35,0,10.69,0,16,0,1.18-.3,1.63-1.54,1.62-4.38-.07-8.76,0-13.13,0-1,0-1.35-.29-1.35-1.34q0-22.53,0-45.06C73.74,2.29,73.77,2,73.8,1.65Z"/><path class="cls-1" d="M306.6,31.82v8.45c0,2.39,0,4.76,0,7.16,0,1-.25,1.49-1.39,1.49q-6.62-.09-13.26,0c-1,0-1.31-.42-1.31-1.38q0-22,0-44c0-.83.14-1.32,1.15-1.41C297,1.56,302.21.72,307.44.49,313.68.2,320,.21,326.23.46A55,55,0,0,1,345,4.18,16.43,16.43,0,0,1,351.81,9c4.33,5.32,3.41,12.44-2.26,17.17-3.89,3.24-8.57,4.7-13.41,5.64-9.41,1.85-18.84,1.46-28.27.11C307.54,31.86,307.21,31.86,306.6,31.82Zm0-15.78c0,1.9.06,3.79,0,5.69-.05,1,.36,1.42,1.34,1.6a55.2,55.2,0,0,0,17.93,1.28c3.07-.37,6-1.09,8.37-3.31a6.28,6.28,0,0,0-1-10.2,14.07,14.07,0,0,0-3.55-1.62c-7.36-2.06-14.81-1.59-22.23-.37-.33.06-.75.81-.77,1.24C306.56,12.24,306.6,14.15,306.6,16Z"/><path class="cls-1" d="M217,48.79c-.56,0-1,.09-1.4.09-5.54,0-11.07,0-16.62,0a2,2,0,0,1-2-1.12c-1.43-2.54-3-5-4.42-7.55a2,2,0,0,0-2-1.11q-15.39,0-30.77,0a2.11,2.11,0,0,0-2.1,1.16c-1.49,2.57-3,5.09-4.64,7.59-.25.41-.73.93-1.13.94-3.73.07-7.47,0-11.47,0,.33-.61.53-1,.76-1.41q13.64-22.39,27.28-44.81a2,2,0,0,1,1.95-1.1q8.33.07,16.64,0a1.89,1.89,0,0,1,1.85,1q13.74,22.59,27.52,45.17A8.21,8.21,0,0,1,217,48.79ZM164.16,29.84h22.28c-3.69-6.23-7.25-12.24-11-18.54Z"/></g></g></svg>