<?xml version="1.0" encoding="utf-8"?>
<!-- Generator: Adobe Illustrator 22.1.0, SVG Export Plug-In . SVG Version: 6.00 Build 0)  -->
<svg version="1.1" id="Layer_1" xmlns="http://www.w3.org/2000/svg" xmlns:xlink="http://www.w3.org/1999/xlink" x="0px" y="0px"
	 viewBox="0 0 249.3 214" style="enable-background:new 0 0 249.3 214;" xml:space="preserve">
<style type="text/css">
	.st0{fill:#FFFFFF;}
	.st1{fill:url(#SVGID_1_);}
	.st2{fill:none;stroke:#000000;stroke-width:2;stroke-miterlimit:10;}
	.st3{fill:#0D0C0C;}
	.st4{fill:url(#SVGID_2_);}
	.st5{fill:url(#SVGID_3_);}
	.st6{fill:none;stroke:#000000;stroke-width:3;stroke-miterlimit:10;}
	.st7{fill:none;stroke:url(#SVGID_4_);stroke-miterlimit:10;}
	.st8{fill:none;stroke:url(#SVGID_5_);stroke-linecap:round;stroke-miterlimit:10;}
	.st9{fill:url(#SVGID_8_);}
	.st10{fill:url(#SVGID_9_);}
	.st11{fill:url(#SVGID_10_);}
	.st12{fill:url(#SVGID_11_);}
	.st13{fill:url(#SVGID_12_);}
	.st14{stroke:#000000;stroke-miterlimit:10;}
	.st15{fill:#FFFFFF;stroke:#000000;stroke-miterlimit:10;}
	.st16{fill:url(#SVGID_13_);}
	.st17{fill:url(#SVGID_14_);}
</style>
<g>
	<g>
		<path class="st0" d="M78.5,200.4c-26.3,0-47.7-21.4-47.7-47.7v-87C30.8,39.4,52.2,18,78.5,18h87c26.3,0,47.7,21.4,47.7,47.7v87
			c0,26.3-21.4,47.7-47.7,47.7H78.5z"/>
		<path d="M165.5,20.4c25,0,45.2,20.3,45.2,45.2v87c0,25-20.3,45.2-45.2,45.2h-87c-25,0-45.2-20.3-45.2-45.2v-87
			c0-25,20.3-45.2,45.2-45.2H165.5 M165.5,15.5h-87c-27.6,0-50.1,22.5-50.1,50.1v87c0,27.6,22.5,50.1,50.1,50.1h87
			c27.6,0,50.1-22.5,50.1-50.1v-87C215.6,38,193.1,15.5,165.5,15.5L165.5,15.5z"/>
	</g>
	<linearGradient id="SVGID_1_" gradientUnits="userSpaceOnUse" x1="70.4199" y1="36.8362" x2="169.6311" y2="36.8362">
		<stop  offset="0.3564" style="stop-color:#F7941D"/>
		<stop  offset="0.4341" style="stop-color:#F47D20"/>
		<stop  offset="0.5318" style="stop-color:#F26322"/>
		<stop  offset="0.6316" style="stop-color:#F04A23"/>
		<stop  offset="0.733" style="stop-color:#EE3424"/>
		<stop  offset="0.8371" style="stop-color:#EE2324"/>
		<stop  offset="0.948" style="stop-color:#ED1C24"/>
	</linearGradient>
	<path class="st1" d="M77.8,44.8h-6.7c-0.4,0-0.7-0.3-0.7-0.7V29.6c0-0.4,0.3-0.7,0.7-0.7h6.7c0.4,0,0.7,0.3,0.7,0.7v14.4
		C78.5,44.4,78.2,44.8,77.8,44.8z M93.7,44.1V29.6c0-0.4-0.3-0.7-0.7-0.7h-6.7c-0.4,0-0.7,0.3-0.7,0.7v14.4c0,0.4,0.3,0.7,0.7,0.7
		H93C93.4,44.8,93.7,44.4,93.7,44.1z M108.9,44.1V29.6c0-0.4-0.3-0.7-0.7-0.7h-6.7c-0.4,0-0.7,0.3-0.7,0.7v14.4
		c0,0.4,0.3,0.7,0.7,0.7h6.7C108.6,44.8,108.9,44.4,108.9,44.1z M124.1,44.1V29.6c0-0.4-0.3-0.7-0.7-0.7h-6.7
		c-0.4,0-0.7,0.3-0.7,0.7v14.4c0,0.4,0.3,0.7,0.7,0.7h6.7C123.8,44.8,124.1,44.4,124.1,44.1z M139.3,44.1V29.6
		c0-0.4-0.3-0.7-0.7-0.7h-6.7c-0.4,0-0.7,0.3-0.7,0.7v14.4c0,0.4,0.3,0.7,0.7,0.7h6.7C138.9,44.8,139.3,44.4,139.3,44.1z
		 M154.4,44.1V29.6c0-0.4-0.3-0.7-0.7-0.7h-6.7c-0.4,0-0.7,0.3-0.7,0.7v14.4c0,0.4,0.3,0.7,0.7,0.7h6.7
		C154.1,44.8,154.4,44.4,154.4,44.1z M169.6,44.1V29.6c0-0.4-0.3-0.7-0.7-0.7h-6.7c-0.4,0-0.7,0.3-0.7,0.7v14.4
		c0,0.4,0.3,0.7,0.7,0.7h6.7C169.3,44.8,169.6,44.4,169.6,44.1z"/>
	<g>
		<circle class="st2" cx="81.2" cy="105.3" r="14"/>
		<circle class="st2" cx="124.1" cy="105.3" r="14"/>
		<circle class="st2" cx="167" cy="105.3" r="14"/>
	</g>
	<g>
		<circle class="st2" cx="81.2" cy="153.9" r="14"/>
		<circle class="st2" cx="124.1" cy="153.9" r="14"/>
		<circle class="st2" cx="167" cy="153.9" r="14"/>
	</g>
	<g>
		<g>
			<path class="st0" d="M185.3,142.8c-0.4-0.4-0.5-0.9-0.4-1.4c1.1-4,2.6-11.2,2-13.2c-0.1-0.5,0-1,0.4-1.4l37.8-37.8
				c0.6-0.6,1.5-0.6,2,0l11.9,11.9c0.6,0.6,0.6,1.5,0,2l-37.8,37.8c-0.4,0.4-0.9,0.5-1.4,0.4c-2-0.5-9.2,1-13.2,2
				C186.2,143.3,185.7,143.1,185.3,142.8z"/>
			<path class="st3" d="M238.1,101.9l-37.8,37.8c-3.1-0.9-14,2-14,2s2.9-10.8,2-14L226.2,90L238.1,101.9 M240.2,99.8l-11.9-11.9
				c-1.1-1.1-3-1.1-4.1,0l-37.8,37.8c-0.7,0.7-1,1.8-0.7,2.8c0.3,1.3-0.6,7.1-2,12.5c-0.3,1,0,2.1,0.7,2.8c0.7,0.7,1.8,1,2.8,0.7
				c5.4-1.4,11.2-2.4,12.5-2c1,0.3,2.1,0,2.8-0.7l37.8-37.8C241.3,102.8,241.3,101,240.2,99.8L240.2,99.8z"/>
		</g>
		<path class="st3" d="M230.3,109.7l-1.7,1.7l-11.9-11.9l1.7-1.7L230.3,109.7 M232.3,107.7l-11.9-11.9c-1.1-1.1-3-1.1-4.1,0
			l-1.7,1.7c-1.1,1.1-1.1,3,0,4.1l11.9,11.9c1.1,1.1,3,1.1,4.1,0l1.7-1.7C233.4,110.6,233.4,108.8,232.3,107.7L232.3,107.7z"/>
		<path class="st3" d="M215.1,116.4L204,127.4l-2.6-2.6l11.1-11.1L215.1,116.4 M217.2,114.3l-2.6-2.6c-1.1-1.1-3-1.1-4.1,0
			l-11.1,11.1c-1.1,1.1-1.1,3,0,4.1l2.6,2.6c1.1,1.1,3,1.1,4.1,0l11.1-11.1C218.3,117.3,218.3,115.4,217.2,114.3L217.2,114.3z"/>
	</g>
	<path d="M155.6,67H29.8c-0.2,0-0.4-0.2-0.4-0.4v-3.8c0-0.2,0.2-0.4,0.4-0.4h125.8c0.2,0,0.4,0.2,0.4,0.4v3.8
		C156.1,66.9,155.9,67,155.6,67z"/>
	<path d="M213.3,67H170c-0.2,0-0.4-0.2-0.4-0.4v-3.8c0-0.2,0.2-0.4,0.4-0.4h43.3c0.2,0,0.4,0.2,0.4,0.4v3.8
		C213.7,66.9,213.5,67,213.3,67z"/>
</g>
</svg>
