<?xml version="1.0" encoding="utf-8"?>
<!-- Generator: Adobe Illustrator 22.1.0, SVG Export Plug-In . SVG Version: 6.00 Build 0)  -->
<svg version="1.1" id="Layer_1" xmlns="http://www.w3.org/2000/svg" xmlns:xlink="http://www.w3.org/1999/xlink" x="0px" y="0px"
	 viewBox="0 0 249.3 214" style="enable-background:new 0 0 249.3 214;" xml:space="preserve">
<style type="text/css">
	.st0{fill:#FFFFFF;}
	.st1{fill:url(#SVGID_1_);}
	.st2{fill:none;stroke:#000000;stroke-width:2;stroke-miterlimit:10;}
	.st3{fill:#0D0C0C;}
	.st4{fill:url(#SVGID_2_);}
	.st5{fill:url(#SVGID_3_);}
	.st6{fill:url(#SVGID_4_);}
	.st7{fill:none;stroke:#000000;stroke-width:3;stroke-miterlimit:10;}
	.st8{fill:none;stroke:url(#SVGID_5_);stroke-miterlimit:10;}
	.st9{fill:none;stroke:url(#SVGID_6_);stroke-linecap:round;stroke-miterlimit:10;}
	.st10{fill:url(#SVGID_11_);}
	.st11{fill:url(#SVGID_12_);}
	.st12{fill:url(#SVGID_13_);}
	.st13{fill:url(#SVGID_14_);}
	.st14{fill:url(#SVGID_15_);}
	.st15{stroke:#000000;stroke-miterlimit:10;}
	.st16{fill:#FFFFFF;stroke:#000000;stroke-miterlimit:10;}
	.st17{fill:url(#SVGID_16_);}
	.st18{fill:url(#SVGID_17_);}
	.st19{fill:url(#SVGID_18_);}
	.st20{fill:url(#SVGID_19_);}
	.st21{fill:url(#SVGID_20_);}
</style>
<g>
	<g>
		<g>
			<path class="st0" d="M76.6,200.8c-26.1,0-47.4-21.3-47.4-47.4V66.9c0-26.1,21.3-47.4,47.4-47.4h86.5c26.1,0,47.4,21.3,47.4,47.4
				v86.5c0,26.1-21.3,47.4-47.4,47.4H76.6z"/>
			<path d="M163.1,22c24.8,0,45,20.1,45,45v86.5c0,24.8-20.1,45-45,45H76.6c-24.8,0-45-20.1-45-45V66.9c0-24.8,20.1-45,45-45H163.1
				 M163.1,17.1H76.6c-27.5,0-49.8,22.3-49.8,49.8v86.5c0,27.5,22.3,49.8,49.8,49.8h86.5c27.5,0,49.8-22.3,49.8-49.8V66.9
				C212.9,39.5,190.6,17.1,163.1,17.1L163.1,17.1z"/>
		</g>
		<linearGradient id="SVGID_1_" gradientUnits="userSpaceOnUse" x1="68.6045" y1="38.2987" x2="167.2053" y2="38.2987">
			<stop  offset="0.3564" style="stop-color:#F7941D"/>
			<stop  offset="0.4341" style="stop-color:#F47D20"/>
			<stop  offset="0.5318" style="stop-color:#F26322"/>
			<stop  offset="0.6316" style="stop-color:#F04A23"/>
			<stop  offset="0.733" style="stop-color:#EE3424"/>
			<stop  offset="0.8371" style="stop-color:#EE2324"/>
			<stop  offset="0.948" style="stop-color:#ED1C24"/>
		</linearGradient>
		<path class="st1" d="M75.9,46.2h-6.6c-0.4,0-0.7-0.3-0.7-0.7V31.1c0-0.4,0.3-0.7,0.7-0.7h6.6c0.4,0,0.7,0.3,0.7,0.7v14.3
			C76.7,45.9,76.3,46.2,75.9,46.2z M91.7,45.5V31.1c0-0.4-0.3-0.7-0.7-0.7h-6.6c-0.4,0-0.7,0.3-0.7,0.7v14.3c0,0.4,0.3,0.7,0.7,0.7
			H91C91.4,46.2,91.7,45.9,91.7,45.5z M106.8,45.5V31.1c0-0.4-0.3-0.7-0.7-0.7h-6.6c-0.4,0-0.7,0.3-0.7,0.7v14.3
			c0,0.4,0.3,0.7,0.7,0.7h6.6C106.5,46.2,106.8,45.9,106.8,45.5z M121.9,45.5V31.1c0-0.4-0.3-0.7-0.7-0.7h-6.6
			c-0.4,0-0.7,0.3-0.7,0.7v14.3c0,0.4,0.3,0.7,0.7,0.7h6.6C121.6,46.2,121.9,45.9,121.9,45.5z M137,45.5V31.1c0-0.4-0.3-0.7-0.7-0.7
			h-6.6c-0.4,0-0.7,0.3-0.7,0.7v14.3c0,0.4,0.3,0.7,0.7,0.7h6.6C136.7,46.2,137,45.9,137,45.5z M152.1,45.5V31.1
			c0-0.4-0.3-0.7-0.7-0.7h-6.6c-0.4,0-0.7,0.3-0.7,0.7v14.3c0,0.4,0.3,0.7,0.7,0.7h6.6C151.8,46.2,152.1,45.9,152.1,45.5z
			 M167.2,45.5V31.1c0-0.4-0.3-0.7-0.7-0.7h-6.6c-0.4,0-0.7,0.3-0.7,0.7l0,14.3c0,0.4,0.3,0.7,0.7,0.7h6.6
			C166.9,46.2,167.2,45.9,167.2,45.5z"/>
		<g>
			<circle class="st2" cx="79.3" cy="106.4" r="14"/>
			<circle class="st2" cx="121.9" cy="106.4" r="14"/>
			<circle class="st2" cx="164.6" cy="106.4" r="14"/>
		</g>
		<circle class="st2" cx="79.3" cy="154.6" r="14"/>
		<circle class="st2" cx="121.9" cy="154.6" r="14"/>
		<path d="M153.3,68.3h-125c-0.2,0-0.4-0.2-0.4-0.4v-3.8c0-0.2,0.2-0.4,0.4-0.4h125c0.2,0,0.4,0.2,0.4,0.4v3.8
			C153.7,68.1,153.5,68.3,153.3,68.3z"/>
		<path d="M210.6,68.3h-43c-0.2,0-0.4-0.2-0.4-0.4v-3.8c0-0.2,0.2-0.4,0.4-0.4h43c0.2,0,0.4,0.2,0.4,0.4v3.8
			C211,68.1,210.8,68.3,210.6,68.3z"/>
	</g>
	<g>
		<g>
			<path class="st15" d="M231.8,175L231.8,175c3.1,0,5.7-2.6,5.7-5.7l0-8.3c0-3.1-2.6-5.7-5.7-5.6l0,0c-2.3,0-4.4-1.4-5.3-3.6
				c-0.1-0.3-0.2-0.6-0.4-0.9c-0.9-2.1-0.5-4.6,1.2-6.3l0,0c2.2-2.2,2.2-5.8,0-8l-5.9-5.9c-2.2-2.2-5.8-2.2-8,0l0,0
				c-1.6,1.7-4.1,2.1-6.3,1.2c-0.3-0.1-0.6-0.2-0.9-0.4c-2.2-0.9-3.6-2.9-3.6-5.3v0c0-3.1-2.5-5.7-5.7-5.7h-8.3
				c-3.1,0-5.7,2.5-5.7,5.7v0c0,2.4-1.5,4.4-3.6,5.3c-0.4,0.2-0.9,0.4-1.3,0.6c-2.2,1-4.7,0.6-6.4-1.1l0,0c-2.2-2.2-5.8-2.1-8,0.1
				l-5.8,5.9c-2.2,2.2-2.1,5.8,0.1,8l0,0c1.7,1.6,2.2,4.1,1.3,6.3c-0.1,0.3-0.2,0.6-0.4,0.9c-0.8,2.2-2.9,3.6-5.2,3.7l0,0
				c-3.1,0-5.6,2.6-5.6,5.7l0.1,8.3c0,3.1,2.6,5.6,5.7,5.6l0,0c2.3,0,4.4,1.4,5.3,3.5c0.1,0.3,0.2,0.6,0.4,0.9
				c0.9,2.1,0.5,4.6-1.1,6.3l0,0c-2.2,2.2-2.2,5.8,0.1,8l5.9,5.8c2.2,2.2,5.8,2.2,8-0.1l0,0c1.6-1.7,4.1-2.1,6.3-1.2
				c0.3,0.1,0.6,0.2,0.9,0.4c2.2,0.8,3.6,2.9,3.6,5.2l0,0c0,3.1,2.6,5.6,5.7,5.6l8.3-0.1c3.1,0,5.6-2.6,5.6-5.7l0,0
				c0-2.3,1.4-4.4,3.6-5.3c0.3-0.1,0.6-0.2,0.9-0.4c2.1-0.9,4.6-0.5,6.3,1.1l0,0c2.2,2.2,5.8,2.2,8,0l5.8-5.9c2.2-2.2,2.2-5.8,0-8
				l0,0c-1.7-1.6-2.1-4.1-1.2-6.3c0.1-0.3,0.2-0.6,0.4-0.9C227.4,176.4,229.5,175,231.8,175z M220,175c-0.3,0.8-0.6,1.6-1,2.4
				c-2.8,6.1-7.7,11.1-13.8,14h0c-0.8,0.4-1.6,0.7-2.4,1c-3.1,1.2-6.5,1.8-10,1.8c-3.4,0-6.6-0.6-9.6-1.6c-0.8-0.3-1.6-0.6-2.4-1
				c-6.1-2.8-11.1-7.7-14-13.8c-0.4-0.8-0.7-1.6-1-2.4c-1.2-3.2-1.8-6.6-1.8-10.1c0-3.3,0.6-6.5,1.6-9.5c0.3-0.8,0.6-1.6,1-2.4
				c2.8-6.1,7.7-11.1,13.7-14.1c0.9-0.4,1.8-0.9,2.8-1.2c3.1-1.1,6.4-1.7,9.8-1.7c3.4,0,6.8,0.6,9.8,1.7c0.8,0.3,1.6,0.6,2.4,1
				c6.1,2.9,11,7.8,13.9,13.9c0.4,0.8,0.7,1.6,1,2.4c1.1,3.1,1.8,6.4,1.8,9.9C221.6,168.7,221,172,220,175z"/>
			<circle class="st16" cx="192.7" cy="165.3" r="28.9"/>
		</g>
		<g>
			
				<linearGradient id="SVGID_2_" gradientUnits="userSpaceOnUse" x1="-2.442" y1="272.0656" x2="31.5978" y2="272.0656" gradientTransform="matrix(0.9547 -0.2976 0.2976 0.9547 96.4325 -89.1561)">
				<stop  offset="0.3564" style="stop-color:#F7941D"/>
				<stop  offset="0.4341" style="stop-color:#F47D20"/>
				<stop  offset="0.5318" style="stop-color:#F26322"/>
				<stop  offset="0.6316" style="stop-color:#F04A23"/>
				<stop  offset="0.733" style="stop-color:#EE3424"/>
				<stop  offset="0.8371" style="stop-color:#EE2324"/>
				<stop  offset="0.948" style="stop-color:#ED1C24"/>
			</linearGradient>
			<path class="st4" d="M204.8,152.1c0.1,0.4,0.1,0.9-0.2,1.2l-18.3,25.5c-0.2,0.3-0.5,0.4-0.8,0.5c-0.5,0.2-1,0.1-1.4-0.3l-9-8.3
				c-0.6-0.5-0.6-1.5-0.1-2c0.2-0.2,0.4-0.3,0.6-0.4c0.5-0.1,1,0,1.4,0.3l7.9,7.3l17.3-24.2c0.4-0.6,1.3-0.8,1.9-0.3
				C204.5,151.6,204.7,151.9,204.8,152.1z"/>
			<linearGradient id="SVGID_3_" gradientUnits="userSpaceOnUse" x1="174.5014" y1="171.4862" x2="208.1449" y2="160.9978">
				<stop  offset="0.3564" style="stop-color:#F7941D"/>
				<stop  offset="0.4341" style="stop-color:#F47D20"/>
				<stop  offset="0.5318" style="stop-color:#F26322"/>
				<stop  offset="0.6316" style="stop-color:#F04A23"/>
				<stop  offset="0.733" style="stop-color:#EE3424"/>
				<stop  offset="0.8371" style="stop-color:#EE2324"/>
				<stop  offset="0.948" style="stop-color:#ED1C24"/>
			</linearGradient>
			<path class="st5" d="M203.4,151.2c0.3,0,0.6,0.1,0.8,0.3c0.3,0.2,0.4,0.4,0.5,0.7c0.1,0.4,0.1,0.9-0.2,1.2l-18.3,25.5
				c-0.2,0.3-0.5,0.4-0.8,0.5c-0.1,0-0.3,0.1-0.5,0.1c-0.3,0-0.7-0.1-1-0.4l-9-8.3c-0.6-0.5-0.6-1.5-0.1-2c0.2-0.2,0.4-0.3,0.6-0.4
				c0.1,0,0.3-0.1,0.4-0.1c0.4,0,0.7,0.1,1,0.4l7.9,7.3l17.3-24.2C202.6,151.4,203,151.2,203.4,151.2 M203.4,150.6L203.4,150.6
				c-0.6,0-1.2,0.3-1.6,0.8l-16.9,23.7l-7.4-6.8c-0.4-0.3-0.9-0.5-1.4-0.5c-0.2,0-0.4,0-0.6,0.1c-0.3,0.1-0.6,0.3-0.9,0.6
				c-0.4,0.4-0.6,0.9-0.5,1.5c0,0.5,0.3,1,0.7,1.4l9,8.3c0.4,0.3,0.9,0.5,1.4,0.5c0.2,0,0.4,0,0.6-0.1c0.4-0.1,0.8-0.4,1.1-0.8
				l18.3-25.5c0.4-0.5,0.5-1.2,0.3-1.7c-0.1-0.4-0.4-0.8-0.7-1C204.2,150.7,203.8,150.6,203.4,150.6L203.4,150.6z"/>
		</g>
	</g>
</g>
</svg>
