<?xml version="1.0" encoding="utf-8"?>
<!-- Generator: Adobe Illustrator 22.1.0, SVG Export Plug-In . SVG Version: 6.00 Build 0)  -->
<svg version="1.1" id="Layer_1" xmlns="http://www.w3.org/2000/svg" xmlns:xlink="http://www.w3.org/1999/xlink" x="0px" y="0px"
	 viewBox="0 0 249.3 214" style="enable-background:new 0 0 249.3 214;" xml:space="preserve">
<style type="text/css">
	.st0{fill:#FFFFFF;}
	.st1{fill:url(#SVGID_1_);}
	.st2{fill:none;stroke:#000000;stroke-width:2;stroke-miterlimit:10;}
	.st3{fill:#0D0C0C;}
	.st4{fill:url(#SVGID_2_);}
	.st5{fill:url(#SVGID_3_);}
	.st6{fill:url(#SVGID_4_);}
	.st7{fill:url(#SVGID_5_);}
	.st8{fill:none;stroke:#000000;stroke-width:3;stroke-miterlimit:10;}
	.st9{fill:none;stroke:url(#SVGID_6_);stroke-miterlimit:10;}
	.st10{fill:none;stroke:url(#SVGID_7_);stroke-linecap:round;stroke-miterlimit:10;}
	.st11{fill:url(#SVGID_12_);}
	.st12{fill:url(#SVGID_13_);}
	.st13{fill:url(#SVGID_14_);}
	.st14{fill:url(#SVGID_15_);}
	.st15{fill:url(#SVGID_16_);}
	.st16{stroke:#000000;stroke-miterlimit:10;}
	.st17{fill:#FFFFFF;stroke:#000000;stroke-miterlimit:10;}
	.st18{fill:url(#SVGID_17_);}
	.st19{fill:url(#SVGID_18_);}
	.st20{fill:url(#SVGID_19_);}
	.st21{fill:url(#SVGID_20_);}
	.st22{fill:url(#SVGID_21_);}
</style>
<g>
	<path d="M141.4,174.4c-7.8,0.8-16,0.7-24.1-0.3c-16.9-2.2-32.1-8.2-42.8-17c-10.5-8.6-15.3-18.7-13.7-28.6l2.6,0.3
		c-1.5,9.3,3.3,18.7,13.4,26.7c10.3,8.1,24.8,13.7,40.9,15.8c8.1,1.1,16.1,1.2,23.8,0.3c21.9-2.3,38.1-11.7,42.5-24.4
		c0.6-1.7,2.3-2.9,4.2-3.2h0c4.5-0.6,7.6,4,4.9,7.3C183.6,163,161.5,172.3,141.4,174.4z"/>
	<g>
		<path d="M54.6,187.8v-62.4c0-3.1,2.5-5.5,5.5-5.5h0c3.1,0,5.5,2.5,5.5,5.5v62.4"/>
	</g>
	<g>
		<path d="M183.7,187.8v-62.4c0-3.1,2.5-5.5,5.5-5.5h0c3.1,0,5.5,2.5,5.5,5.5v62.4"/>
	</g>
	<g>
		<circle cx="189.2" cy="110.9" r="7.9"/>
	</g>
	<g>
		<circle cx="60.1" cy="110.9" r="7.9"/>
	</g>
	<g>
		<path d="M189.9,21.6v66.2H60.7V21.6H189.9 M189.9,19.5H60.7c-1.1,0-2.1,0.9-2.1,2.1v66.2c0,1.1,0.9,2.1,2.1,2.1h129.1
			c1.1,0,2.1-0.9,2.1-2.1V21.6C192,20.4,191,19.5,189.9,19.5L189.9,19.5z"/>
	</g>
	<g>
		<linearGradient id="SVGID_1_" gradientUnits="userSpaceOnUse" x1="145.0978" y1="49.472" x2="159.2737" y2="49.472">
			<stop  offset="0.3564" style="stop-color:#F7941D"/>
			<stop  offset="0.4341" style="stop-color:#F47D20"/>
			<stop  offset="0.5318" style="stop-color:#F26322"/>
			<stop  offset="0.6316" style="stop-color:#F04A23"/>
			<stop  offset="0.733" style="stop-color:#EE3424"/>
			<stop  offset="0.8371" style="stop-color:#EE2324"/>
			<stop  offset="0.948" style="stop-color:#ED1C24"/>
		</linearGradient>
		<path class="st1" d="M152.2,56.6c-3.9,0-7.1-3.2-7.1-7.1s3.2-7.1,7.1-7.1c3.9,0,7.1,3.2,7.1,7.1S156.1,56.6,152.2,56.6z
			 M152.2,46.1c-1.8,0-3.3,1.5-3.3,3.3s1.5,3.3,3.3,3.3s3.3-1.5,3.3-3.3S154,46.1,152.2,46.1z"/>
	</g>
	<g>
		<linearGradient id="SVGID_2_" gradientUnits="userSpaceOnUse" x1="65.667" y1="57.2748" x2="184.7794" y2="57.2748">
			<stop  offset="0.3564" style="stop-color:#F7941D"/>
			<stop  offset="0.4341" style="stop-color:#F47D20"/>
			<stop  offset="0.5318" style="stop-color:#F26322"/>
			<stop  offset="0.6316" style="stop-color:#F04A23"/>
			<stop  offset="0.733" style="stop-color:#EE3424"/>
			<stop  offset="0.8371" style="stop-color:#EE2324"/>
			<stop  offset="0.948" style="stop-color:#ED1C24"/>
		</linearGradient>
		<path class="st4" d="M67.5,83.4c-0.3,0-0.6-0.1-0.9-0.2c-0.9-0.5-1.2-1.7-0.7-2.6c4.7-8.3,9.8-16.5,15.2-24.4
			c2.7-4,5.5-7.9,8.3-11.7l1-1.3c2.2-3,4.4-6.1,7.8-8.2c1.5-0.9,3.9-2,6.6-1.5c2.5,0.4,4.5,1.9,6.1,3.1l37.7,28.2
			c1.9,1.4,3.5,2.5,5.3,2.6c2.9,0,5.1-3.2,7-6.2c6.3-10.1,13.5-19.8,20.5-29.1c0.6-0.8,1.8-1,2.6-0.4c0.8,0.6,1,1.8,0.4,2.6
			c-7,9.3-14.1,18.8-20.3,28.8c-1.7,2.8-5,8-10.2,8c0,0,0,0,0,0c-3.1,0-5.7-1.9-7.5-3.3l-37.7-28.2c-1.3-1-2.9-2.1-4.4-2.4
			c-1.2-0.2-2.7,0.2-4.1,1c-2.7,1.6-4.7,4.4-6.6,7.1l-1,1.4c-2.8,3.8-5.6,7.7-8.2,11.6c-5.3,7.8-10.4,16-15,24.1
			C68.8,83,68.2,83.4,67.5,83.4z"/>
	</g>
	<g>
		<path d="M182.2,28.5v52.3H68.4V28.5H182.2 M182.2,26.5H68.4c-1.1,0-2.1,0.9-2.1,2.1v52.3c0,1.1,0.9,2.1,2.1,2.1h113.7
			c1.1,0,2.1-0.9,2.1-2.1V28.5C184.2,27.4,183.3,26.5,182.2,26.5L182.2,26.5z"/>
	</g>
</g>
</svg>
