<svg width="129" height="72" viewBox="0 0 129 72" fill="none" xmlns="http://www.w3.org/2000/svg">
<mask id="mask0_15_2428" style="mask-type:luminance" maskUnits="userSpaceOnUse" x="71" y="31" width="41" height="15">
<path d="M111.525 31.6235L107.736 45.7635H71.5156V37.1353C73.8517 36.6263 76.4491 31.6235 78.7856 31.6238C89.4653 31.624 100.844 31.6235 111.525 31.6235Z" fill="white"/>
</mask>
<g mask="url(#mask0_15_2428)">
<path d="M111.525 31.6235H71.5156V45.7635H111.525V31.6235Z" fill="url(#paint0_linear_15_2428)"/>
</g>
<path opacity="0.3" fill-rule="evenodd" clip-rule="evenodd" d="M79.0435 45.7639H71.5156V37.1353C73.8517 36.6262 76.4491 31.6235 78.7856 31.6237H82.8324L79.0435 45.7639Z" fill="#870000"/>
<path opacity="0.3" fill-rule="evenodd" clip-rule="evenodd" d="M105.174 39.7219H80.6641L82.8341 31.6238C92.3091 31.6238 102.185 31.6236 111.526 31.6236L109.356 39.7219H105.174Z" fill="white"/>
<path opacity="0.3" fill-rule="evenodd" clip-rule="evenodd" d="M105.174 39.7219H80.6641L98.5708 39.1747C98.5708 39.1747 102.458 38.9543 103.692 35.9196C104.925 32.885 97.1604 31.9457 85.9218 31.6238H85.921L111.526 31.6236L109.356 39.7219H105.174Z" fill="white"/>
<path opacity="0.3" fill-rule="evenodd" clip-rule="evenodd" d="M80.6622 39.7219H105.173L80.1943 41.4689L76.7575 41.7092L76.0703 41.7573C76.1334 41.5206 76.1969 41.2834 76.2607 41.0464C76.3789 40.605 76.4971 40.1635 76.6155 39.7219L80.6622 39.7219Z" fill="#870000"/>
<mask id="mask1_15_2428" style="mask-type:luminance" maskUnits="userSpaceOnUse" x="60" y="6" width="24" height="40">
<path d="M70.9414 6.7522L60.4883 45.7638H75.127C77.9969 35.0543 80.7843 24.6507 83.6007 14.1403C84.1612 12.048 80.3967 9.05057 80.0197 6.7522H70.9414Z" fill="white"/>
</mask>
<g mask="url(#mask1_15_2428)">
<path d="M84.1612 6.7522H60.4883V45.7638H84.1612V6.7522Z" fill="url(#paint1_linear_15_2428)"/>
</g>
<path opacity="0.3" fill-rule="evenodd" clip-rule="evenodd" d="M70.9412 6.75224L67.9141 18.0491H82.553L83.6004 14.1403C84.161 12.048 80.3964 9.05057 80.0195 6.7522L70.9412 6.75224Z" fill="#870000"/>
<path opacity="0.3" fill-rule="evenodd" clip-rule="evenodd" d="M69.9549 41.7235L76.2985 18.049H67.9144C65.4622 27.2013 62.906 36.7405 60.4883 45.7635H68.8723L69.9549 41.7235Z" fill="white"/>
<path opacity="0.3" fill-rule="evenodd" clip-rule="evenodd" d="M69.9549 41.7235L76.2985 18.049L71.1351 35.2039C71.1351 35.2039 69.9163 38.9014 66.6656 39.3077C63.4151 39.7142 64.5174 31.9705 67.1152 21.0315L67.1155 21.0306L60.4883 45.7635H68.8723L69.9549 41.7235Z" fill="white"/>
<path opacity="0.3" fill-rule="evenodd" clip-rule="evenodd" d="M76.297 18.0491L69.9531 41.7244L78.1053 18.0491L79.2271 14.7915L79.4515 14.1401C79.206 14.1401 78.9608 14.1401 78.7153 14.1401C78.2582 14.1401 77.8013 14.1401 77.3442 14.1401L76.297 18.0491Z" fill="#870000"/>
<mask id="mask2_15_2428" style="mask-type:luminance" maskUnits="userSpaceOnUse" x="68" y="0" width="52" height="15">
<path d="M119.955 0.152161H72.707L68.918 14.2923H116.166L119.098 3.34877L119.955 0.152161Z" fill="white"/>
</mask>
<g mask="url(#mask2_15_2428)">
<path d="M119.955 0.152161H68.918V14.2923H119.955V0.152161Z" fill="url(#paint2_linear_15_2428)"/>
</g>
<path opacity="0.3" fill-rule="evenodd" clip-rule="evenodd" d="M116.17 14.2924H68.9219L70.9421 6.7522H118.19L116.17 14.2924Z" fill="white"/>
<path opacity="0.3" fill-rule="evenodd" clip-rule="evenodd" d="M70.9421 6.7522H79.0072C76.2593 6.7522 73.4795 6.85285 70.8639 7.0448L70.9421 6.7522ZM116.17 14.2924H68.9219L69.0399 13.8513C77.2733 13.8201 98.1423 13.736 116.335 13.677L116.17 14.2924Z" fill="white"/>
<path opacity="0.3" fill-rule="evenodd" clip-rule="evenodd" d="M118.501 5.59177L71.0304 6.42078L70.9414 6.75211H118.19L118.501 5.59177Z" fill="#870000"/>
<mask id="mask3_15_2428" style="mask-type:luminance" maskUnits="userSpaceOnUse" x="44" y="0" width="25" height="36">
<path d="M68.724 0H54.085L44.6016 35.3937H55.1494C57.165 34.2099 59.8394 33.1575 60.2504 31.6236C63.014 21.3076 65.9597 10.3165 68.724 0Z" fill="white"/>
</mask>
<g mask="url(#mask3_15_2428)">
<path d="M68.7239 0H44.6016V35.3937H68.7239V0Z" fill="url(#paint3_linear_15_2428)"/>
</g>
<path opacity="0.3" fill-rule="evenodd" clip-rule="evenodd" d="M46.651 27.7148L44.5938 35.3936H55.1416C57.1572 34.2098 59.8316 33.1575 60.2426 31.6235L61.2899 27.7148H46.651Z" fill="#870000"/>
<path opacity="0.3" fill-rule="evenodd" clip-rule="evenodd" d="M38.5401 25.4138L40.7762 17.0681C42.3009 11.3788 43.8253 5.68951 45.3499 0H37.5976L36.5148 4.04031L35.4794 7.9057L34.5502 11.3729L30.5547 26.2838C30.5547 26.2838 34.2156 14.2164 35.5157 11.4128C36.8161 8.60933 40.0668 8.77176 40.9201 9.99084C41.7733 11.2097 38.8423 22.1053 38.5401 25.4138Z" fill="white"/>
<path opacity="0.3" fill-rule="evenodd" clip-rule="evenodd" d="M59.2499 4.04031L52.9062 27.7148H61.2903C63.7425 18.5622 66.2987 9.02329 68.7165 0H60.3322L59.2499 4.04031Z" fill="white"/>
<path opacity="0.3" fill-rule="evenodd" clip-rule="evenodd" d="M59.2499 4.04031L52.9062 27.7148L58.0696 10.5596C58.0696 10.5596 59.2885 6.86233 62.5392 6.45585C65.7897 6.04959 64.6873 13.7931 62.0895 24.732L62.0893 24.733L68.7166 0H60.3323L59.2499 4.04031Z" fill="white"/>
<path opacity="0.3" fill-rule="evenodd" clip-rule="evenodd" d="M52.9084 27.7149L59.2523 4.0394L51.1001 27.7149L49.9783 30.9722L49.7539 31.6237C49.9994 31.6237 50.2446 31.6237 50.4897 31.6237C50.947 31.6237 51.404 31.6237 51.8611 31.6237L52.9084 27.7149Z" fill="#870000"/>
<mask id="mask4_15_2428" style="mask-type:luminance" maskUnits="userSpaceOnUse" x="12" y="0" width="25" height="36">
<path d="M36.9391 0H22.3001L12.8164 35.3937H23.3645C25.3801 34.2099 28.0545 33.1575 28.4654 31.6236C31.2292 21.3076 34.1749 10.3165 36.9391 0Z" fill="white"/>
</mask>
<g mask="url(#mask4_15_2428)">
<path d="M36.939 0H12.8164V35.3937H36.939V0Z" fill="url(#paint4_linear_15_2428)"/>
</g>
<path opacity="0.3" fill-rule="evenodd" clip-rule="evenodd" d="M14.8779 27.7148L13.8306 31.6234L13.2398 33.8279L12.8203 35.3937H23.3684C25.384 34.2099 28.0584 33.1576 28.4693 31.6236L29.5166 27.7148L14.8779 27.7148Z" fill="#870000"/>
<path opacity="0.3" fill-rule="evenodd" clip-rule="evenodd" d="M27.4726 4.04031L21.1289 27.7148H29.5127C31.9649 18.5622 34.5214 9.02329 36.9391 0H28.5549L27.4726 4.04031Z" fill="white"/>
<path opacity="0.3" fill-rule="evenodd" clip-rule="evenodd" d="M27.4726 4.04031L21.1289 27.7148L26.292 10.5596C26.292 10.5596 27.5111 6.86233 30.7617 6.45585C34.0124 6.04959 32.9099 13.7931 30.3122 24.732L30.3117 24.733L36.9391 0H28.5549L27.4726 4.04031Z" fill="white"/>
<path opacity="0.3" fill-rule="evenodd" clip-rule="evenodd" d="M21.1311 27.7149L27.4749 4.0394L19.3225 27.7149L18.2007 30.9722L17.9766 31.6237C18.222 31.6237 18.467 31.6237 18.7125 31.6237C19.1698 31.6237 19.6267 31.6237 20.0838 31.6237L21.1311 27.7149Z" fill="#870000"/>
<mask id="mask5_15_2428" style="mask-type:luminance" maskUnits="userSpaceOnUse" x="10" y="31" width="51" height="15">
<path d="M10.0391 45.7637H56.4547L60.2437 31.6235H13.828L10.0391 45.7637Z" fill="white"/>
</mask>
<g mask="url(#mask5_15_2428)">
<path d="M60.2437 31.6235H10.0391V45.7638H60.2437V31.6235Z" fill="url(#paint5_linear_15_2428)"/>
</g>
<path opacity="0.3" fill-rule="evenodd" clip-rule="evenodd" d="M13.8291 31.6236H60.2447L58.2245 39.1637H11.8086L13.8291 31.6236Z" fill="white"/>
<path opacity="0.3" fill-rule="evenodd" clip-rule="evenodd" d="M58.2258 39.1637H50.1609C52.9089 39.1637 55.6882 39.0631 58.3043 38.8712L58.2258 39.1637ZM13.8304 31.6236H60.2461L60.128 32.0648C50.0999 32.1029 28.9353 32.2194 13.6562 32.2731L13.8304 31.6236Z" fill="white"/>
<path opacity="0.3" fill-rule="evenodd" clip-rule="evenodd" d="M11.457 40.4754L58.1356 39.495L58.2244 39.1636H11.8085L11.457 40.4754Z" fill="#870000"/>
<path fill-rule="evenodd" clip-rule="evenodd" d="M129.009 49.6556V63.6803H125.593V55.2693L122.456 63.6803H119.699L116.543 55.2496V63.6803H113.126V49.6556H117.162L121.098 59.365L124.994 49.6556H129.009ZM102.398 49.6556V58.0465C102.398 58.8855 102.605 59.5313 103.017 59.9842C103.43 60.4373 104.036 60.6634 104.835 60.6634C105.634 60.6634 106.247 60.4373 106.673 59.9842C107.1 59.5313 107.313 58.8855 107.313 58.0465V49.6556H110.729V58.0263C110.729 59.2785 110.463 60.3371 109.93 61.2029C109.397 62.0688 108.681 62.7214 107.782 63.1609C106.883 63.6003 105.881 63.8201 104.776 63.8201C103.67 63.8201 102.681 63.6036 101.809 63.1708C100.937 62.738 100.247 62.0854 99.7412 61.213C99.235 60.3404 98.9819 59.2785 98.9819 58.0263V49.6556H102.398ZM91.8297 63.8201C90.8042 63.8201 89.8851 63.6536 89.0728 63.3207C88.2602 62.9879 87.6109 62.4948 87.1249 61.8424C86.6386 61.1899 86.3822 60.404 86.3556 59.4849H89.9916C90.0448 60.0043 90.2247 60.4007 90.5309 60.6737C90.8375 60.9466 91.237 61.0831 91.7296 61.0831C92.2358 61.0831 92.6355 60.9665 92.9283 60.7336C93.2215 60.5004 93.3679 60.1774 93.3679 59.7645C93.3679 59.4183 93.2513 59.1319 93.0184 58.9055C92.7854 58.6791 92.499 58.4927 92.1594 58.3461C91.8197 58.1996 91.3367 58.0329 90.7109 57.8466C89.8051 57.567 89.0662 57.2874 88.4931 57.0076C87.9205 56.7279 87.4279 56.3148 87.0149 55.769C86.602 55.2229 86.3956 54.5102 86.3956 53.631C86.3956 52.326 86.8685 51.3037 87.8141 50.5644C88.7597 49.8253 89.9916 49.4558 91.5101 49.4558C93.0552 49.4558 94.3003 49.8253 95.246 50.5644C96.1915 51.3037 96.6977 52.3326 96.7643 53.6512H93.0684C93.0416 53.1982 92.8752 52.8421 92.5687 52.5823C92.2626 52.3228 91.8696 52.1926 91.3902 52.1926C90.9771 52.1926 90.6442 52.3026 90.3914 52.5222C90.138 52.7422 90.0115 53.0583 90.0115 53.4712C90.0115 53.9242 90.2248 54.277 90.6508 54.5304C91.0772 54.7833 91.7432 55.0563 92.6487 55.3493C93.5544 55.6557 94.2903 55.9486 94.8565 56.2282C95.4225 56.508 95.9119 56.9141 96.3248 57.4471C96.7379 57.9798 96.9443 58.6657 96.9443 59.5048C96.9443 60.3038 96.7411 61.03 96.3348 61.6824C95.9286 62.335 95.3393 62.8544 94.5666 63.2407C93.7941 63.6271 92.8819 63.8201 91.8297 63.8201ZM79.563 55.9287C80.2156 55.9287 80.7016 55.7755 81.0214 55.4691C81.3411 55.163 81.5009 54.73 81.5009 54.1708C81.5009 53.6113 81.3411 53.1783 81.0214 52.872C80.7017 52.5658 80.2156 52.4127 79.563 52.4127H77.7049V55.9288L79.563 55.9287ZM84.9771 54.1707C84.9771 54.9831 84.7908 55.7255 84.4178 56.3983C84.0449 57.0706 83.4723 57.6134 82.6996 58.0263C81.9271 58.4393 80.9681 58.6457 79.8227 58.6457H77.7049V63.6803H74.2888V49.6556H79.8227C80.9414 49.6556 81.8872 49.8486 82.6597 50.2348C83.4324 50.6212 84.0116 51.1539 84.3979 51.833C84.784 52.5123 84.9771 53.2915 84.9771 54.1707ZM71.8114 49.6556V63.6803H68.395V49.6556H71.8114ZM65.938 49.6556V63.6803H62.5217V55.2693L59.3851 63.6803H56.6281L53.4712 55.2496V63.6803H50.0551V49.6556H54.0908L58.0263 59.365L61.9223 49.6556H65.938ZM42.6631 52.3925V55.2294H47.238V57.8665H42.6631V60.9433H47.8373V63.6804H39.2467V49.6557H47.8373V52.3925L42.6631 52.3925ZM29.6372 55.9688H31.755C32.3808 55.9688 32.8504 55.8154 33.1634 55.509C33.4765 55.2029 33.633 54.7701 33.633 54.2106C33.633 53.6777 33.4765 53.2583 33.1634 52.9519C32.8504 52.6458 32.3808 52.4924 31.755 52.4924H29.6372V55.9688ZM33.3731 63.6803L30.4564 58.3859H29.6372V63.6803H26.2208V49.6556H31.9548C33.0602 49.6556 34.0025 49.8486 34.7815 50.2348C35.5607 50.6212 36.1437 51.1506 36.5298 51.8232C36.9159 52.4959 37.1092 53.2451 37.1092 54.0707C37.1092 55.003 36.846 55.8353 36.32 56.5681C35.7939 57.3006 35.0179 57.8199 33.9925 58.1264L37.229 63.6803H33.3731ZM17.1508 60.7035C18.2696 60.7035 19.1654 60.3305 19.838 59.5846C20.5105 58.8389 20.8468 57.8531 20.8468 56.628C20.8468 55.3892 20.5104 54.4004 19.838 53.661C19.1654 52.9221 18.2696 52.5521 17.1508 52.5521C16.0188 52.5521 15.1163 52.9186 14.4436 53.6512C13.7713 54.3837 13.4349 55.376 13.4349 56.628C13.4349 57.8665 13.7713 58.8555 14.4436 59.5949C15.1163 60.3339 16.0188 60.7035 17.1508 60.7035ZM17.1508 63.8201C15.8323 63.8201 14.6235 63.5138 13.5247 62.9011C12.426 62.2886 11.5536 61.4328 10.9076 60.3339C10.2618 59.2354 9.93875 57.9998 9.93875 56.628C9.93875 55.2562 10.2618 54.0242 10.9076 52.932C11.5536 51.8398 12.426 50.9873 13.5247 50.3749C14.6235 49.762 15.8323 49.4558 17.1508 49.4558C18.4694 49.4558 19.6779 49.7619 20.7769 50.3749C21.8757 50.9874 22.7413 51.8398 23.3742 52.932C24.0069 54.0242 24.3231 55.2562 24.3231 56.628C24.3231 57.9998 24.0036 59.2353 23.3642 60.3339C22.7249 61.4328 21.8591 62.2886 20.7672 62.9011C19.6747 63.5137 18.4694 63.8201 17.1508 63.8201ZM104.661 66.7211H104.027V71.8818H104.86V68.2397L107.787 71.8818H108.413V66.7211H107.588V70.3928L104.661 66.7211ZM97.8197 70.046H95.6375L96.7286 67.5908L97.8197 70.046ZM98.6161 71.8818H99.4933L97.1783 66.7211H96.2787L93.9637 71.8818H94.8411L95.3279 70.7982H98.1219L98.6161 71.8818ZM89.6589 67.3772C89.1328 66.8561 88.4963 66.5956 87.7491 66.5956C86.9037 66.5956 86.2402 66.8598 85.7587 67.3882C85.2771 67.9165 85.036 68.5715 85.036 69.3532C85.036 69.7071 85.0902 70.0376 85.1982 70.3446C85.3065 70.6518 85.4662 70.9296 85.6775 71.1777C85.8889 71.426 86.1727 71.6226 86.529 71.7676C86.8853 71.9125 87.292 71.985 87.7491 71.985C88.5551 71.985 89.231 71.6852 89.7768 71.0857V68.9697H87.5723V69.7071H89.0098V70.7539C88.6463 71.0587 88.226 71.211 87.7491 71.211C87.12 71.211 86.6458 71.0316 86.3263 70.6728C86.0068 70.3139 85.8471 69.8741 85.8471 69.3532C85.8422 68.788 86.0118 68.3134 86.3559 67.9303C86.6999 67.5468 87.1643 67.3553 87.7491 67.3553C87.9951 67.3553 88.2444 67.4031 88.4978 67.4988C88.7507 67.5946 88.9658 67.7311 89.1427 67.908L89.6589 67.3772ZM76.0938 69.3382C76.0938 68.7584 76.2546 68.2867 76.5768 67.9226C76.8987 67.5591 77.3497 67.3772 77.9295 67.3772C78.3277 67.382 78.6683 67.4839 78.9509 67.6831C79.2332 67.8824 79.4347 68.1242 79.5553 68.4096C79.6756 68.6944 79.7359 69.0041 79.7359 69.3382C79.7359 69.8791 79.5836 70.3299 79.2788 70.6912C78.9742 71.0526 78.5194 71.2329 77.9148 71.2329C77.61 71.2329 77.3385 71.1777 77.1001 71.067C76.8619 70.9566 76.6714 70.8091 76.529 70.6248C76.3863 70.4405 76.2794 70.2391 76.2082 70.0205C76.1368 69.8018 76.0989 69.5743 76.0938 69.3382ZM77.9296 66.6251C77.1532 66.6251 76.5168 66.8795 76.0202 67.3881C75.5236 67.897 75.2756 68.5443 75.2756 69.3308C75.2756 69.6799 75.3308 70.0104 75.4414 70.3226C75.5521 70.6347 75.7119 70.9161 75.9208 71.1668C76.1295 71.4174 76.4061 71.6175 76.75 71.7676C77.094 71.9175 77.4825 71.9925 77.9149 71.9925C78.3476 71.9925 78.7358 71.9199 79.0796 71.7752C79.4238 71.6298 79.7002 71.4321 79.9093 71.1817C80.1182 70.9308 80.2779 70.647 80.3884 70.3299C80.499 70.0128 80.5543 69.6775 80.5543 69.3236C80.5543 68.5766 80.3259 67.9413 79.8688 67.4177C79.4114 66.8944 78.7651 66.6302 77.9296 66.6251ZM67.5718 66.7211V71.8818H71.1178V71.1152H68.3974V66.7211H67.5718ZM62.5957 67.4436C62.2319 66.8637 61.5905 66.5736 60.6714 66.5736C60.4256 66.5736 60.1898 66.6016 59.9636 66.6584C59.7375 66.7147 59.5261 66.7998 59.3294 66.9128C59.1331 67.0257 58.9755 67.1806 58.8578 67.3772C58.7399 67.574 58.6807 67.7999 58.6807 68.0554C58.6807 68.2669 58.7189 68.4547 58.7951 68.6195C58.8712 68.784 58.9672 68.9182 59.0826 69.0214C59.1981 69.1244 59.3494 69.213 59.536 69.2868C59.7227 69.3604 59.9009 69.4169 60.0705 69.4562C60.2401 69.4956 60.4428 69.5301 60.6786 69.5596C61.0917 69.6135 61.4147 69.7034 61.6483 69.8285C61.8817 69.9539 61.9985 70.1469 61.9985 70.4074C61.9985 70.6089 61.931 70.7772 61.7958 70.9124C61.6606 71.0475 61.4998 71.1399 61.3128 71.1889C61.1261 71.238 60.9197 71.2625 60.6936 71.2625C59.9561 71.2625 59.4206 70.9801 59.0861 70.4147L58.4671 70.8276C58.8896 71.6093 59.6294 72 60.686 72C61.0696 72 61.4146 71.9493 61.722 71.8488C62.0292 71.7479 62.2897 71.5746 62.5034 71.329C62.7173 71.0831 62.8242 70.7761 62.8242 70.4075C62.8242 70.1322 62.769 69.8949 62.6583 69.696C62.5478 69.4968 62.3868 69.3397 62.1753 69.2241C61.9641 69.1087 61.7502 69.0214 61.5341 68.9623C61.3177 68.9033 61.0573 68.8517 60.7527 68.8076C60.3447 68.7486 60.0336 68.6674 59.8198 68.5643C59.606 68.4608 59.4993 68.2965 59.4993 68.0702C59.4993 67.8296 59.6099 67.6391 59.831 67.4988C60.0522 67.3589 60.3397 67.2887 60.6936 67.2887C60.9638 67.2937 61.2132 67.3465 61.4419 67.4471C61.6705 67.5479 61.846 67.6868 61.969 67.8637L62.5957 67.4436ZM52.1566 67.473C52.4761 67.473 52.7194 67.5676 52.8866 67.7568C53.0537 67.9461 53.1372 68.1685 53.1372 68.424C53.1372 68.6846 53.0538 68.9032 52.8866 69.0804C52.7194 69.2571 52.4737 69.3457 52.1492 69.3457H50.5788V67.473H52.1566ZM54.1179 71.7343L52.5767 70.0164C53.0538 69.9476 53.4061 69.7645 53.635 69.4673C53.8635 69.1699 53.9777 68.8171 53.9777 68.4096C53.9777 67.9474 53.8169 67.5505 53.4947 67.2188C53.1728 66.887 52.7268 66.7211 52.1566 66.7211C51.8913 66.7211 51.4907 66.7198 50.9549 66.7174C50.4191 66.7148 50.0185 66.7137 49.7534 66.7137V71.8819H50.5789V70.0979H51.67L53.2403 71.8819H54.2065L54.1179 71.7343ZM43.8854 66.7285V69.7438C43.8854 70.2253 43.7524 70.5978 43.487 70.8608C43.2219 71.1238 42.8778 71.2428 42.4549 71.2183C42.0618 71.2036 41.7447 71.0686 41.504 70.8128C41.2629 70.5571 41.1426 70.2007 41.1426 69.7438V66.7285H40.3242V69.7438C40.3242 70.4419 40.5271 70.9851 40.9325 71.3732C41.3382 71.7615 41.8455 71.9631 42.4549 71.9778C43.1087 72.0023 43.6468 71.819 44.0695 71.4283C44.4922 71.0376 44.7037 70.4762 44.7037 69.7438V66.7285H43.8854ZM31.1313 69.3382C31.1313 68.7584 31.2922 68.2867 31.6143 67.9226C31.9362 67.5591 32.387 67.3772 32.967 67.3772C33.3652 67.382 33.7055 67.4839 33.9883 67.6831C34.2707 67.8824 34.4723 68.1242 34.5928 68.4096C34.7132 68.6944 34.7734 69.0041 34.7734 69.3382C34.7734 69.8791 34.6211 70.3299 34.3163 70.6912C34.0117 71.0526 33.5569 71.2329 32.9523 71.2329C32.6475 71.2329 32.376 71.1777 32.1376 71.067C31.8994 70.9566 31.7089 70.8091 31.5663 70.6248C31.4238 70.4405 31.3169 70.2391 31.2457 70.0205C31.1743 69.8018 31.1362 69.5743 31.1313 69.3382ZM32.967 66.6251C32.1904 66.6251 31.554 66.8795 31.0577 67.3881C30.5611 67.897 30.313 68.5443 30.313 69.3308C30.313 69.6799 30.3682 70.0104 30.4789 70.3226C30.5896 70.6347 30.7493 70.9161 30.958 71.1668C31.1668 71.4174 31.4434 71.6175 31.7874 71.7676C32.1315 71.9175 32.52 71.9925 32.9523 71.9925C33.385 71.9925 33.773 71.9199 34.117 71.7752C34.4613 71.6298 34.7377 71.4321 34.9467 71.1817C35.1556 70.9308 35.3153 70.647 35.4258 70.3299C35.5364 70.0128 35.5917 69.6775 35.5917 69.3236C35.5917 68.5766 35.3633 67.9413 34.9062 67.4177C34.4489 66.8944 33.8026 66.6302 32.967 66.6251ZM22.5651 66.7211H21.5845V66.7579L23.5749 69.766V71.8818H24.4009V69.766L26.4505 66.7579V66.7211H25.4551L23.988 68.999L22.5651 66.7211ZM4.40467 61.0431H8.87991V63.6803H0.988281V49.6556H4.40462L4.40467 61.0431Z" fill="black"/>
<defs>
<linearGradient id="paint0_linear_15_2428" x1="15.4068" y1="75.3818" x2="168.699" y2="1.49133" gradientUnits="userSpaceOnUse">
<stop stop-color="#FF0000"/>
<stop offset="1" stop-color="#FFFF00"/>
</linearGradient>
<linearGradient id="paint1_linear_15_2428" x1="84.8469" y1="-62.8884" x2="65.0484" y2="78.0584" gradientUnits="userSpaceOnUse">
<stop stop-color="#FF0000"/>
<stop offset="1" stop-color="#FFFF00"/>
</linearGradient>
<linearGradient id="paint2_linear_15_2428" x1="141.627" y1="-7.28157" x2="31.5564" y2="26.5482" gradientUnits="userSpaceOnUse">
<stop stop-color="#FF0000"/>
<stop offset="1" stop-color="#FFFF00"/>
</linearGradient>
<linearGradient id="paint3_linear_15_2428" x1="51.6368" y1="47.8017" x2="62.3362" y2="-16.2862" gradientUnits="userSpaceOnUse">
<stop stop-color="#FF0000"/>
<stop offset="1" stop-color="#FFFF00"/>
</linearGradient>
<linearGradient id="paint4_linear_15_2428" x1="19.8517" y1="47.8023" x2="30.551" y2="-16.2857" gradientUnits="userSpaceOnUse">
<stop stop-color="#FF0000"/>
<stop offset="1" stop-color="#FFFF00"/>
</linearGradient>
<linearGradient id="paint5_linear_15_2428" x1="-42.6827" y1="76.2065" x2="110.61" y2="2.3161" gradientUnits="userSpaceOnUse">
<stop stop-color="#FF0000"/>
<stop offset="1" stop-color="#FFFF00"/>
</linearGradient>
</defs>
</svg>
