<svg width="168" height="72" viewBox="0 0 168 72" fill="none" xmlns="http://www.w3.org/2000/svg">
<path fill-rule="evenodd" clip-rule="evenodd" d="M44.0925 68.0216C35.8486 72.4739 25.949 73.4393 17.3661 69.638C16.2774 69.1561 15.2607 68.6135 14.3107 68.0216C7.89587 64.0263 4.52888 57.7926 2.78529 52.8698C0.934891 47.644 0.609314 37.8843 0.670924 28.4163C0.717576 21.2809 0.984112 14.3109 0.984112 9.57226H19.5813C19.5813 17.8815 19.5813 26.1911 19.5813 34.5005C19.8445 41.7147 21.6099 50.382 31.3156 52.7302C44.419 55.9005 54.7749 42.2687 51.3932 29.2708C48.0118 16.2733 37.1273 11.4122 37.1273 11.4122C47.6445 16.8517 56.6753 39.5268 43.0546 42.7979C35.7589 44.5503 32.4323 39.576 30.841 33.3738C27.3002 19.5747 32.6262 7.08046 14.5133 0.000216828C28.3228 -0.0293031 38.4094 2.95761 45.6117 7.6072C64.092 19.5383 63.5841 42.4151 58.2615 53.3646C57.7833 54.3482 57.2578 55.3 56.6894 56.2183C53.5654 61.2639 49.1393 65.2962 44.0925 68.0216Z" fill="#6B2A3C"/>
<path fill-rule="evenodd" clip-rule="evenodd" d="M167.336 27.6789V38.2187H164.769V31.8977L162.412 38.2187H160.34L157.967 31.8827V38.2187H155.4V27.6789H158.433L161.391 34.9755L164.319 27.6789H167.336ZM147.337 27.6789V33.9847C147.337 34.6154 147.492 35.1007 147.803 35.4412C148.113 35.7814 148.568 35.9514 149.169 35.9514C149.769 35.9514 150.23 35.7814 150.55 35.4412C150.871 35.1007 151.031 34.6154 151.031 33.9847V27.6789H153.598V33.9698C153.598 34.9105 153.398 35.7062 152.998 36.3569C152.597 37.0074 152.059 37.498 151.384 37.8284C150.708 38.1587 149.955 38.324 149.124 38.324C148.293 38.324 147.55 38.1611 146.895 37.8358C146.239 37.5106 145.721 37.0202 145.341 36.3647C144.96 35.7087 144.77 34.9105 144.77 33.9698V27.6789H147.337ZM139.395 38.3239C138.624 38.3239 137.933 38.1987 137.323 37.9484C136.712 37.6982 136.224 37.3277 135.859 36.8374C135.493 36.3469 135.301 35.7566 135.281 35.0658H138.014C138.054 35.4562 138.189 35.7542 138.419 35.9593C138.649 36.1644 138.95 36.2668 139.32 36.2668C139.7 36.2668 140.001 36.1794 140.221 36.0041C140.441 35.8291 140.551 35.5863 140.551 35.276C140.551 35.0157 140.463 34.8006 140.288 34.6304C140.113 34.46 139.898 34.32 139.643 34.2101C139.387 34.0999 139.025 33.9748 138.554 33.8346C137.873 33.6246 137.318 33.4144 136.888 33.2039C136.457 32.9938 136.087 32.6835 135.777 32.2732C135.466 31.8629 135.311 31.3271 135.311 30.6665C135.311 29.6856 135.666 28.9173 136.377 28.3619C137.088 27.8062 138.014 27.5286 139.155 27.5286C140.316 27.5286 141.252 27.8062 141.962 28.3619C142.673 28.9173 143.053 29.6906 143.104 30.6815H140.326C140.306 30.3413 140.181 30.0735 139.95 29.8784C139.72 29.6832 139.425 29.5853 139.064 29.5853C138.754 29.5853 138.504 29.6682 138.314 29.8332C138.124 29.9985 138.028 30.236 138.028 30.5464C138.028 30.8866 138.189 31.1521 138.509 31.3424C138.829 31.5326 139.33 31.7377 140.011 31.9578C140.691 32.1882 141.244 32.4083 141.669 32.6184C142.095 32.8289 142.463 33.134 142.773 33.5343C143.083 33.9349 143.239 34.4504 143.239 35.0808C143.239 35.6813 143.086 36.2271 142.781 36.7174C142.475 37.208 142.032 37.598 141.452 37.8885C140.871 38.1785 140.186 38.3239 139.395 38.3239ZM130.176 32.3932C130.666 32.3932 131.032 32.2781 131.272 32.0478C131.513 31.8177 131.632 31.4923 131.632 31.0721C131.632 30.6515 131.513 30.3262 131.272 30.0958C131.032 29.8657 130.666 29.7507 130.176 29.7507H128.78V32.3933L130.176 32.3932ZM134.245 31.0721C134.245 31.6824 134.105 32.2404 133.825 32.746C133.544 33.2515 133.114 33.6592 132.533 33.9697C131.953 34.2801 131.232 34.435 130.371 34.435H128.78V38.2187H126.212V27.6789H130.371C131.212 27.6789 131.923 27.8236 132.503 28.1141C133.084 28.4045 133.519 28.8048 133.81 29.3151C134.1 29.8257 134.245 30.4112 134.245 31.0721ZM124.35 27.6789V38.2187H121.783V27.6789H124.35ZM119.936 27.6789V38.2187H117.369V31.8977L115.012 38.2187H112.94L110.567 31.8827V38.2187H108V27.6789H111.033L113.991 34.9755L116.919 27.6789H119.936ZM102.445 29.7357V31.8678H105.883V33.8495H102.445V36.1619H106.333V38.2187H99.8772V27.6789H106.333V29.7357H102.445ZM92.6552 32.4231H94.2469C94.7173 32.4231 95.0704 32.308 95.3054 32.0779C95.5408 31.8476 95.658 31.5225 95.658 31.102C95.658 30.7016 95.5408 30.3863 95.3054 30.1559C95.0703 29.9259 94.7173 29.8108 94.2469 29.8108H92.6552V32.4231ZM95.4629 38.2187L93.271 34.2399H92.6552V38.2187H90.0879V27.6789H94.397C95.2279 27.6789 95.9361 27.8236 96.5217 28.1141C97.107 28.4045 97.5452 28.8023 97.8354 29.3077C98.1256 29.8132 98.271 30.3763 98.271 30.9968C98.271 31.6976 98.0729 32.3233 97.6779 32.8737C97.2822 33.4243 96.6991 33.8144 95.9287 34.0448L98.3609 38.2187H95.4629ZM83.2717 35.9817C84.1121 35.9817 84.7855 35.7012 85.2911 35.1409C85.7963 34.5801 86.049 33.8396 86.049 32.9188C86.049 31.9876 85.7963 31.2446 85.2911 30.6888C84.7855 30.1335 84.1121 29.8555 83.2717 29.8555C82.4205 29.8555 81.7425 30.1311 81.2369 30.6813C80.7317 31.2321 80.4789 31.9776 80.4789 32.9187C80.4789 33.8495 80.7318 34.5926 81.2369 35.1483C81.7426 35.7037 82.4206 35.9817 83.2717 35.9817ZM83.2717 38.3239C82.2804 38.3239 81.3721 38.0935 80.5465 37.6332C79.7206 37.1727 79.065 36.5296 78.5794 35.7037C78.0941 34.8781 77.8513 33.9495 77.8513 32.9188C77.8513 31.8877 78.0941 30.9619 78.5794 30.1409C79.065 29.3204 79.7206 28.6796 80.5465 28.2193C81.3721 27.7586 82.2804 27.5286 83.2717 27.5286C84.2625 27.5286 85.1706 27.7587 85.9965 28.2193C86.8224 28.6797 87.473 29.3204 87.9485 30.1409C88.4241 30.9618 88.6616 31.8876 88.6616 32.9188C88.6616 33.9495 88.4216 34.8781 87.941 35.7037C87.4606 36.5296 86.8099 37.1727 85.989 37.6332C85.1684 38.0935 84.2625 38.3239 83.2717 38.3239ZM149.038 40.504H148.561V44.3825H149.187V41.6452L151.387 44.3825H151.858V40.504H151.238V43.2633L149.038 40.504ZM143.897 43.0028H142.257L143.076 41.1577L143.897 43.0028ZM144.495 44.3825H145.155L143.415 40.504H142.738L140.999 44.3825H141.658L142.024 43.5681H144.124L144.495 44.3825ZM137.763 40.997C137.368 40.6054 136.89 40.4096 136.328 40.4096C135.693 40.4096 135.194 40.6081 134.832 41.0054C134.47 41.4024 134.289 41.8945 134.289 42.4819C134.289 42.7478 134.33 42.9966 134.411 43.2272C134.493 43.4579 134.612 43.6668 134.771 43.8533C134.93 44.0398 135.143 44.1876 135.411 44.2966C135.679 44.4055 135.985 44.46 136.328 44.46C136.934 44.46 137.442 44.2346 137.852 43.7842V42.1937H136.195V42.7479H137.276V43.5348C137.002 43.7636 136.687 43.8783 136.328 43.8783C135.855 43.8783 135.499 43.7434 135.259 43.4738C135.019 43.2043 134.899 42.8737 134.899 42.482C134.895 42.0575 135.022 41.7006 135.281 41.4127C135.54 41.1244 135.888 40.9806 136.328 40.9806C136.513 40.9806 136.7 41.0164 136.891 41.0886C137.081 41.1605 137.243 41.263 137.375 41.3958L137.763 40.997ZM127.569 42.4708C127.569 42.0351 127.69 41.6804 127.932 41.4071C128.174 41.1338 128.513 40.9971 128.949 40.9971C129.248 41.0009 129.504 41.0774 129.716 41.2272C129.928 41.3766 130.08 41.5584 130.171 41.7729C130.261 41.987 130.306 42.2196 130.306 42.4708C130.306 42.8774 130.192 43.216 129.963 43.4875C129.734 43.7593 129.392 43.8947 128.937 43.8947C128.708 43.8947 128.504 43.8534 128.325 43.7702C128.146 43.687 128.003 43.5763 127.896 43.4378C127.789 43.2992 127.708 43.1478 127.655 42.9836C127.601 42.8191 127.573 42.6483 127.569 42.4708ZM128.949 40.4317C128.365 40.4317 127.887 40.6229 127.514 41.0054C127.141 41.3877 126.954 41.8743 126.954 42.4651C126.954 42.7276 126.996 42.976 127.079 43.2107C127.162 43.4452 127.282 43.6565 127.439 43.8449C127.596 44.0335 127.804 44.1839 128.062 44.2966C128.321 44.4092 128.612 44.4657 128.937 44.4657C129.263 44.4657 129.555 44.4111 129.813 44.3022C130.072 44.1932 130.279 44.0444 130.436 43.8561C130.593 43.6677 130.714 43.4542 130.796 43.216C130.88 42.978 130.921 42.7258 130.921 42.4599C130.921 41.8983 130.749 41.4211 130.406 41.0276C130.062 40.6341 129.577 40.4354 128.949 40.4317ZM121.164 40.504V44.3825H123.829V43.8062H121.785V40.504H121.164ZM117.425 41.0469C117.151 40.6111 116.669 40.3932 115.979 40.3932C115.794 40.3932 115.617 40.4143 115.446 40.457C115.277 40.4993 115.118 40.5631 114.97 40.6481C114.822 40.7331 114.704 40.8492 114.616 40.9971C114.527 41.1449 114.483 41.3149 114.483 41.5067C114.483 41.6658 114.511 41.8068 114.568 41.9307C114.625 42.0546 114.698 42.1552 114.785 42.2327C114.871 42.3101 114.985 42.3768 115.125 42.4322C115.266 42.4875 115.399 42.5299 115.527 42.5595C115.654 42.589 115.807 42.615 115.984 42.637C116.294 42.6778 116.537 42.745 116.713 42.8393C116.888 42.9334 116.976 43.0784 116.976 43.2742C116.976 43.4259 116.925 43.5523 116.824 43.6538C116.722 43.7556 116.601 43.8247 116.461 43.8617C116.32 43.8984 116.165 43.9171 115.995 43.9171C115.441 43.9171 115.039 43.7048 114.787 43.2798L114.322 43.5902C114.639 44.1774 115.196 44.4712 115.99 44.4712C116.278 44.4712 116.537 44.4332 116.768 44.3576C116.999 44.2816 117.195 44.1515 117.355 43.9668C117.516 43.7822 117.596 43.5512 117.596 43.2742C117.596 43.0675 117.555 42.8891 117.472 42.7397C117.389 42.59 117.268 42.472 117.109 42.3849C116.95 42.2984 116.789 42.2327 116.627 42.1884C116.464 42.1439 116.269 42.1049 116.039 42.072C115.733 42.0277 115.499 41.9668 115.338 41.8892C115.178 41.8113 115.097 41.6878 115.097 41.5178C115.097 41.3369 115.181 41.1937 115.347 41.0885C115.513 40.9829 115.729 40.9304 115.995 40.9304C116.198 40.9341 116.386 40.974 116.557 41.0496C116.729 41.1253 116.861 41.2298 116.954 41.3626L117.425 41.0469ZM109.579 41.069C109.819 41.069 110.002 41.14 110.128 41.2822C110.254 41.4245 110.316 41.5917 110.316 41.7837C110.316 41.9796 110.254 42.1439 110.128 42.2768C110.002 42.4101 109.818 42.4763 109.574 42.4763H108.394V41.069H109.579ZM111.053 44.2717L109.895 42.9807C110.254 42.9288 110.519 42.7912 110.69 42.568C110.862 42.3444 110.948 42.0792 110.948 41.7729C110.948 41.4257 110.827 41.1272 110.585 40.8782C110.343 40.6289 110.008 40.504 109.579 40.504C109.38 40.504 109.079 40.503 108.676 40.5012C108.274 40.4994 107.972 40.4984 107.773 40.4984V44.3826H108.394V43.0418H109.214L110.394 44.3826H111.12L111.053 44.2717ZM103.363 40.5096V42.7755C103.363 43.1376 103.263 43.4174 103.064 43.6151C102.865 43.8128 102.606 43.9022 102.288 43.8838C101.993 43.8726 101.754 43.7711 101.574 43.5789C101.393 43.3868 101.302 43.1192 101.302 42.7755V40.5096H100.687V42.7755C100.687 43.3001 100.839 43.7085 101.144 44.0002C101.449 44.2919 101.83 44.4435 102.288 44.4544C102.78 44.4728 103.184 44.3352 103.502 44.0417C103.819 43.7481 103.978 43.3263 103.978 42.7756V40.5096L103.363 40.5096ZM93.7781 42.4708C93.7781 42.0351 93.8993 41.6804 94.1411 41.4071C94.383 41.1338 94.722 40.9971 95.1579 40.9971C95.457 41.0009 95.7129 41.0774 95.9252 41.2272C96.1375 41.3766 96.2891 41.5584 96.3797 41.7729C96.47 41.987 96.5154 42.2196 96.5154 42.4708C96.5154 42.8774 96.4009 43.216 96.1718 43.4875C95.943 43.7593 95.6012 43.8947 95.147 43.8947C94.9179 43.8947 94.7137 43.8534 94.5346 43.7702C94.3553 43.687 94.2124 43.5763 94.105 43.4378C93.998 43.2992 93.9176 43.1478 93.8641 42.9836C93.8106 42.8191 93.7819 42.6483 93.7781 42.4708ZM95.1579 40.4317C94.5742 40.4317 94.096 40.6229 93.7227 41.0054C93.3498 41.3877 93.1634 41.8743 93.1634 42.4651C93.1634 42.7276 93.2047 42.976 93.2878 43.2107C93.3709 43.4452 93.491 43.6565 93.648 43.8449C93.8049 44.0335 94.0128 44.1839 94.2712 44.2966C94.53 44.4092 94.8216 44.4657 95.1469 44.4657C95.4719 44.4657 95.7635 44.4111 96.022 44.3022C96.2807 44.1932 96.4886 44.0444 96.6456 43.8561C96.8025 43.6677 96.9227 43.4542 97.0058 43.216C97.0888 42.978 97.1302 42.7258 97.1302 42.4599C97.1302 41.8983 96.9588 41.4211 96.6151 41.0276C96.2714 40.6341 95.7858 40.4354 95.1579 40.4317ZM87.3403 40.504H86.6035V40.5316L88.0993 42.7923V44.3825H88.7201V42.7923L90.2604 40.5316V40.504H89.5124L88.4096 42.2161L87.3403 40.504ZM73.6922 36.2369H77.0555V38.2187H71.125V27.6789H73.6923L73.6922 36.2369Z" fill="black"/>
</svg>
